<svg xmlns="http://www.w3.org/2000/svg" viewBox="0 0 483.21 99.71"><path d="M179.56 20.52c1.95 0 3.9.71 5.37 2.03a.7.7 0 0 0 1 0l3.1-3.22c.32-.32.32-.79-.04-1.12-2.7-2.45-5.64-3.69-9.62-3.69-7.96 0-14.35 6.4-14.35 14.35 0 7.96 6.4 14.27 14.35 14.27 3.54 0 6.96-1.23 9.66-3.86.28-.28.32-.79.04-1.08l-3.1-3.3c-.24-.28-.76-.28-1.04-.04-1.43 1.23-3.46 1.91-5.33 1.91-4.49 0-7.83-3.66-7.83-8.08-.01-4.44 3.3-8.17 7.79-8.17M214.74 14.51c-7.95 0-14.27 6.4-14.27 14.36 0 7.96 6.32 14.27 14.27 14.27 7.95 0 14.31-6.32 14.31-14.27.01-7.96-6.35-14.36-14.31-14.36m0 22.27c-4.33 0-7.91-3.58-7.91-7.92 0-4.37 3.58-7.99 7.91-7.99 4.38 0 7.95 3.62 7.95 7.99.01 4.34-3.57 7.92-7.95 7.92M258.16 36.9h-9.59V15.67c0-.41-.36-.76-.75-.76h-4.74c-.44 0-.75.35-.75.76v26.32c0 .4.31.75.75.75h15.08c.44 0 .76-.36.76-.75v-4.33c0-.41-.32-.76-.76-.76M284.14 14.51c-7.96 0-14.28 6.4-14.28 14.36 0 7.96 6.32 14.27 14.28 14.27 7.96 0 14.32-6.32 14.32-14.27-.01-7.96-6.36-14.36-14.32-14.36m0 22.27c-4.34 0-7.91-3.58-7.91-7.92 0-4.37 3.58-7.99 7.91-7.99 4.38 0 7.96 3.62 7.96 7.99 0 4.34-3.59 7.92-7.96 7.92M327.97 31.49c3.46-1.4 5.88-4.34 5.88-8 0-4.73-3.9-8.59-8.66-8.59h-11.9c-.45 0-.76.35-.76.75v26.32c0 .4.31.75.76.75h4.73c.39 0 .76-.36.76-.75V31.85h2.74l5.68 10.53c.07.16.32.36.64.36h5.28c.68 0 .95-.63.68-1.15l-5.83-10.1zm-3.3-4.69h-5.89v-6.2h5.89c1.63 0 3.02 1.35 3.02 3.02s-1.39 3.18-3.02 3.18M398.01 14.91h-9.7c-.4 0-.72.35-.72.75v26.32c0 .4.32.75.72.75h9.7c7.67 0 13.95-6.24 13.95-13.96 0-7.62-6.28-13.86-13.95-13.86m-.4 21.95h-3.82v-16.1h3.82c4.49 0 7.75 3.53 7.75 8.03.01 4.53-3.26 8.07-7.75 8.07M438.7 14.51c-7.96 0-14.28 6.4-14.28 14.36 0 7.96 6.32 14.27 14.28 14.27 7.95 0 14.31-6.32 14.31-14.27 0-7.96-6.36-14.36-14.31-14.36m0 22.27c-4.34 0-7.92-3.58-7.92-7.92 0-4.37 3.58-7.99 7.92-7.99 4.37 0 7.95 3.62 7.95 7.99 0 4.34-3.58 7.92-7.95 7.92M361.31 14.95c-.12-.24-.39-.44-.67-.44h-.4c-.28 0-.56.2-.68.44L347.11 41.7c-.25.52.08 1.04.67 1.04h4.37c.79 0 1.15-.24 1.43-.95l1.43-3.18h10.84l1.43 3.14c.41.86.57.99 1.39.99h4.41c.6 0 .92-.51.68-1.04l-12.45-26.75zm-4.51 18.94l3.62-8.33 3.66 8.33h-7.28z"/><g><path d="M174.73 65.42c5.67 0 9.93 4.29 9.93 9.77 0 5.64-4.26 10.04-9.93 10.04s-9.93-4.4-9.93-10.04c0-5.48 4.26-9.77 9.93-9.77zm0 16.71c3.46 0 6.29-3 6.29-6.94 0-3.78-2.83-6.67-6.29-6.67s-6.29 2.89-6.29 6.67c0 3.95 2.84 6.94 6.29 6.94zM186.78 82.35h2v-8.64h-2.13v-2.56h2.13v-.62c0-4.45 3.56-5.02 5.4-5.02.81 0 1.4.11 1.4.11v2.75s-.35-.08-1.05-.08c-.78 0-2.32.16-2.32 2.16v.7h6.26v-.62c0-4.45 3.54-5.02 5.37-5.02.84 0 1.43.11 1.43.11v2.75s-.35-.08-1.05-.08c-.78 0-2.35.16-2.35 2.16v.7h9.69v11.2h2v2.56h-7.42v-2.56h2v-8.64h-6.26v8.64h2.35v2.56h-7.75v-2.56h2v-8.64h-6.26v8.64h2.32v2.56h-7.75v-2.56zm21.32-16.6h3.48v3.05h-3.48v-3.05zM222.39 70.82c2.29 0 5.64.86 5.64 3.29V76h-2.97v-.92c0-.92-1.4-1.35-2.56-1.35-2.51 0-4.05 1.73-4.05 4.24 0 2.83 1.97 4.37 4.32 4.37 1.94 0 3.54-1.08 4.29-1.67l1.21 2.43c-.95.89-3.08 2.13-5.7 2.13-4.02 0-7.58-2.73-7.58-7.18 0-4.1 3.16-7.23 7.4-7.23zM230.11 82.35h2v-8.64h-2.13v-2.56h5.56v11.2h1.97v2.56h-7.4v-2.56zm1.97-16.6h3.46v3.05h-3.46v-3.05zM246.55 76.41h.86v-.46c0-1.75-1.11-2.38-2.54-2.38-2.05 0-3.89 1.32-3.89 1.32l-1.27-2.38s2.13-1.7 5.45-1.7c3.7 0 5.67 1.92 5.67 5.42v5.51c0 .41.22.59.59.59h1.24v2.56h-3.24c-1.27 0-1.75-.67-1.75-1.46v-.16c0-.43.08-.7.08-.7h-.05s-1.16 2.65-4.35 2.65c-2.35 0-4.56-1.38-4.56-4.18.02-4.2 5.55-4.63 7.76-4.63zm-2.29 6.26c1.86 0 3.18-2 3.18-3.73v-.46h-.57c-1.35 0-4.62.22-4.62 2.29.01 1.04.74 1.9 2.01 1.9zM255.06 68.31h-2.13v-2.56h5.53v14.58c0 1.24.27 1.89 1.4 1.89.38 0 .65-.03.65-.03v2.75s-.57.08-1.24.08c-2.19 0-4.21-.73-4.21-4.48V68.31zM272.07 78.73v1.43c0 1.24 1.57 1.97 3.37 1.97 1.94 0 3.32-.84 3.32-2.38 0-1.94-2.19-2.56-4.4-3.43-2.56-.97-5.07-2.13-5.07-5.56 0-3.86 3.13-5.34 6.42-5.34 3.02 0 6.07 1.16 6.07 3.38v2.51h-3.21v-1.3c0-.97-1.43-1.48-2.86-1.48-1.57 0-2.86.65-2.86 2.11 0 1.75 1.78 2.38 3.78 3.13 2.86 1.03 5.72 2.16 5.72 5.75 0 3.91-3.29 5.72-6.91 5.72-3.19 0-6.59-1.43-6.59-4.32v-2.19h3.22zM286 73.71h-2.11v-2.56h2.21V67.4h3.32v3.75h3.13v2.56h-3.13v5.8c0 2.35 1.78 2.67 2.75 2.67.38 0 .62-.03.62-.03v2.81s-.43.08-1.05.08c-1.94 0-5.75-.57-5.75-5.18v-6.15zM301.88 76.41h.86v-.46c0-1.75-1.11-2.38-2.54-2.38-2.05 0-3.89 1.32-3.89 1.32l-1.27-2.38s2.13-1.7 5.45-1.7c3.7 0 5.67 1.92 5.67 5.42v5.51c0 .41.22.59.59.59H308v2.56h-3.24c-1.27 0-1.75-.67-1.75-1.46v-.16c0-.43.08-.7.08-.7h-.05s-1.16 2.65-4.35 2.65c-2.35 0-4.56-1.38-4.56-4.18 0-4.2 5.53-4.63 7.75-4.63zm-2.3 6.26c1.86 0 3.19-2 3.19-3.73v-.46h-.57c-1.35 0-4.62.22-4.62 2.29 0 1.04.73 1.9 2 1.9zM311 73.71h-2.11v-2.56h2.21V67.4h3.32v3.75h3.13v2.56h-3.13v5.8c0 2.35 1.78 2.67 2.75 2.67.38 0 .62-.03.62-.03v2.81s-.43.08-1.05.08c-1.94 0-5.75-.57-5.75-5.18v-6.15zM326.31 70.82c3.97 0 6.13 2.89 6.13 6.53 0 .4-.08 1.16-.08 1.16h-9.53c.22 2.54 2.05 3.83 4.13 3.83 2.24 0 4-1.46 4-1.46l1.32 2.43s-2.11 1.92-5.56 1.92c-4.56 0-7.4-3.29-7.4-7.21 0-4.23 2.86-7.2 6.99-7.2zm2.59 5.67c-.05-1.89-1.21-3.02-2.67-3.02-1.75 0-3 1.21-3.32 3.02h5.99zM340.03 65.75h7.48v2.67h-2.24l2.48 10.93c.16.78.22 1.67.22 1.67h.11s.08-.89.3-1.67l3.59-13.6h2.83l3.59 13.6c.22.78.3 1.67.3 1.67h.11s.05-.89.22-1.67l2.48-10.93h-2.24v-2.67h7.48v2.67h-1.75l-4.08 16.49h-3.97l-3.21-12.09c-.22-.78-.3-1.75-.3-1.75h-.08s-.08.97-.3 1.75l-3.21 12.09h-3.97l-4.08-16.49h-1.75v-2.67zM374.77 70.82c3.97 0 6.13 2.89 6.13 6.53 0 .4-.08 1.16-.08 1.16h-9.53c.22 2.54 2.05 3.83 4.13 3.83 2.24 0 4-1.46 4-1.46l1.32 2.43s-2.11 1.92-5.56 1.92c-4.56 0-7.4-3.29-7.4-7.21 0-4.23 2.87-7.2 6.99-7.2zm2.6 5.67c-.05-1.89-1.21-3.02-2.67-3.02-1.75 0-3 1.21-3.32 3.02h5.99zM383.77 68.31h-2.11v-2.56h5.53v5.97c0 .67-.05 1.16-.05 1.16h.05s1.24-2.05 4.13-2.05c3.72 0 6.13 2.94 6.13 7.21 0 4.37-2.7 7.21-6.34 7.21-3 0-4.1-2.19-4.1-2.19h-.05s.05.49.05 1.03v.84h-3.24V68.31zm6.75 14.04c1.89 0 3.48-1.54 3.48-4.26 0-2.62-1.4-4.32-3.43-4.32-1.78 0-3.46 1.3-3.46 4.35 0 2.12 1.11 4.23 3.41 4.23zM405.99 82.27h2.29V68.42h-2.29v-2.67h9.18c1.13 0 2.29.08 3.24.49 2.08.86 3.43 3 3.43 5.67 0 2.73-1.43 5.05-3.64 5.83-.89.3-1.86.38-2.94.38h-3.43v4.16h2.32v2.65H406v-2.66zm8.8-7c.81 0 1.4-.11 1.94-.38 1.03-.51 1.57-1.59 1.57-3 0-1.32-.51-2.35-1.4-2.86-.54-.32-1.21-.46-2.08-.46h-3v6.69h2.97zM430.75 70.82c4.21 0 7.58 3 7.58 7.21 0 4.24-3.37 7.21-7.56 7.21-4.21 0-7.58-2.97-7.58-7.21 0-4.21 3.37-7.21 7.56-7.21zm.02 11.5c2.21 0 4.08-1.73 4.08-4.29 0-2.54-1.86-4.29-4.08-4.29-2.24 0-4.1 1.75-4.1 4.29 0 2.56 1.86 4.29 4.1 4.29zM440.22 82.35h2V74.3c0-.38-.22-.59-.59-.59h-1.54v-2.56h3.59c1.21 0 1.84.51 1.84 1.67v.81c0 .51-.05.86-.05.86h.05c.62-1.97 2.27-3.54 4.37-3.54.32 0 .62.05.62.05v3.37s-.35-.05-.84-.05c-2.78 0-4.02 2.43-4.02 5.02v3h1.97v2.56h-7.4v-2.55zM453.37 73.71h-2.11v-2.56h2.21V67.4h3.32v3.75h3.13v2.56h-3.13v5.8c0 2.35 1.78 2.67 2.75 2.67.38 0 .62-.03.62-.03v2.81s-.43.08-1.05.08c-1.94 0-5.75-.57-5.75-5.18v-6.15zM469.25 76.41h.86v-.46c0-1.75-1.11-2.38-2.54-2.38-2.05 0-3.89 1.32-3.89 1.32l-1.27-2.38s2.13-1.7 5.45-1.7c3.7 0 5.67 1.92 5.67 5.42v5.51c0 .41.22.59.59.59h1.24v2.56h-3.24c-1.27 0-1.75-.67-1.75-1.46v-.16c0-.43.08-.7.08-.7h-.05s-1.16 2.65-4.35 2.65c-2.35 0-4.56-1.38-4.56-4.18.01-4.2 5.54-4.63 7.76-4.63zm-2.3 6.26c1.86 0 3.19-2 3.19-3.73v-.46h-.57c-1.35 0-4.62.22-4.62 2.29.01 1.04.73 1.9 2 1.9zM477.75 68.31h-2.13v-2.56h5.53v14.58c0 1.24.27 1.89 1.4 1.89.38 0 .65-.03.65-.03v2.75s-.57.08-1.24.08c-2.19 0-4.21-.73-4.21-4.48V68.31z"/></g><path d="M147.7.11h1.3v99h-1.3z"/><g><path d="M83.3 45.45l10.07-8.77 13.71 11.99c-.16-2.72-.77-5.35-1.82-7.85a24.214 24.214 0 0 0-22.42-14.96c-7.24 0-14.04 3.19-18.67 8.75l-.12.14c-3.41 4.14-5.35 9.38-5.49 14.79l14.71-12.86 10.03 8.77z"/><path d="M55.73 50.17c0-6.28 2.2-12.4 6.19-17.24l.13-.14c5.12-6.16 12.71-9.71 20.78-9.71 10.98 0 20.79 6.54 25 16.67 0 0 0 .01.01.01 6.72-2.72 13.42-5.43 20.14-8.13.45-.19.58-.32.35-.83-.82-1.91-1.78-3.79-2.77-5.64-.09-.16-.19-.32-.29-.45C116.2 10.12 103.1 2.03 85.99.44c-4.91-.45-9.78 0-14.59 1.14-11.37 2.68-20.71 8.61-28 17.75-.21.27-.41.55-.62.82-1.21 1.61-2.3 3.29-3.37 5.01-.06.1-.09.22-.12.32-3.86 6.79-6.03 14.11-6.44 21.92-.35 7.17.77 14.08 3.38 20.77.09.23.18.45.27.67l19.3-16.89c-.04-.55-.07-1.14-.07-1.78z"/><path d="M58.62 52.14c.3 3.73 1.47 7.38 3.4 10.58.19.3.36.57.52.81l19.24-16.76-8.51-7.44-14.65 12.81zM59.67 64.23a27.321 27.321 0 0 1-3.59-9.87l-18.74 16.4c.64 1.39 1.33 2.76 2.07 4.1.07.1.16.22.23.32 1.08 1.83 2.28 3.56 3.56 5.22l17.23-15.01c-.25-.35-.5-.72-.76-1.16zM127.72 68.3c-6.59-2.67-13.18-5.32-19.78-7.98v.01c-.73 1.83-1.69 3.6-2.84 5.25a27.092 27.092 0 0 1-22.28 11.69c-8.26 0-16.1-3.82-21.21-10.27L44.43 81.97c1.38 1.65 2.86 3.22 4.47 4.68 3.91 3.53 8.12 6.34 12.61 8.44 6.05 2.82 12.61 4.36 19.69 4.59 5.13.19 10.17-.48 15.11-1.94 9.65-2.84 17.74-8.13 24.27-15.81.43-.51.85-1.03 1.26-1.56 1.34-1.75 2.56-3.6 3.71-5.51.96-1.75 1.88-3.53 2.65-5.38.06-.19.12-.32.16-.42l.06-.16-.06-.25c-.1-.13-.29-.19-.64-.35z"/><path d="M84.82 46.78l18.61 16.26c.76-1.21 1.41-2.46 1.93-3.77 1.03-2.53 1.59-5.21 1.72-7.96L93.36 39.33l-8.54 7.45zM63.72 65.16c4.59 5.84 11.66 9.31 19.11 9.31 7.67 0 14.87-3.64 19.45-9.77L83.29 48.1 63.72 65.16zM30.75 49.94c0-11.96 4.09-22.97 10.94-31.74-.23-.41-.46-.83-.71-1.27C37.02 9.91 35.03 6.52 31.06 0c-3.97 6.64-5.96 10.08-9.91 17.22-3.95 6.9-5.92 10.48-9.8 17.89 3.19-.83 4.81-1.16 8.06-1.65-.83 2.03-1.24 3.05-2.06 5.1-4.7 9.32-9.17 18.79-13.38 28.34 3.3-1.22 4.98-1.73 8.37-2.57C8.09 74.61 3.99 84.9 0 95.28c19.02-6.56 35.02-7.48 53.29-2.68-13.6-9.32-22.54-24.96-22.54-42.66z"/><g><path d="M111.63 93.93h-1.06c-.08 0-.13-.06-.13-.13v-.57c0-.07.06-.13.13-.13h3.03c.08 0 .13.06.13.13v.57c0 .07-.06.13-.13.13h-1.06v3.9c0 .07-.06.13-.13.13h-.64c-.07 0-.13-.06-.13-.13v-3.9zM115.57 93.14c.01-.06.05-.1.12-.1h.11c.06 0 .1.03.12.07l1.53 3.28h.02L119 93.1c.02-.04.05-.07.12-.07h.11c.08 0 .12.05.12.1l.82 4.66c.02.1-.03.16-.12.16h-.63c-.06 0-.12-.06-.13-.1l-.41-2.63h-.02l-1.21 2.73c-.01.04-.05.08-.12.08h-.12a.12.12 0 0 1-.12-.08l-1.23-2.73h-.02l-.4 2.63c-.01.05-.06.1-.12.1h-.62c-.09 0-.15-.06-.13-.16l.8-4.65z"/></g></g></svg>