<svg xmlns="http://www.w3.org/2000/svg" viewBox="0 0 164.1 27.5"><style>.st0{fill:#231f20}</style><g id="Option1"><path class="st0" d="M37.9 0h.4v27.5h-.4zM32.7 26.4h-.3v-.2h.8v.2H33v1.1h-.2v-1.1zM33.8 26.2s.1-.1 0 0c.1-.1.1 0 0 0l.5.9.4-.9.2 1.3h-.2l-.1-.7-.3.8-.3-.8-.1.7h-.2l.1-1.3zM31.2 25.8L16.7.7c-.6-1-1.5-1-2 0L.2 25.8c-.6 1-.1 1.7 1 1.7h28.9c1.2 0 1.7-.7 1.1-1.7zm-16.1-8.2l-1.7 1s-.1.1-.2 0c-.4-.4-.9-.6-1.5-.6-1.2 0-2.2 1-2.2 2.2 0 1.2 1 2.2 2.2 2.2.5 0 1-.2 1.4-.5.1-.1.3 0 .3 0l1.6.9s.1.1 0 .2c-.8.9-2 1.5-3.3 1.5-2.4 0-4.3-1.9-4.3-4.3s1.9-4.3 4.3-4.3c1.4 0 2.6.7 3.4 1.7 0-.1 0-.1 0 0zm-.4-5.3l-1.1-2.5c-.1-.3-.4-.4-.7-.2l-1.7.9c-.2.1-.3 0-.2-.2l4.5-7.8c.1-.2.4-.2.5 0l5.2 9.1c.1.2.1.3-.1.1L17.9 9c-.2-.2-.5-.1-.6.1l-2 3.3c-.3.2-.5.1-.6-.1zM20 24.4c-2.4 0-4.3-1.9-4.3-4.3s1.9-4.3 4.3-4.3 4.3 1.9 4.3 4.3-1.9 4.3-4.3 4.3z"/><path class="st0" d="M20 17.9c-1.2 0-2.2 1-2.2 2.2 0 1.2 1 2.2 2.2 2.2 1.2 0 2.2-1 2.2-2.2 0-1.2-1-2.2-2.2-2.2z"/><g><path class="st0" d="M48.4 2.4c.7 0 1.5.3 2 .8.1.1.3.1.4 0L52 2c.1-.1.1-.3 0-.4C51 .7 49.8.2 48.3.2c-3 0-5.5 2.4-5.5 5.5 0 3 2.4 5.4 5.5 5.4 1.4 0 2.7-.5 3.7-1.5.1-.1.1-.3 0-.4l-1.2-1.3c-.1-.1-.3-.1-.4 0-.5.5-1.3.7-2 .7-1.7 0-3-1.4-3-3.1 0-1.6 1.3-3.1 3-3.1M61.8.1c-3 0-5.4 2.4-5.4 5.5 0 3 2.4 5.4 5.4 5.4 3 0 5.5-2.4 5.5-5.4 0-3-2.5-5.5-5.5-5.5m0 8.5c-1.7 0-3-1.4-3-3 0-1.7 1.4-3 3-3 1.7 0 3 1.4 3 3 0 1.7-1.3 3-3 3M78.4 8.7h-3.7V.6c0-.2-.1-.3-.3-.3h-1.8c-.2 0-.3.1-.3.3v10c0 .2.1.3.3.3h5.8c.2 0 .3-.1.3-.3V9c0-.2-.1-.3-.3-.3M88.3.1c-3 0-5.4 2.4-5.4 5.5 0 3 2.4 5.4 5.4 5.4 3 0 5.5-2.4 5.5-5.4 0-3-2.5-5.5-5.5-5.5m0 8.5c-1.7 0-3-1.4-3-3 0-1.7 1.4-3 3-3 1.7 0 3 1.4 3 3 0 1.7-1.3 3-3 3M105 6.6c1.3-.5 2.2-1.7 2.2-3.1 0-1.8-1.5-3.3-3.3-3.3h-4.5c-.2 0-.3.1-.3.3v10c0 .2.1.3.3.3h1.8c.1 0 .3-.1.3-.3V6.8h1l2.2 4c0 .1.1.1.2.1h2c.3 0 .4-.2.3-.4L105 6.6zm-1.2-1.8h-2.2V2.5h2.2c.6 0 1.2.5 1.2 1.2-.1.6-.6 1.1-1.2 1.1M131.8.3h-3.7c-.2 0-.3.1-.3.3v10c0 .2.1.3.3.3h3.7c2.9 0 5.3-2.4 5.3-5.3S134.7.3 131.8.3m-.2 8.4h-1.5V2.5h1.5c1.7 0 3 1.3 3 3.1 0 1.7-1.3 3.1-3 3.1M147.3.1c-3 0-5.5 2.4-5.5 5.5 0 3 2.4 5.4 5.5 5.4 3 0 5.5-2.4 5.5-5.4 0-3-2.5-5.5-5.5-5.5m0 8.5c-1.7 0-3-1.4-3-3 0-1.7 1.4-3 3-3 1.7 0 3 1.4 3 3 0 1.7-1.3 3-3 3M117.8.3c0-.1-.1-.2-.3-.2h-.2c-.1 0-.2.1-.3.2l-4.8 10.2c-.1.2 0 .4.3.4h1.7c.3 0 .4-.1.5-.4l.5-1.2h4.1l.5 1.2c.2.3.2.4.5.4h1.7c.2 0 .4-.2.3-.4L117.8.3zM116 7.5l1.4-3.2 1.4 3.2H116z"/></g><g><path class="st0" d="M46.5 19.6c2.2 0 3.8 1.6 3.8 3.7 0 2.2-1.6 3.8-3.8 3.8-2.2 0-3.8-1.7-3.8-3.8 0-2.1 1.7-3.7 3.8-3.7zm0 6.4c1.3 0 2.4-1.1 2.4-2.6 0-1.4-1.1-2.5-2.4-2.5s-2.4 1.1-2.4 2.5 1.1 2.6 2.4 2.6zM51.1 26h.8v-3.3h-.8v-1h.8v-.2c0-1.7 1.4-1.9 2.1-1.9h.5v1.1h-.4c-.3 0-.9.1-.9.8v.3h2.4v-.2c0-1.7 1.4-1.9 2.1-1.9h.5v1.1h-.4c-.3 0-.9.1-.9.8v.3h3.7V26h.8v1h-2.8v-1h.8v-3.3H57V26h.9v1h-3v-1h.8v-3.3h-2.4V26h.9v1h-3v-1zm8.2-6.3h1.3v1.2h-1.3v-1.2zM64.7 21.6c.9 0 2.2.3 2.2 1.3v.7h-1.1v-.4c0-.4-.5-.5-1-.5-1 0-1.5.7-1.5 1.6 0 1.1.8 1.7 1.6 1.7.7 0 1.4-.4 1.6-.6l.5.9c-.4.3-1.2.8-2.2.8-1.5 0-2.9-1-2.9-2.7 0-1.6 1.2-2.8 2.8-2.8zM67.7 26h.8v-3.3h-.8v-1h2.1V26h.8v1h-2.8v-1zm.7-6.3h1.3v1.2h-1.3v-1.2zM74 23.8h.3v-.2c0-.7-.4-.9-1-.9-.8 0-1.5.5-1.5.5l-.5-.9s.8-.6 2.1-.6c1.4 0 2.2.7 2.2 2.1v2.1c0 .2.1.2.2.2h.5v1h-1.2c-.5 0-.7-.3-.7-.6v-.1-.3s-.4 1-1.7 1c-.9 0-1.7-.5-1.7-1.6 0-1.6 2.1-1.7 3-1.7zm-.9 2.4c.7 0 1.2-.8 1.2-1.4v-.2h-.2c-.5 0-1.8.1-1.8.9 0 .3.3.7.8.7zM77.2 20.7h-.8v-1h2.1v5.6c0 .5.1.7.5.7h.2v1h-.5c-.8 0-1.6-.3-1.6-1.7v-4.6zM83.7 24.7v.5c0 .5.6.8 1.3.8.7 0 1.3-.3 1.3-.9 0-.7-.8-1-1.7-1.3-1-.4-1.9-.8-1.9-2.1 0-1.5 1.2-2 2.5-2 1.2 0 2.3.4 2.3 1.3v1h-1.2v-.5c0-.4-.5-.6-1.1-.6-.6 0-1.1.2-1.1.8 0 .7.7.9 1.4 1.2 1.1.4 2.2.8 2.2 2.2 0 1.5-1.3 2.2-2.6 2.2-1.2 0-2.5-.5-2.5-1.6v-.8h1.1zM89 22.7h-.8v-1h.8v-1.4h1.3v1.4h1.2v1h-1.2V25c0 .9.7 1 1.1 1h.2v1h-.4c-.7 0-2.2-.2-2.2-2v-2.3zM95.3 23.8h.3v-.2c0-.7-.4-.9-1-.9-.8 0-1.5.5-1.5.5l-.5-.9s.8-.6 2.1-.6c1.4 0 2.2.7 2.2 2.1v2.1c0 .2.1.2.2.2h.5v1h-1.2c-.5 0-.7-.3-.7-.6v-.1-.3s-.4 1-1.7 1c-.9 0-1.7-.5-1.7-1.6 0-1.6 2.1-1.7 3-1.7zm-.9 2.4c.7 0 1.2-.8 1.2-1.4v-.2h-.2c-.5 0-1.8.1-1.8.9 0 .3.3.7.8.7zM98.8 22.7H98v-1h.8v-1.4h1.3v1.4h1.2v1h-1.2V25c0 .9.7 1 1.1 1h.2v1h-.4c-.7 0-2.2-.2-2.2-2v-2.3zM104.6 21.6c1.5 0 2.3 1.1 2.3 2.5v.4h-3.6c.1 1 .8 1.5 1.6 1.5.9 0 1.5-.6 1.5-.6l.5.9s-.8.7-2.1.7c-1.7 0-2.8-1.3-2.8-2.8-.1-1.4 1-2.6 2.6-2.6zm1 2.2c0-.7-.5-1.2-1-1.2-.7 0-1.1.5-1.3 1.2h2.3zM109.8 19.7h2.9v1h-.9l.9 4.2c.1.3.1.6.1.6s0-.3.1-.6l1.4-5.2h1.1l1.4 5.2c.1.3.1.6.1.6s0-.3.1-.6l.9-4.2h-.9v-1h2.9v1h-.7l-1.6 6.3h-1.5l-1.2-4.6c-.1-.3-.1-.7-.1-.7s0 .4-.1.7l-1.2 4.6H112l-1.6-6.3h-.7v-1zM122.5 21.6c1.5 0 2.3 1.1 2.3 2.5v.4h-3.6c.1 1 .8 1.5 1.6 1.5.9 0 1.5-.6 1.5-.6l.5.9s-.8.7-2.1.7c-1.7 0-2.8-1.3-2.8-2.8-.1-1.4 1-2.6 2.6-2.6zm1 2.2c0-.7-.5-1.2-1-1.2-.7 0-1.1.5-1.3 1.2h2.3zM125.7 20.7h-.8v-1h2.1V22.4s.5-.8 1.6-.8c1.4 0 2.3 1.1 2.3 2.8 0 1.7-1 2.8-2.4 2.8-1.1 0-1.6-.8-1.6-.8V27h-1.2v-6.3zm2.6 5.3c.7 0 1.3-.6 1.3-1.6s-.5-1.6-1.3-1.6c-.7 0-1.3.5-1.3 1.7 0 .7.4 1.5 1.3 1.5zM134.2 26h.9v-5.3h-.9v-1h3.5c.4 0 .9 0 1.2.2.8.3 1.3 1.1 1.3 2.2 0 1-.5 1.9-1.4 2.2-.3.1-.7.1-1.1.1h-1.3V26h.9v1h-3.1v-1zm3.4-2.7c.3 0 .5 0 .7-.1.4-.2.6-.6.6-1.1 0-.5-.2-.9-.5-1.1-.2-.1-.5-.2-.8-.2h-1.1v2.6h1.1zM143.6 21.6c1.6 0 2.9 1.1 2.9 2.8 0 1.6-1.3 2.8-2.9 2.8-1.6 0-2.9-1.1-2.9-2.8.1-1.6 1.3-2.8 2.9-2.8zm.1 4.4c.8 0 1.6-.7 1.6-1.6 0-1-.7-1.6-1.6-1.6-.9 0-1.6.7-1.6 1.6 0 1 .7 1.6 1.6 1.6zM147.3 26h.8v-3c0-.1-.1-.2-.2-.2h-.6v-1h1.4c.5 0 .7.2.7.6v.6c.2-.8.9-1.4 1.7-1.4h.2V23h-.3c-1.1 0-1.5.9-1.5 1.9V26h.8v1h-2.8v-1zM152.7 22.7h-.8v-1h.8v-1.4h1.3v1.4h1.2v1H154V25c0 .9.7 1 1.1 1h.2v1h-.4c-.7 0-2.2-.2-2.2-2v-2.3zM158.8 23.8h.3v-.2c0-.7-.4-.9-1-.9-.8 0-1.5.5-1.5.5l-.5-.9s.8-.6 2.1-.6c1.4 0 2.2.7 2.2 2.1v2.1c0 .2.1.2.2.2h.5v1h-1.2c-.5 0-.7-.3-.7-.6v-.1-.3s-.4 1-1.7 1c-.9 0-1.7-.5-1.7-1.6 0-1.6 2.1-1.7 3-1.7zm-.9 2.4c.7 0 1.2-.8 1.2-1.4v-.2h-.2c-.5 0-1.8.1-1.8.9 0 .3.3.7.8.7zM162 20.7h-.8v-1h2.1v5.6c0 .5.1.7.5.7h.2v1h-.5c-.8 0-1.6-.3-1.6-1.7v-4.6z"/></g></g></svg>