<svg id="width_guide" data-name="width guide" xmlns="http://www.w3.org/2000/svg" width="7.24in" height="1.38in" viewBox="0 0 521.1 99.42"><defs><style>.cls-1{fill:#4e5758}.cls-2{fill:#fff}.cls-3{fill:#6cc049}.cls-4{fill:#00b2e2}.cls-5{fill:#00953a}.cls-6{fill:#5c6670}</style></defs><title>co_cdphe__dept_rgb</title><path class="cls-1" d="M187.93.12c4 0 5.61 2.82 3.62 6.28l-51.94 90.13c-2 3.45-5.25 3.45-7.25 0L80.42 6.4C78.43 2.94 80.06.12 84 .12h103.93"/><path class="cls-2" d="M123.55 72.21l2.92 5.08 24.03-8.66 4.47-7.75-31.42 11.33zm4.14 7.19l2.84 4.93 13.77-4.94 4.35-7.54-20.96 7.55zm4.06 7.05l1.82 3.16c1.33 2.31 3.51 2.31 4.84 0l4-7z"/><path class="cls-3" d="M122.33 70.1l11.4-4.11-17.33-6.17 5.93 10.28z"/><path class="cls-4" d="M173.31 29.59L156.94 58l-19.67 7.09-22.88-8.15-15.76-27.35c-1.34-2.32-.25-4.22 2.43-4.22h69.82c2.68 0 3.77 1.89 2.43 4.22"/><path class="cls-2" d="M103.83 5.67a7 7 0 0 1 5.06 1.95.39.39 0 0 1 0 .59l-1.63 1.7a.37.37 0 0 1-.52 0 4.26 4.26 0 0 0-2.82-1.07 4.17 4.17 0 0 0-4.1 4.31 4.14 4.14 0 0 0 4.18 4.24 4.42 4.42 0 0 0 2.8-1 .41.41 0 0 1 .54 0l1.63 1.74a.42.42 0 0 1 0 .56 7.17 7.17 0 0 1-5.08 2 7.54 7.54 0 1 1-.06-15.02zm10.31.6a.39.39 0 0 1 .38-.4h5.1a7.33 7.33 0 1 1 0 14.65h-5.1a.39.39 0 0 1-.38-.4V6.27zm5.26 11.16a4.07 4.07 0 0 0 4.08-4.25A4.07 4.07 0 0 0 119.4 9h-2v8.48h2zm12.82-11.16a.4.4 0 0 1 .4-.4h5a4.67 4.67 0 1 1 0 9.34h-2.19v4.92a.41.41 0 0 1-.4.4h-2.46a.4.4 0 0 1-.4-.4V6.27zm5.24 5.88a1.64 1.64 0 0 0 1.65-1.65 1.59 1.59 0 0 0-1.64-1.5h-2v3.2h2zm9.79-5.88a.41.41 0 0 1 .4-.4h2.48a.4.4 0 0 1 .4.4v5.27h6V6.27a.4.4 0 0 1 .4-.4h2.49a.41.41 0 0 1 .4.4v13.86a.41.41 0 0 1-.4.4h-2.52a.4.4 0 0 1-.4-.4v-5.51h-6v5.51a.4.4 0 0 1-.4.4h-2.48a.41.41 0 0 1-.4-.4V6.27zm18.86 0a.4.4 0 0 1 .4-.4h8.65a.4.4 0 0 1 .4.4v2.28a.4.4 0 0 1-.4.4h-5.79v2.6h4.76a.41.41 0 0 1 .4.4v2.28a.4.4 0 0 1-.4.4h-4.76v2.83h5.79a.4.4 0 0 1 .4.4v2.28a.4.4 0 0 1-.4.4h-8.65a.4.4 0 0 1-.4-.4V6.27zm-29.67 34.56l-.24-10.54-.3 10.54c0 1.55-.11 3.1-.06 4.64s.12 3.1.31 4.64.05 0 .05 0c.18-1.55.23-3.1.29-4.64s-.01-3.1-.05-4.64zm5.03-4.83c-.86.43-1.25.56-2.09 1a7.63 7.63 0 0 0-2.25 1.47 9.27 9.27 0 0 0 2.56-1.3c.76-.48 1-.67 1.78-1.17zm2.25 2.82l-3.44 1.46a14.06 14.06 0 0 0-3.15 1.61 16.15 16.15 0 0 0 3.42-1.43l3.16-1.64zm1.75 3.31c-1.47.51-2.62.75-4.06 1.28-.72.26-1.48.5-2.14.81a11.51 11.51 0 0 0-1.83 1 17.54 17.54 0 0 0 2.33-.66 22.06 22.06 0 0 0 2-.9c1.34-.61 2.36-1 3.66-1.58h-.06zm-6.28-8.28c-.48.3-.51.23-1 .54a2.47 2.47 0 0 0-1.12.94c.61-.42.65-.37 1-.66a4.93 4.93 0 0 0 1.05-.82zm7.29 11.83c-1.76.52-2.29.63-4 1.17-.87.27-1.77.51-2.58.83a17.83 17.83 0 0 0-2.31 1.08 24.6 24.6 0 0 0 2.76-.67c.88-.26 1.66-.6 2.48-.92 1.64-.62 2.06-.84 3.67-1.49h-.06zM130.94 36c.74.5 1 .68 1.78 1.17a9.27 9.27 0 0 0 2.56 1.3 7.62 7.62 0 0 0-2.21-1.47c-.84-.44-1.22-.57-2.09-1zm-2.25 2.83l3.16 1.64a16.15 16.15 0 0 0 3.42 1.43 14.06 14.06 0 0 0-3.15-1.61l-3.44-1.46zm-1.77 3.31c1.31.63 2.33 1 3.66 1.58a22.06 22.06 0 0 0 2 .9 17.54 17.54 0 0 0 2.33.66 11.51 11.51 0 0 0-1.83-1c-.66-.31-1.41-.55-2.14-.81-1.44-.53-2.59-.77-4.06-1.28h-.06zm6.31-8.29a4.93 4.93 0 0 0 1.05.82c.39.29.43.24 1 .66a2.47 2.47 0 0 0-1.12-.94c-.46-.31-.48-.24-1-.54zm-7.32 11.84c1.62.65 2 .86 3.67 1.49.82.32 1.61.66 2.48.92a24.6 24.6 0 0 0 2.76.67 17.83 17.83 0 0 0-2.31-1.08c-.81-.32-1.71-.56-2.58-.83-1.73-.54-2.26-.65-4-1.17h-.06zm22.55-11.79c.34.61 2 3.63 2.78 5.33-.47-1.51-1-3.16-1.16-3.6a17 17 0 0 0-1.72-4.25 8.31 8.31 0 0 1-.66-1.38c-.36-.64-1-.44-1.26.43a20.17 20.17 0 0 1 1.78 3zm-4.62-1.53c.51.45 2.69 2.44 4.24 3.93-.91-1.34-1.84-2.67-2.12-3a19.19 19.19 0 0 0-3.26-4 9.41 9.41 0 0 1-1.15-1.27c-.72-.69-1.58.07-1.1 1.54a22.66 22.66 0 0 1 3 2.51zm7.36 7.93c-.44-1.1-2.74-5.42-3.16-6.17a23.14 23.14 0 0 0-2.11-3.6 6.78 6.78 0 0 0-.51-.58 8.92 8.92 0 0 1-.94-1.33c-.45-.56-1.08-.33-1.23.44a17.84 17.84 0 0 1 2.75 3.47l.3.44v.06c.58.8 3.11 4.44 3.92 5.8.29.45.59.95.9 1.47z"/><path class="cls-2" d="M155 46.54c-.31-.26-1.71-1.94-1.79-2a31.51 31.51 0 0 1-2.16-3.5 20.09 20.09 0 0 0-1.89-2.93c-.87-1-4.91-4.7-5.63-5.34a20.4 20.4 0 0 0-4.33-3.44 10 10 0 0 1-1.49-1.06c-1.16-.71-2 1.11.3 3.1 4.34 3.73 7.42 7.3 8.76 10.59a9.28 9.28 0 0 1 .76 3.69c-.08 3.94-3.27 5-7.3 4.77h-.35a7.94 7.94 0 0 0-1.21 0h-.41c-1.37.06-1.78.78-1.71 1.48s1.64.83 2.4.83 2.14 1 6 1.2c2.54.13 3.22.28 6.25.4a18.49 18.49 0 0 1 4.15 1.58l4-6.86a43.19 43.19 0 0 1-4.35-2.51zm-30.81-13.09a20.16 20.16 0 0 1 1.78-3c-.21-.87-.9-1.07-1.26-.43a8.32 8.32 0 0 1-.64 1.37 17 17 0 0 0-1.72 4.25c-.15.44-.69 2.09-1.16 3.6.82-1.7 2.43-4.72 2.78-5.33zm1.89-.45l.3-.44a17.83 17.83 0 0 1 2.79-3.47c-.15-.77-.78-1-1.23-.44A8.94 8.94 0 0 1 127 30a18.23 18.23 0 0 0-2.62 4.18c-.42.75-2.72 5.07-3.16 6.17.3-.53.6-1 .9-1.47.82-1.44 3.46-5.23 3.96-5.88zm2.92-1a22.66 22.66 0 0 1 3-2.51c.48-1.46-.38-2.23-1.1-1.54a9.4 9.4 0 0 1-1.15 1.27 19.19 19.19 0 0 0-3.26 4c-.28.38-1.21 1.71-2.12 3 1.55-1.49 3.73-3.49 4.24-3.93z"/><path class="cls-2" d="M117.42 46.54c.31-.26 1.71-1.94 1.79-2a31.51 31.51 0 0 0 2.16-3.5 20.08 20.08 0 0 1 1.89-2.93c.87-1 4.91-4.7 5.63-5.34a20.4 20.4 0 0 1 4.33-3.44 10 10 0 0 0 1.49-1.06c1.16-.71 2 1.11-.3 3.1-4.34 3.73-7.42 7.3-8.76 10.59a9.28 9.28 0 0 0-.76 3.69c.08 3.94 3.27 5 7.3 4.77h.35a7.94 7.94 0 0 1 1.21 0h.41c1.37.06 1.78.78 1.71 1.48s-1.64.83-2.4.83-2.14 1-6 1.2c-2.54.13-3.22.28-6.25.4a18.5 18.5 0 0 0-4.15 1.58l-4-6.86a43.18 43.18 0 0 0 4.35-2.51z"/><path class="cls-5" d="M4.48 99.12c-4 0-5.62-2.83-3.63-6.28l52-90.13c2-3.45 5.26-3.45 7.26 0l52 90.13c2 3.46.37 6.28-3.63 6.28h-104z"/><path class="cls-2" d="M39.56 37c-.5.86-.17 1.19.71.75l6.08-3.13a1.73 1.73 0 0 1 2.37.82l4.09 8.89a.88.88 0 0 0 1.71.1l7.32-11.88a1.51 1.51 0 0 1 2.33-.36L75.69 42c.76.65 1 .47.49-.4L57.44 8.93a1 1 0 0 0-1.8 0zm14.62 26.43a.39.39 0 0 0 .17-.22.5.5 0 0 0-.11-.33 15.51 15.51 0 1 0-.5 19.58l.06-.07a.54.54 0 0 0-.11-.83l-5.77-3.33a.76.76 0 0 0-.92.08l-.13.12a7.79 7.79 0 1 1 .54-11.63.66.66 0 0 0 .73.11l6-3.48m17.71 1.14a7.78 7.78 0 1 1-7.78 7.79 7.79 7.79 0 0 1 7.78-7.79m0 23.29a15.51 15.51 0 1 0-15.51-15.5 15.53 15.53 0 0 0 15.51 15.5"/><path class="cls-5" d="M117.74 95h-1.06a.13.13 0 0 1-.13-.13v-.55a.13.13 0 0 1 .13-.13h3a.13.13 0 0 1 .13.13v.57a.13.13 0 0 1-.13.13h-1.06v3.9a.14.14 0 0 1-.13.13h-.64a.14.14 0 0 1-.13-.13V95zm3.94-.77a.11.11 0 0 1 .13-.1h.11a.13.13 0 0 1 .12.07l1.53 3.28 1.53-3.28a.12.12 0 0 1 .12-.07h.11a.11.11 0 0 1 .13.1l.82 4.66a.12.12 0 0 1-.12.16h-.63a.16.16 0 0 1-.13-.1l-.4-2.64-1.25 2.69a.11.11 0 0 1-.12.08h-.12a.13.13 0 0 1-.12-.08l-1.23-2.73-.4 2.63a.14.14 0 0 1-.12.1H121a.13.13 0 0 1-.13-.16z"/><path class="cls-6" d="M240 6a8.1 8.1 0 0 1 5.37 2 .7.7 0 0 0 1 0l3.1-3.22a.75.75 0 0 0 0-1.12A13.39 13.39 0 0 0 239.81 0a14.31 14.31 0 1 0 0 28.63 13.64 13.64 0 0 0 9.66-3.86.79.79 0 0 0 0-1.08l-3.1-3.3a.79.79 0 0 0-1 0 8.4 8.4 0 0 1-5.37 1.88 7.88 7.88 0 0 1-7.84-8.08A7.92 7.92 0 0 1 240 6m35.19-6a14.26 14.26 0 0 0-14.27 14.36 14.29 14.29 0 0 0 28.59 0A14.29 14.29 0 0 0 275.19 0m0 22.28a8 8 0 1 1 8-7.92 8 8 0 0 1-8 7.92m43.42.11H309V1.16a.77.77 0 0 0-.74-.76h-4.74a.75.75 0 0 0-.75.76v26.32a.75.75 0 0 0 .75.75h15.08a.76.76 0 0 0 .76-.75v-4.33a.75.75 0 0 0-.76-.75M344.58 0a14.25 14.25 0 0 0-14.28 14.36 14.3 14.3 0 0 0 28.59 0A14.29 14.29 0 0 0 344.58 0m0 22.28a8 8 0 1 1 8-7.92 8 8 0 0 1-8 7.92M388.41 17c3.46-1.4 5.88-4.34 5.88-8a8.65 8.65 0 0 0-8.66-8.6h-11.9a.75.75 0 0 0-.76.75v26.33a.75.75 0 0 0 .76.75h4.73a.79.79 0 0 0 .76-.75V17.34H382l5.68 10.53a.72.72 0 0 0 .63.36h5.29a.75.75 0 0 0 .68-1.15zm-3.3-4.7h-5.88V6.09h5.88a3 3 0 0 1 3 3 3.18 3.18 0 0 1-3 3.18M458.45.4h-9.7a.75.75 0 0 0-.72.75v26.33a.75.75 0 0 0 .72.75h9.7a13.91 13.91 0 1 0 0-27.83m-.4 21.95h-3.82V6.25h3.82a7.73 7.73 0 0 1 7.75 8 7.75 7.75 0 0 1-7.75 8.07M499.15 0a14.26 14.26 0 0 0-14.28 14.36 14.3 14.3 0 0 0 28.59 0A14.29 14.29 0 0 0 499.15 0m0 22.28a8 8 0 1 1 7.95-7.92 8 8 0 0 1-7.95 7.92M421.76.44a.79.79 0 0 0-.67-.44h-.4a.81.81 0 0 0-.68.44l-12.45 26.75a.7.7 0 0 0 .68 1h4.37a1.28 1.28 0 0 0 1.43-1l1.43-3.18h10.83l1.43 3.14c.4.86.57 1 1.39 1h4.41a.7.7 0 0 0 .68-1zm-4.51 18.94l3.61-8.38 3.66 8.34h-7.28zM225.46 70.09v-2.64h2.29V53.6h-2.29v-2.67h8.29a14.5 14.5 0 0 1 4 .46c3.81 1.11 6.21 4.48 6.21 9.12s-2.24 7.8-5.94 9a13 13 0 0 1-4.24.57h-8.31zm5.83-2.83h2.32a8.56 8.56 0 0 0 3.13-.49c2.24-.89 3.56-3.16 3.56-6.26s-1.4-5.43-3.7-6.32a8.18 8.18 0 0 0-3-.43h-2.32v13.5zM247.81 58a6.67 6.67 0 0 1 5-2 5.67 5.67 0 0 1 4.51 1.86 6.79 6.79 0 0 1 1.68 4.68l-.08 1.16h-9.53a4 4 0 0 0 4.13 3.83 6.67 6.67 0 0 0 3.48-1.11l.49-.35 1.32 2.43-.7.54a8.66 8.66 0 0 1-1.89.86 8.49 8.49 0 0 1-3 .51 7.26 7.26 0 0 1-5.37-2.08 7.69 7.69 0 0 1-.04-10.33zm7.64 3.64a2.76 2.76 0 0 0-2.67-3 3.35 3.35 0 0 0-3.32 3h6zm5.19 11.29h2V59.49a.52.52 0 0 0-.59-.59h-1.54v-2.57H264q1.7 0 1.7 1.3v.69h.05a3.45 3.45 0 0 1 .62-.81A5.07 5.07 0 0 1 270.2 56a5.47 5.47 0 0 1 4.43 2 7.89 7.89 0 0 1 1.67 5.21 7.55 7.55 0 0 1-1.78 5.24 5.72 5.72 0 0 1-4.51 2 5.06 5.06 0 0 1-3.59-1.45l-.42-.52a7.35 7.35 0 0 1 .08 1.19v3.27h2v2.56h-7.42v-2.57zm6.24-6.64a3 3 0 0 0 2.51 1.24c2 0 3.46-1.65 3.46-4.26s-1.38-4.32-3.43-4.32S266 60.4 266 63.29a4.88 4.88 0 0 0 .88 3zm12.93-3.51a7.76 7.76 0 0 1 2-.76 12.92 12.92 0 0 1 3.67-.43h.86v-.46c0-1.59-.84-2.37-2.54-2.37a7.35 7.35 0 0 0-3.37 1l-.51.35-1.27-2.37a7.16 7.16 0 0 1 .67-.46 11.28 11.28 0 0 1 4.81-1.28c3.7 0 5.67 1.89 5.67 5.42v5.51a.52.52 0 0 0 .59.59h1.24v2.56h-3.24a1.47 1.47 0 0 1-1.75-1.46v-.14l.08-.7h-.05a3.89 3.89 0 0 1-.62.92 4.66 4.66 0 0 1-3.72 1.73 4.94 4.94 0 0 1-3.24-1.08 3.8 3.8 0 0 1-1.32-3.1 4 4 0 0 1 2.04-3.47zm3.4 5.08a2.74 2.74 0 0 0 2.24-1.16 4.07 4.07 0 0 0 .95-2.56v-.47h-.57A10.08 10.08 0 0 0 283 64a2 2 0 0 0-1.79 2 1.86 1.86 0 0 0 2 1.85zm10.02 2.23v-2.56h2v-8a.52.52 0 0 0-.59-.59h-1.54v-2.61h3.59a1.56 1.56 0 0 1 1.83 1.67v.81l-.05.86h.05a4.72 4.72 0 0 1 4.37-3.54l.62.05v3.37a7.42 7.42 0 0 0-.84-.05 3.41 3.41 0 0 0-3 1.46 6.11 6.11 0 0 0-1 3.56v3h2v2.56h-7.4zm13.15-11.2h-2.11v-2.56h2.21v-3.75h3.32v3.75h3.13v2.56h-3.13v5.8a2.48 2.48 0 0 0 2.75 2.67h.62v2.81a5.9 5.9 0 0 1-1.05.08 7.15 7.15 0 0 1-2.86-.51c-1.54-.59-2.89-1.89-2.89-4.67v-6.18zm8.62 11.2v-2.56h2v-8.07a.51.51 0 0 0-.59-.57h-1.54v-2.56h3.59c1.21 0 1.81.51 1.81 1.54v.62l-.05.59h.05A5.47 5.47 0 0 1 325 56a3.6 3.6 0 0 1 3.83 3h.05a5.37 5.37 0 0 1 4.78-3c2.94 0 4.43 1.75 4.43 5.24v6.29h2v2.56h-5.43v-8.2c0-1.81-.41-2.75-1.89-2.75a3 3 0 0 0-2.59 1.43 6.11 6.11 0 0 0-.92 3.46v3.51h2v2.56h-5.4v-8.21c0-1.75-.38-2.75-1.86-2.75a2.93 2.93 0 0 0-2.62 1.51 6.51 6.51 0 0 0-.92 3.54v3.35h2v2.56H315zM343.29 58a6.67 6.67 0 0 1 5-2 5.67 5.67 0 0 1 4.51 1.86 6.78 6.78 0 0 1 1.62 4.67l-.08 1.16h-9.53a4 4 0 0 0 4.19 3.84 6.66 6.66 0 0 0 3.51-1.11l.49-.35 1.32 2.43-.7.54a8.65 8.65 0 0 1-1.89.86 8.49 8.49 0 0 1-3 .51 7.26 7.26 0 0 1-5.37-2.08 7.69 7.69 0 0 1-.07-10.33zm7.64 3.64a2.76 2.76 0 0 0-2.67-3 3.35 3.35 0 0 0-3.32 3h6zm5.51 8.45v-2.56h2v-8a.52.52 0 0 0-.59-.59h-1.55v-2.61h3.62q1.78 0 1.78 1.54v.62l-.05.59h.05a5.51 5.51 0 0 1 5.07-3.08c3.08 0 4.62 1.75 4.62 5.24v6.29h2v2.56H368v-8.15c0-1.84-.57-2.81-2.19-2.81a3.44 3.44 0 0 0-2.86 1.43 5.34 5.34 0 0 0-1.08 3.35v3.62h2v2.56h-7.4zm19.95-11.2h-2.11v-2.56h2.21v-3.75h3.32v3.75h3.13v2.56h-3.13v5.8a2.47 2.47 0 0 0 2.75 2.67h.62v2.81a5.88 5.88 0 0 1-1.05.08 7.16 7.16 0 0 1-2.86-.51c-1.54-.59-2.89-1.89-2.89-4.67v-6.18zm16.95 9.5a6.83 6.83 0 0 1-2.19-5.18 6.73 6.73 0 0 1 2.19-5.16 8.06 8.06 0 0 1 10.74 0 6.66 6.66 0 0 1 2.21 5.16 6.83 6.83 0 0 1-2.19 5.18 8.18 8.18 0 0 1-10.76 0zm2.48-2.08a4.14 4.14 0 0 0 5.8 0 4.61 4.61 0 0 0 0-6.18 3.87 3.87 0 0 0-2.89-1.21 4 4 0 0 0-2.92 1.21 4.61 4.61 0 0 0 .02 6.19zm12.37 3.78v-2.56h2v-8.64h-2.13v-2.56h2.13v-.62a5 5 0 0 1 1.35-3.7 4.4 4.4 0 0 1 1.38-.81 6.38 6.38 0 0 1 2.67-.51l1.4.11v2.75a5.2 5.2 0 0 0-1.05-.08c-1.54 0-2.32.73-2.32 2.16v.7h3.11v2.56h-3.11v8.64h2.32v2.56h-7.75zm16.88 0v-2.64h2.29V53.6h-2.29v-2.67h9.18a8.51 8.51 0 0 1 3.24.49 5.88 5.88 0 0 1 3.43 5.67 6 6 0 0 1-3.64 5.83 9.76 9.76 0 0 1-2.94.38h-3.44v4.16h2.32v2.65h-8.15zm5.83-9.64h3a4.52 4.52 0 0 0 1.94-.38 3 3 0 0 0 1.57-3 3 3 0 0 0-1.4-2.86 4.09 4.09 0 0 0-2.08-.46h-3v6.69zm13.18-1.56h-2.13v-2.56h5.56v8.26c0 1.81.54 2.78 2.16 2.78a3.25 3.25 0 0 0 2.75-1.46 5.83 5.83 0 0 0 1.05-3.46v-3.56h-2.11v-2.56h5.53V67a.52.52 0 0 0 .59.59h1.32v2.54h-3.4q-1.78 0-1.78-1.54v-1.24h-.05a4.73 4.73 0 0 1-1.27 1.67 5.46 5.46 0 0 1-3.75 1.35c-3 0-4.51-1.75-4.51-5.24v-6.24zm17.41 11.2v-16.6h-2.11v-2.56h5.53v6l-.05 1.16h.05a2.62 2.62 0 0 1 .62-.7A4.78 4.78 0 0 1 469 56a5.52 5.52 0 0 1 4.45 2 7.89 7.89 0 0 1 1.67 5.21 7.55 7.55 0 0 1-1.78 5.24 5.83 5.83 0 0 1-4.56 2 4.67 4.67 0 0 1-4-1.94l-.13-.24h-.05c0 .32.05.67.05 1v.84h-3.24zm4.24-3.81a2.89 2.89 0 0 0 2.51 1.24c2 0 3.48-1.65 3.48-4.26s-1.38-4.32-3.43-4.32-3.46 1.46-3.46 4.35a5 5 0 0 0 .9 3zm12.18-12.79h-2.13v-2.56h5.53v14.58c0 1.32.32 1.89 1.4 1.89h.65v2.75a8.75 8.75 0 0 1-1.24.08 4.81 4.81 0 0 1-3.08-.95c-.76-.65-1.13-1.84-1.13-3.54V53.49zm7.26 16.6v-2.56h2v-8.64H485v-2.56h5.56v11.2h2v2.56h-7.4zm2-16.11v-3.05h3.46V54h-3.46zm8.96 4.1a7.33 7.33 0 0 1 5.29-2.08 10.94 10.94 0 0 1 2.48.3 5.52 5.52 0 0 1 2.19 1.08 2.37 2.37 0 0 1 1 1.92v1.89h-3v-.92c0-.86-1.27-1.35-2.56-1.35a3.88 3.88 0 0 0-4 4.24 4.15 4.15 0 0 0 1.24 3.21 4.33 4.33 0 0 0 3.08 1.16 7 7 0 0 0 4.29-1.67l1.21 2.43a8.77 8.77 0 0 1-5.7 2.13 7.82 7.82 0 0 1-5.37-2 6.62 6.62 0 0 1-2.28-5.18 6.94 6.94 0 0 1 2.13-5.16zM225.46 99.09v-2.64h2.29V82.6h-2.29v-2.67h8.15v2.67h-2.32v5.53H240V82.6h-2.32v-2.67h8.15v2.67h-2.29v13.85h2.29v2.65h-8.15v-2.65H240V91h-8.72v5.48h2.32v2.65h-8.15zM249.81 87a6.67 6.67 0 0 1 5-2 5.67 5.67 0 0 1 4.51 1.86 6.79 6.79 0 0 1 1.68 4.68l-.08 1.16h-9.53a4 4 0 0 0 4.13 3.83 6.67 6.67 0 0 0 3.48-1.11l.49-.35 1.32 2.43-.7.54a8.67 8.67 0 0 1-1.89.86 8.49 8.49 0 0 1-3 .51 7.26 7.26 0 0 1-5.37-2.08 7.69 7.69 0 0 1-.04-10.33zm7.64 3.64a2.76 2.76 0 0 0-2.67-3 3.35 3.35 0 0 0-3.32 3h6zm7.08 1.14a7.78 7.78 0 0 1 2-.76 12.92 12.92 0 0 1 3.67-.43h.86v-.46c0-1.59-.84-2.37-2.54-2.37a7.34 7.34 0 0 0-3.37 1l-.51.35-1.27-2.37a7.1 7.1 0 0 1 .67-.46 11.29 11.29 0 0 1 4.81-1.28c3.7 0 5.67 1.89 5.67 5.42v5.51a.52.52 0 0 0 .59.59h1.24v2.56h-3.24a1.47 1.47 0 0 1-1.75-1.46v-.14l.08-.7h-.05a4 4 0 0 1-.62.92 4.66 4.66 0 0 1-3.77 1.72 4.94 4.94 0 0 1-3.24-1.08 3.8 3.8 0 0 1-1.32-3.1 4 4 0 0 1 2.09-3.46zm3.4 5.08a2.74 2.74 0 0 0 2.24-1.16 4.07 4.07 0 0 0 .94-2.56v-.47h-.57a10.07 10.07 0 0 0-2.81.38 2 2 0 0 0-1.8 1.95 1.86 1.86 0 0 0 2 1.85zm10.8-14.37h-2.13v-2.56h5.53v14.58c0 1.32.32 1.89 1.4 1.89h.65v2.75a8.75 8.75 0 0 1-1.24.08 4.81 4.81 0 0 1-3.08-.95c-.76-.65-1.13-1.83-1.13-3.54V82.49zm8.67 5.4h-2.11v-2.56h2.21v-3.75h3.32v3.75H294v2.56h-3.13v5.8a2.48 2.48 0 0 0 2.75 2.67h.62v2.81a5.9 5.9 0 0 1-1.05.08 7.15 7.15 0 0 1-2.86-.51c-1.54-.59-2.89-1.89-2.89-4.67v-6.18zm8.15 11.2v-2.56h2v-14h-2.13v-2.6H301v6.69l-.08 1.16h.05A5.4 5.4 0 0 1 305.7 85c3.21 0 4.8 1.75 4.8 5.24v6.29h2v2.56h-5.43v-8.15c0-1.84-.54-2.81-2.16-2.81a3.52 3.52 0 0 0-2.86 1.35 5 5 0 0 0-1.05 3.3v3.75h2v2.56h-7.4zm28.32-10.2v-.05a3 3 0 0 1-.87-.54 4.45 4.45 0 0 1-1.67-3.64 4.32 4.32 0 0 1 1.78-3.72 7.32 7.32 0 0 1 4.51-1.32 11.48 11.48 0 0 1 2.19.24l.35.08-.81 2.75a5.69 5.69 0 0 0-1.3-.16c-1.84 0-3.21.94-3.21 2.54s.81 2.67 2.94 2.67h3.59v-2.6h3.4v2.59h2.48v2.81h-2.48v2.38a6.22 6.22 0 0 1-1.92 4.75 7.46 7.46 0 0 1-5.21 1.75 7.85 7.85 0 0 1-5.16-1.62 5.11 5.11 0 0 1-2-4.1 5 5 0 0 1 3.39-4.81zm3.75 7.42c2.29 0 3.7-1.24 3.7-3.59v-2.18h-3.8c-2.16 0-3.51 1-3.51 2.86s1.43 2.91 3.61 2.91zm17.72 2.78v-2.64h2.29V82.6h-2.29v-2.67h14.23v4.94h-3v-2.11h-5.37V88h6.32v2.83h-6.32v5.4h5.78V94.1h3v5h-14.64zm16.9 0v-2.56h2v-8a.52.52 0 0 0-.59-.59h-1.54v-2.61h3.62q1.78 0 1.78 1.54v.62l-.05.59h.05a5.51 5.51 0 0 1 5.07-3.08c3.08 0 4.62 1.75 4.62 5.24v6.29h2v2.56h-5.4v-8.15c0-1.84-.57-2.81-2.19-2.81a3.44 3.44 0 0 0-2.86 1.43 5.34 5.34 0 0 0-1.08 3.35v3.62h2v2.56h-7.4zm17.58-11.2v-2.56h6.61v2.56h-1.54l2.38 6.8a8.26 8.26 0 0 1 .32 1.3v.22h.08a6.54 6.54 0 0 1 .33-1.51l2.4-6.8h-1.57v-2.57h6.61v2.56h-1.65l-4.21 11.2h-3.94l-4.18-11.2h-1.67zm16.9 11.2v-2.56h2v-8.64h-2.13v-2.56h5.56v11.2h2v2.56h-7.4zm2-16.11v-3.05h3.46V83h-3.46zm7.18 16.11v-2.56h2v-8a.52.52 0 0 0-.59-.59h-1.54v-2.61h3.59a1.56 1.56 0 0 1 1.83 1.67v.81l-.05.86h.05a4.72 4.72 0 0 1 4.37-3.54l.62.05v3.37a7.42 7.42 0 0 0-.84-.05 3.41 3.41 0 0 0-3 1.46 6.11 6.11 0 0 0-1 3.56v3h2v2.56h-7.4zm13.61-1.7a6.83 6.83 0 0 1-2.19-5.18 6.73 6.73 0 0 1 2.19-5.16 8.06 8.06 0 0 1 10.74 0 6.66 6.66 0 0 1 2.21 5.16 6.83 6.83 0 0 1-2.19 5.18 8.18 8.18 0 0 1-10.76 0zm2.49-2.07a4.14 4.14 0 0 0 5.8 0 4.61 4.61 0 0 0 0-6.18 3.87 3.87 0 0 0-2.89-1.21 4 4 0 0 0-2.91 1.2 4.61 4.61 0 0 0 0 6.19zm12.36 3.77v-2.56h2v-8a.52.52 0 0 0-.59-.59h-1.54v-2.61h3.62q1.78 0 1.78 1.54v.62l-.05.59h.05A5.51 5.51 0 0 1 444.7 85c3.08 0 4.62 1.75 4.62 5.24v6.29h2v2.56h-5.4v-8.15c0-1.84-.57-2.81-2.19-2.81a3.44 3.44 0 0 0-2.86 1.43 5.35 5.35 0 0 0-1.08 3.35v3.62h2v2.56h-7.4zm18.55 0v-2.56h2v-8.07a.51.51 0 0 0-.59-.57h-1.54v-2.56h3.59c1.21 0 1.81.51 1.81 1.54v.62l-.05.59h.05a5.47 5.47 0 0 1 4.7-3.08 3.6 3.6 0 0 1 3.83 3h.05a5.38 5.38 0 0 1 4.78-3c2.94 0 4.43 1.75 4.43 5.24v6.29h2v2.56h-5.43v-8.2c0-1.81-.41-2.75-1.89-2.75a3 3 0 0 0-2.65 1.43 6.11 6.11 0 0 0-.92 3.46v3.51h2v2.56h-5.4v-8.21c0-1.75-.38-2.75-1.86-2.75a2.93 2.93 0 0 0-2.62 1.51 6.52 6.52 0 0 0-.92 3.54v3.35h2v2.56h-7.4zM481.2 87a6.67 6.67 0 0 1 5-2 5.67 5.67 0 0 1 4.51 1.86 6.78 6.78 0 0 1 1.62 4.67l-.08 1.16h-9.53a4 4 0 0 0 4.13 3.83 6.67 6.67 0 0 0 3.51-1.11l.49-.35 1.32 2.43-.7.54a8.66 8.66 0 0 1-1.89.86 8.49 8.49 0 0 1-3 .51 7.26 7.26 0 0 1-5.37-2.08A7.69 7.69 0 0 1 481.2 87zm7.64 3.64a2.76 2.76 0 0 0-2.67-3 3.35 3.35 0 0 0-3.32 3h6zm5.51 8.45v-2.56h2v-8a.52.52 0 0 0-.59-.59h-1.54v-2.61h3.62q1.78 0 1.78 1.54v.62l-.05.59h.05a5.51 5.51 0 0 1 5.07-3.08c3.08 0 4.62 1.75 4.62 5.24v6.29h2v2.56h-5.4v-8.15c0-1.84-.57-2.81-2.19-2.81a3.44 3.44 0 0 0-2.86 1.43 5.35 5.35 0 0 0-1.08 3.35v3.62h2v2.56h-7.4zm19.95-11.2h-2.1v-2.56h2.21v-3.75h3.32v3.75h3.13v2.56h-3.13v5.8a2.48 2.48 0 0 0 2.75 2.67h.62v2.81a5.89 5.89 0 0 1-1.05.08 7.15 7.15 0 0 1-2.86-.51c-1.54-.59-2.89-1.89-2.89-4.67v-6.18zM208.3.12h1.3v99h-1.3z"/></svg>