<svg xmlns="http://www.w3.org/2000/svg" width="538.8" height="104.8" viewBox="0 0 538.8 104.8"><style>.st0{fill:#4e5758}.st1{fill:#4495d1}.st2{fill:#d7db26}.st3{fill:#fff}.st4{fill:#039547}.st5{fill:#5c6670}</style><g id="width_guide"><path class="st0" d="M187.6 0H84c-4 0-5.6 2.8-3.6 6.2l51.8 89.7c2 3.4 5.2 3.4 7.2 0l51.8-89.7c1.9-3.4.3-6.2-3.6-6.2m-43.5 78.9l-13.7 4.9-2.8-4.9 20.9-7.5-4.4 7.5zm6.2-10.7l-24 8.6-2.9-5 31.3-11.3-4.4 7.7zm-28.1 1.4l-5.9-10.2 18.3 6.2-12.4 4zm16 19.4c-1.3 2.3-3.5 2.3-4.8 0l-1.8-3.1 10.7-3.8-4.1 6.9z"/><path class="st1" d="M172.8 29.2l-16.2 28.1-19.5 7-22.6-8.1-15.6-27c-1.3-2.3-.2-4.2 2.4-4.2h69.1c2.6 0 3.7 1.9 2.4 4.2"/><path class="st2" d="M116.3 59.4l5.9 10.2 12.3-4z"/><path class="st3" d="M138.6 31.9l-3.1 6-2 .8v-8l2.7-1.1zM131.9 32.2v7.1l-4.2 1.6v-6.4zM126.1 36.6v4.9l-2.4.9v-4.7zM140 45.7c0 .2 0 .5-.1.7-.3 1.4-1.6 2.5-3.1 2.5-1.6 0-2.8-1.1-3.1-2.5-.1-.2-.1-.4-.1-.7h-9.8V47c0 .1.1.3.3.3l3 .6c.3 1.2.7 2.3 1.4 3.3l-1.5 2.2c-.1.1-.1.3 0 .4l1.8 1.8c.1.1.3.1.4 0l2.3-1.5c1 .7 2.2 1.2 3.4 1.4l.6 3c0 .1.1.3.3.3h2.6c.1 0 .3-.1.3-.3l.6-3c1.2-.3 2.3-.7 3.3-1.4l2.2 1.5c.1.1.3.1.4 0l1.8-1.8c.1-.1.1-.3 0-.4l-1.5-2.2c.7-1 1.2-2.2 1.4-3.4l3-.6c.1 0 .3-.1.3-.3v-1.3H140z"/><path class="st3" d="M149.8 44.1h-26.1l12.9-4.8 3.2-6.3 1.1-2.1 3 7.8 2.3-4.2z"/><g><path class="st3" d="M112.3 8.6c.9 0 1.9.3 2.6 1 .1.1.3.1.5 0l1.5-1.6c.2-.2.2-.4 0-.5-1.3-1.2-2.7-1.8-4.6-1.8-3.8 0-6.9 3.1-6.9 7s3.1 6.9 6.9 6.9c1.7 0 3.4-.6 4.7-1.9.1-.1.2-.4 0-.5l-1.5-1.6c-.1-.1-.4-.1-.5 0-.7.6-1.7.9-2.6.9-2.2 0-3.8-1.8-3.8-3.9 0-2.1 1.6-4 3.7-4zM151.3 16.6h-4.6V6.3c0-.2-.2-.4-.4-.4H144c-.2 0-.4.2-.4.4v12.8c0 .2.2.4.4.4h7.3c.2 0 .4-.2.4-.4V17c-.1-.2-.2-.4-.4-.4zM130.2 5.9h-4.7c-.2 0-.3.2-.3.4v12.8c0 .2.2.4.3.4h4.7c3.7 0 6.7-3 6.7-6.8s-3-6.8-6.7-6.8zm-.2 10.7h-1.8V8.8h1.8c2.2 0 3.7 1.7 3.7 3.9s-1.6 3.9-3.7 3.9zM165.9 16.6h-4.6v-3h4.4c.2 0 .3-.2.3-.3v-2c0-.2-.1-.3-.3-.3h-4.4V8.6h4.4c.2 0 .3-.2.3-.3v-2c0-.2-.1-.3-.3-.3H158.6c-.2 0-.4.2-.4.4v12.8c0 .2.2.4.4.4h7.3c.2 0 .4-.2.4-.4V17c0-.2-.2-.4-.4-.4z"/></g><g><path class="st4" d="M4.5 99.1c-4 0-5.6-2.8-3.6-6.3l52-90.1c2-3.5 5.3-3.5 7.3 0l52 90.1c2 3.5.4 6.3-3.6 6.3H4.5z"/><path class="st3" d="M39.6 37c-.5.9-.2 1.2.7.7l6.1-3.1c.9-.5 2-.1 2.4.8l4.1 8.9c.4.9 1.2.9 1.7.1l7.3-11.9c.5-.8 1.6-1 2.3-.4L75.7 42c.8.6 1 .5.5-.4L57.4 8.9c-.5-.9-1.3-.9-1.8 0L39.6 37zM54.2 63.4l.2-.2c0-.1-.1-.3-.1-.3-2.8-3.7-7.3-6-12.2-6-8.6 0-15.5 7-15.5 15.5s7 15.5 15.5 15.5c4.7 0 8.9-2.1 11.7-5.4l.1-.1c.4-.5-.1-.8-.1-.8L48 78.3s-.5-.3-.9.1l-.1.1c-1.3 1.1-3 1.7-4.9 1.7-4.3 0-7.8-3.5-7.8-7.8s3.5-7.8 7.8-7.8c2.1 0 4 .8 5.4 2.2.4.3.7.1.7.1l6-3.5M71.8 64.6c4.3 0 7.8 3.5 7.8 7.8s-3.5 7.8-7.8 7.8-7.8-3.5-7.8-7.8c.1-4.3 3.6-7.8 7.8-7.8m0 23.3c8.6 0 15.5-7 15.5-15.5 0-8.6-7-15.5-15.5-15.5-8.6 0-15.5 7-15.5 15.5s7 15.5 15.5 15.5"/><path class="st4" d="M117.7 95h-1.1c-.1 0-.1-.1-.1-.1v-.6c0-.1.1-.1.1-.1h3c.1 0 .1.1.1.1v.6c0 .1-.1.1-.1.1h-1.1v3.9c0 .1-.1.1-.1.1h-.6c-.1 0-.1-.1-.1-.1V95zM121.7 94.2c0-.1 0-.1.1-.1h.1c.1 0 .1 0 .1.1l1.5 3.3 1.5-3.3.1-.1h.1c.1 0 .1 0 .1.1l.8 4.7c0 .1 0 .2-.1.2h-.6c-.1 0-.1-.1-.1-.1l-.4-2.6-1.2 2.7-.1.1h-.1c-.1 0-.1 0-.1-.1l-1.2-2.7-.4 2.6-.1.1h-.7c-.1 0-.1-.1-.1-.2l.8-4.7z"/></g><g><path class="st5" d="M240 6c1.9 0 3.9.7 5.4 2 .3.3.7.3 1 0l3.1-3.2c.3-.3.3-.8 0-1.1-2.7-2.5-5.6-3.7-9.6-3.7-8 0-14.4 6.4-14.4 14.4s6.4 14.3 14.4 14.3c3.5 0 7-1.2 9.7-3.9.3-.3.3-.8 0-1.1l-3.1-3.3c-.2-.3-.8-.3-1 0-1.4 1.2-3.5 1.9-5.3 1.9-4.5 0-7.8-3.7-7.8-8.1-.2-4.5 3.1-8.2 7.6-8.2M275.2 0c-8 0-14.3 6.4-14.3 14.4s6.3 14.3 14.3 14.3 14.3-6.3 14.3-14.3S283.1 0 275.2 0m0 22.3c-4.3 0-7.9-3.6-7.9-7.9 0-4.4 3.6-8 7.9-8 4.4 0 8 3.6 8 8-.1 4.3-3.6 7.9-8 7.9M318.6 22.4H309V1.2c0-.4-.4-.8-.8-.8h-4.7c-.4 0-.8.4-.8.8v26.3c0 .4.3.8.8.8h15.1c.4 0 .8-.4.8-.8v-4.3c0-.5-.4-.8-.8-.8M344.6 0c-8 0-14.3 6.4-14.3 14.4s6.3 14.3 14.3 14.3 14.3-6.3 14.3-14.3S352.5 0 344.6 0m0 22.3c-4.3 0-7.9-3.6-7.9-7.9 0-4.4 3.6-8 7.9-8 4.4 0 8 3.6 8 8-.1 4.3-3.6 7.9-8 7.9M388.4 17c3.5-1.4 5.9-4.3 5.9-8 0-4.7-3.9-8.6-8.7-8.6h-11.9c-.4 0-.8.4-.8.8v26.3c0 .4.3.8.8.8h4.7c.4 0 .8-.4.8-.8V17.3h2.7l5.7 10.5c.1.2.3.4.6.4h5.3c.7 0 1-.6.7-1.1L388.4 17zm-3.3-4.7h-5.9V6.1h5.9c1.6 0 3 1.4 3 3 0 1.7-1.4 3.2-3 3.2M458.5.4h-9.7c-.4 0-.7.4-.7.8v26.3c0 .4.3.8.7.8h9.7c7.7 0 14-6.2 14-14-.1-7.7-6.4-13.9-14-13.9m-.4 21.9h-3.8V6.2h3.8c4.5 0 7.8 3.5 7.8 8-.1 4.6-3.4 8.1-7.8 8.1M499.1 0c-8 0-14.3 6.4-14.3 14.4s6.3 14.3 14.3 14.3c7.9 0 14.3-6.3 14.3-14.3.1-8-6.3-14.4-14.3-14.4m0 22.3c-4.3 0-7.9-3.6-7.9-7.9 0-4.4 3.6-8 7.9-8 4.4 0 7.9 3.6 7.9 8 .1 4.3-3.5 7.9-7.9 7.9M421.8.4c-.1-.2-.4-.4-.7-.4h-.4c-.3 0-.6.2-.7.4l-12.4 26.8c-.2.5.1 1 .7 1h4.4c.8 0 1.2-.2 1.4-1l1.4-3.2h10.8l1.4 3.1c.4.9.6 1 1.4 1h4.4c.6 0 .9-.5.7-1L421.8.4zm-4.6 19l3.6-8.3 3.7 8.3h-7.3z"/></g><g><path class="st5" d="M225.5 70.1v-2.6h2.3V53.6h-2.3v-2.7h8.3c1.6 0 3 .2 4 .5 3.8 1.1 6.2 4.5 6.2 9.1 0 4.5-2.2 7.8-5.9 9-1.1.4-2.5.6-4.2.6h-8.4zm5.8-2.8h2.3c1.3 0 2.3-.2 3.1-.5 2.2-.9 3.6-3.2 3.6-6.3 0-3.2-1.4-5.4-3.7-6.3-.7-.3-1.7-.4-3-.4h-2.3v13.5zM248 58c1.3-1.3 3-2 5-2 1.9 0 3.4.6 4.5 1.9 1.1 1.2 1.6 2.8 1.6 4.7l-.1 1.2h-9.5c.2 2.5 1.9 3.8 4.1 3.8 1.3 0 2.8-.6 3.5-1.1l.5-.4 1.3 2.4-.7.5c-.3.2-.9.5-1.9.9-.9.4-1.9.5-3 .5-2.2 0-4-.7-5.4-2.1-1.3-1.4-2-3.1-2-5.1.1-2.1.8-3.9 2.1-5.2zm7.6 3.7c0-1.8-1.2-3-2.7-3-1.7 0-3 1.2-3.3 3h6zM260.9 72.9h2V59.5c0-.4-.2-.6-.6-.6h-1.5v-2.6h3.5c1.1 0 1.7.4 1.7 1.3v.7h.1c.1-.1.1-.3.6-.8.6-.7 1.8-1.5 3.8-1.5 1.9 0 3.3.7 4.4 2 1.1 1.3 1.7 3.1 1.7 5.2 0 2.2-.6 3.9-1.8 5.2-1.2 1.3-2.7 2-4.5 2-1.6 0-3-.8-3.6-1.5l-.4-.5h-.1c.1.3.1.7.1 1.2v3.3h2v2.6h-7.4v-2.6zm6.2-6.6c.6.8 1.5 1.2 2.5 1.2 2 0 3.5-1.6 3.5-4.3 0-2.6-1.4-4.3-3.4-4.3-1.9 0-3.5 1.5-3.5 4.3 0 1.3.3 2.3.9 3.1zM280.2 62.8c.6-.3 1.2-.6 2-.8 1.5-.4 2.6-.4 3.7-.4h.9v-.5c0-1.6-.8-2.4-2.5-2.4-1.2 0-2.7.5-3.4 1l-.5.4-1.3-2.4c.2-.1.4-.3.7-.5.3-.2.9-.5 1.9-.8.9-.3 1.9-.5 2.9-.5 3.7 0 5.7 1.9 5.7 5.4v5.5c0 .4.2.6.6.6h1.2V70h-3.2c-1.2 0-1.8-.6-1.8-1.5v-.2l.1-.7h-.1c-.1.1-.1.3-.6.9-.6.8-1.8 1.7-3.7 1.7-1.3 0-2.3-.4-3.2-1.1-.9-.7-1.3-1.8-1.3-3.1-.1-1.4.8-2.6 1.9-3.2zm3.4 5.1c.9 0 1.6-.4 2.2-1.2.6-.8.9-1.6.9-2.6v-.5h-.6c-.9 0-1.7.1-2.8.4-1.1.2-1.8.9-1.8 1.9.1 1.1.9 2 2.1 2zM293.8 70.1v-2.6h2v-8c0-.4-.2-.6-.6-.6h-1.5v-2.6h3.6c1.2 0 1.8.6 1.8 1.7v.8l-.1.9h.1c.6-2.1 2.3-3.5 4.4-3.5l.6.1v3.4c-.2 0-.5-.1-.8-.1-1.3 0-2.3.5-3 1.5-.7 1-1 2.2-1 3.6v3h2v2.6h-7.5zM307.6 58.9h-2.1v-2.6h2.2v-3.8h3.3v3.8h3.1v2.6H311v5.8c0 2.3 1.8 2.7 2.8 2.7h.6v2.8c-.3.1-.6.1-1.1.1-.9 0-1.8-.1-2.9-.5-1.5-.6-2.9-1.9-2.9-4.7v-6.2zM317.4 70.1v-2.6h2v-8.1c0-.4-.2-.6-.6-.6h-1.5v-2.6h3.6c1.2 0 1.8.5 1.8 1.5v.6l-.1.6h.1c.8-1.6 2.6-3.1 4.7-3.1s3.3 1 3.8 3h.1c.8-1.7 2.7-3 4.8-3 2.9 0 4.4 1.8 4.4 5.2v6.3h2v2.6H337v-8.2c0-1.8-.4-2.8-1.9-2.8-1.1 0-2 .5-2.6 1.4-.6.9-.9 2.1-.9 3.5v3.5h2v2.6h-5.4v-8.2c0-1.8-.4-2.8-1.9-2.8-1.1 0-2 .5-2.6 1.5-.6 1-.9 2.2-.9 3.5v3.3h2v2.6h-7.4zM345.9 58c1.3-1.3 3-2 5-2 1.9 0 3.4.6 4.5 1.9 1.1 1.2 1.6 2.8 1.6 4.7l-.1 1.2h-9.5c.2 2.5 1.9 3.8 4.1 3.8 1.3 0 2.8-.6 3.5-1.1l.5-.4 1.3 2.4-.7.5c-.3.2-.9.5-1.9.9-.9.4-1.9.5-3 .5-2.2 0-4-.7-5.4-2.1-1.3-1.4-2-3.1-2-5.1.1-2.1.8-3.9 2.1-5.2zm7.6 3.7c0-1.8-1.2-3-2.7-3-1.7 0-3 1.2-3.3 3h6zM359.1 70.1v-2.6h2v-8c0-.4-.2-.6-.6-.6H359v-2.6h3.6c1.2 0 1.8.5 1.8 1.5v.6l-.1.6h.1c.1-.4.5-.9 1.3-1.7.8-.8 2.2-1.4 3.8-1.4 3.1 0 4.6 1.8 4.6 5.2v6.3h2V70h-5.4v-8.2c0-1.8-.6-2.8-2.2-2.8-1.2 0-2.1.5-2.9 1.4-.7.9-1.1 2.1-1.1 3.3v3.6h2v2.6h-7.4zM379.2 58.9h-2.1v-2.6h2.2v-3.8h3.3v3.8h3.1v2.6h-3.1v5.8c0 2.3 1.8 2.7 2.8 2.7h.6v2.8c-.3.1-.6.1-1.1.1-.9 0-1.8-.1-2.9-.5-1.5-.6-2.9-1.9-2.9-4.7v-6.2zM396.4 68.4c-1.5-1.4-2.2-3.1-2.2-5.2s.7-3.8 2.2-5.2c1.5-1.4 3.2-2.1 5.4-2.1 2.1 0 3.9.7 5.4 2.1 1.5 1.3 2.2 3.1 2.2 5.2s-.7 3.8-2.2 5.2c-1.5 1.3-3.2 2-5.4 2-2.1 0-3.9-.7-5.4-2zm2.5-2.1c.8.8 1.8 1.2 2.9 1.2 1.1 0 2.1-.4 2.9-1.2.8-.8 1.2-1.8 1.2-3.1 0-1.2-.4-2.3-1.2-3.1-.8-.8-1.8-1.2-2.9-1.2-1.1 0-2.1.4-2.9 1.2-.8.8-1.2 1.8-1.2 3.1s.4 2.3 1.2 3.1zM411.4 70.1v-2.6h2v-8.6h-2.1v-2.6h2.1v-.6c0-1.7.6-3 1.3-3.7.4-.4.9-.6 1.4-.8 1.1-.4 1.8-.5 2.7-.5l1.4.1v2.8c-.2-.1-.6-.1-1.1-.1-1.5 0-2.3.7-2.3 2.2v.7h3.1V59h-3.1v8.6h2.3v2.6h-7.7zM225.5 99.1v-2.6h2.3V82.8h-2.3V80h8.2v2.8h-2.3v13.5h5.7v-3h3v5.8h-14.6zM244.4 91.8c.6-.3 1.2-.6 2-.8 1.5-.4 2.6-.4 3.7-.4h.9v-.5c0-1.6-.8-2.4-2.5-2.4-1.2 0-2.7.5-3.4 1l-.5.4-1.3-2.4c.2-.1.4-.3.7-.5.3-.2.9-.5 1.9-.8.9-.3 1.9-.5 2.9-.5 3.7 0 5.7 1.9 5.7 5.4v5.5c0 .4.2.6.6.6h1.2V99H253c-1.2 0-1.8-.6-1.8-1.5v-.2l.1-.7h-.1c-.1.1-.1.3-.6.9-.6.8-1.8 1.7-3.7 1.7-1.3 0-2.3-.4-3.2-1.1-.9-.7-1.3-1.8-1.3-3.1 0-1.4.9-2.6 2-3.2zm3.4 5.1c.9 0 1.6-.4 2.2-1.2.6-.8.9-1.6.9-2.6v-.5h-.6c-.9 0-1.7.1-2.8.4-1.1.2-1.8.9-1.8 1.9.1 1.1.9 2 2.1 2zM258.9 99.1V82.5h-2.1v-2.6h5.5v6l-.1 1.2h.1c.1-.1.1-.2.6-.7.6-.6 1.8-1.3 3.5-1.3 1.9 0 3.3.7 4.5 2 1.1 1.3 1.7 3.1 1.7 5.2 0 2.2-.6 3.9-1.8 5.2-1.2 1.3-2.7 2-4.6 2-2.3 0-3.6-1.4-4-1.9l-.1-.2h-.1c0 .3.1.7.1 1v.8h-3.2zm4.2-3.8c.6.8 1.4 1.2 2.5 1.2 2 0 3.5-1.6 3.5-4.3 0-2.6-1.4-4.3-3.4-4.3-1.9 0-3.5 1.5-3.5 4.3 0 1.3.3 2.3.9 3.1zM276.5 97.4c-1.5-1.4-2.2-3.1-2.2-5.2s.7-3.8 2.2-5.2c1.5-1.4 3.2-2.1 5.4-2.1 2.1 0 3.9.7 5.4 2.1 1.5 1.3 2.2 3.1 2.2 5.2s-.7 3.8-2.2 5.2c-1.5 1.3-3.2 2-5.4 2s-3.9-.7-5.4-2zm2.5-2.1c.8.8 1.8 1.2 2.9 1.2 1.1 0 2.1-.4 2.9-1.2.8-.8 1.2-1.8 1.2-3.1 0-1.2-.4-2.3-1.2-3.1-.8-.8-1.8-1.2-2.9-1.2s-2.1.4-2.9 1.2c-.8.8-1.2 1.8-1.2 3.1s.4 2.3 1.2 3.1zM291.5 99.1v-2.6h2v-8c0-.4-.2-.6-.6-.6h-1.5v-2.6h3.6c1.2 0 1.8.6 1.8 1.7v.8l-.1.9h.1c.6-2.1 2.3-3.5 4.4-3.5l.6.1v3.4c-.2 0-.5-.1-.8-.1-1.3 0-2.3.5-3 1.5-.7 1-1 2.2-1 3.6v3h2v2.6h-7.5zM311.6 91.8c.6-.3 1.2-.6 2-.8 1.5-.4 2.6-.4 3.7-.4h.9v-.5c0-1.6-.8-2.4-2.5-2.4-1.2 0-2.7.5-3.4 1l-.5.4-1.3-2.4c.2-.1.4-.3.7-.5.3-.2.9-.5 1.9-.8.9-.3 1.9-.5 2.9-.5 3.7 0 5.7 1.9 5.7 5.4v5.5c0 .4.2.6.6.6h1.2V99h-3.2c-1.2 0-1.8-.6-1.8-1.5v-.2l.1-.7h-.1c-.1.1-.1.3-.6.9-.6.8-1.8 1.7-3.7 1.7-1.3 0-2.3-.4-3.2-1.1-.9-.7-1.3-1.8-1.3-3.1-.2-1.4.8-2.6 1.9-3.2zm3.4 5.1c.9 0 1.6-.4 2.2-1.2.6-.8.9-1.6.9-2.6v-.5h-.6c-.9 0-1.7.1-2.8.4-1.1.2-1.8.9-1.8 1.9.1 1.1.8 2 2.1 2zM325.1 99.1v-2.6h2v-8c0-.4-.2-.6-.6-.6H325v-2.6h3.6c1.2 0 1.8.5 1.8 1.5v.6l-.1.6h.1c.1-.4.5-.9 1.3-1.7.8-.8 2.2-1.4 3.8-1.4 3.1 0 4.6 1.8 4.6 5.2v6.3h2V99h-5.4v-8.2c0-1.8-.6-2.8-2.2-2.8-1.2 0-2.1.5-2.9 1.4-.7.9-1.1 2.1-1.1 3.3v3.6h2v2.6h-7.4zM344.7 87c1.2-1.3 2.7-2 4.6-2 2.3 0 3.5 1.2 3.9 1.7l.1.2h.1c0-.3-.1-.6-.1-1v-3.5h-2.1v-2.6h5.5v16c0 .4.2.6.6.6h1.2V99h-3.2c-1.2 0-1.8-.6-1.8-1.5v-.2l.1-.6h-.1c-.1.1-.1.3-.6.9-.6.7-1.8 1.7-3.9 1.7-1.8 0-3.3-.7-4.4-2-1.1-1.3-1.6-3.1-1.6-5.2s.6-3.8 1.7-5.1zm5.1 9.5c2 0 3.5-1.5 3.5-4.2 0-1.2-.3-2.2-.9-3.1-.6-.8-1.4-1.3-2.5-1.3-2 0-3.5 1.6-3.5 4.3 0 2.6 1.4 4.3 3.4 4.3zM367.2 99.1v-2.6h2.3V82.6h-2.3v-2.7h14.2v4.9h-3v-2.1H373V88h6.3v2.8H373v5.4h5.8V94h3v5h-14.6zM384.2 99.1v-2.6h2v-8.1c0-.4-.2-.6-.6-.6h-1.5v-2.6h3.6c1.2 0 1.8.5 1.8 1.5v.6l-.1.6h.1c.8-1.6 2.6-3.1 4.7-3.1s3.3 1 3.8 3h.1c.8-1.7 2.7-3 4.8-3 2.9 0 4.4 1.8 4.4 5.2v6.3h2v2.6h-5.4v-8.2c0-1.8-.4-2.8-1.9-2.8-1.1 0-2 .5-2.6 1.4-.6.9-.9 2.1-.9 3.5v3.5h2v2.6H395v-8.2c0-1.8-.4-2.8-1.9-2.8-1.1 0-2 .5-2.6 1.5-.6 1-.9 2.2-.9 3.5v3.3h2v2.6h-7.4zM410.7 101.9h2V88.5c0-.4-.2-.6-.6-.6h-1.5v-2.6h3.5c1.1 0 1.7.4 1.7 1.3v.7h.1c.1-.1.1-.3.6-.8.6-.7 1.8-1.5 3.8-1.5 1.9 0 3.3.7 4.4 2 1.1 1.3 1.7 3.1 1.7 5.2 0 2.2-.6 3.9-1.8 5.2-1.2 1.3-2.7 2-4.5 2-1.6 0-3.1-.8-3.6-1.5l-.4-.5h-.1c.1.3.1.7.1 1.2v3.3h2v2.6h-7.4v-2.6zm6.2-6.6c.6.8 1.5 1.2 2.5 1.2 2 0 3.5-1.6 3.5-4.3 0-2.6-1.4-4.3-3.4-4.3-1.9 0-3.5 1.5-3.5 4.3 0 1.3.3 2.3.9 3.1zM429.2 82.5H427v-2.6h5.5v14.6c0 1.3.3 1.9 1.4 1.9h.6v2.8c-.4.1-.8.1-1.2.1-1.3 0-2.3-.3-3.1-.9-.8-.6-1.1-1.8-1.1-3.5V82.5zM438.4 97.4c-1.5-1.4-2.2-3.1-2.2-5.2s.7-3.8 2.2-5.2c1.5-1.4 3.2-2.1 5.4-2.1 2.1 0 3.9.7 5.4 2.1 1.5 1.3 2.2 3.1 2.2 5.2s-.7 3.8-2.2 5.2c-1.5 1.3-3.2 2-5.4 2-2.1 0-3.9-.7-5.4-2zm2.5-2.1c.8.8 1.8 1.2 2.9 1.2 1.1 0 2.1-.4 2.9-1.2.8-.8 1.2-1.8 1.2-3.1 0-1.2-.4-2.3-1.2-3.1-.8-.8-1.8-1.2-2.9-1.2-1.1 0-2.1.4-2.9 1.2-.8.8-1.2 1.8-1.2 3.1s.4 2.3 1.2 3.1zM453.9 101.3c.5.4 1.2.6 2.1.6 1.2 0 2-.5 2.4-1.6l.4-.9-4.7-11.6h-1.6v-2.6h6.8v2.6h-1.6l2.5 7c.1.4.3 1 .3 1.2v.2h.1c.1-.5.2-1 .4-1.4l2.5-7h-1.6v-2.6h6.5v2.6h-1.6l-5.1 13c-1 2.6-2.8 3.9-5.5 3.9-1.2 0-2.4-.4-3-.7l-.4-.2 1.1-2.5zM470.2 99.1v-2.6h2v-8.1c0-.4-.2-.6-.6-.6h-1.5v-2.6h3.6c1.2 0 1.8.5 1.8 1.5v.6l-.1.6h.1c.8-1.6 2.6-3.1 4.7-3.1s3.3 1 3.8 3h.1c.8-1.7 2.7-3 4.8-3 2.9 0 4.4 1.8 4.4 5.2v6.3h2v2.6h-5.4v-8.2c0-1.8-.4-2.8-1.9-2.8-1.1 0-2 .5-2.6 1.4-.6.9-.9 2.1-.9 3.5v3.5h2v2.6H481v-8.2c0-1.8-.4-2.8-1.9-2.8-1.1 0-2 .5-2.6 1.5-.6 1-.9 2.2-.9 3.5v3.3h2v2.6h-7.4zM498.6 87c1.3-1.3 3-2 5-2 1.9 0 3.4.6 4.5 1.9 1.1 1.2 1.6 2.8 1.6 4.7l-.1 1.2h-9.5c.2 2.5 1.9 3.8 4.1 3.8 1.3 0 2.8-.6 3.5-1.1l.5-.4 1.3 2.4-.7.5c-.3.2-.9.5-1.9.9-.9.4-1.9.5-3 .5-2.2 0-4-.7-5.4-2.1-1.3-1.4-2-3.1-2-5.1.2-2.1.8-3.9 2.1-5.2zm7.7 3.7c0-1.8-1.2-3-2.7-3-1.7 0-3 1.2-3.3 3h6zM511.9 99.1v-2.6h2v-8c0-.4-.2-.6-.6-.6h-1.5v-2.6h3.6c1.2 0 1.8.5 1.8 1.5v.6l-.1.6h.1c.1-.4.5-.9 1.3-1.7.8-.8 2.2-1.4 3.8-1.4 3.1 0 4.6 1.8 4.6 5.2v6.3h2V99h-5.4v-8.2c0-1.8-.6-2.8-2.2-2.8-1.2 0-2.1.5-2.9 1.4-.7.9-1.1 2.1-1.1 3.3v3.6h2v2.6h-7.4zM532 87.9h-2.1v-2.6h2.2v-3.8h3.3v3.8h3.1v2.6h-3.1v5.8c0 2.3 1.8 2.7 2.8 2.7h.6v2.8c-.3.1-.6.1-1.1.1-.9 0-1.8-.1-2.9-.5-1.5-.6-2.9-1.9-2.9-4.7v-6.2z"/></g><path class="st5" d="M208.3.1h1.3v99h-1.3z"/></g></svg>