<svg xmlns="http://www.w3.org/2000/svg" width="596.4" height="99" viewBox="0 0 596.4 99"><style>.st0{fill:#00953a}.st1{fill:#fff}.st2{fill:#5c6670}.st3{fill:#4e5758}.st4{fill:#f6323e}.st5{fill:#101e8e}</style><g id="width_guide"><path class="st0" d="M4.5 99c-4 0-5.6-2.8-3.6-6.3l52-90.1c2-3.5 5.3-3.5 7.3 0l52 90.1c2 3.5.4 6.3-3.6 6.3H4.5z"/><path class="st1" d="M39.6 36.9c-.5.9-.2 1.2.7.7l6.1-3.1c.9-.5 2-.1 2.4.8l4.1 8.9c.4.9 1.2.9 1.7.1l7.3-11.9c.5-.8 1.6-1 2.3-.4l11.5 9.9c.8.6 1 .5.5-.4L57.4 8.8c-.5-.9-1.3-.9-1.8 0l-16 28.1zM54.2 63.3l.2-.2c0-.1-.1-.3-.1-.3-2.8-3.7-7.3-6-12.3-6-8.6 0-15.5 7-15.5 15.5s7 15.5 15.5 15.5c4.7 0 8.9-2.1 11.7-5.4l.1-.1c.4-.5-.1-.8-.1-.8l-5.8-3.3s-.5-.3-.9.1l-.1.1c-1.3 1.1-3 1.7-4.9 1.7-4.3 0-7.8-3.5-7.8-7.8s3.5-7.8 7.8-7.8c2.1 0 4 .8 5.4 2.2.4.3.7.1.7.1l6.1-3.5M71.8 64.5c4.3 0 7.8 3.5 7.8 7.8s-3.5 7.8-7.8 7.8-7.8-3.5-7.8-7.8c.1-4.4 3.6-7.8 7.8-7.8m0 23.2c8.6 0 15.5-7 15.5-15.5 0-8.6-7-15.5-15.5-15.5-8.6 0-15.5 7-15.5 15.5 0 8.6 7 15.5 15.5 15.5"/><path class="st0" d="M117.7 94.9h-1.1c-.1 0-.1-.1-.1-.1v-.6c0-.1.1-.1.1-.1h3c.1 0 .1.1.1.1v.6c0 .1-.1.1-.1.1h-1.1v3.9c0 .1-.1.1-.1.1h-.6c-.1 0-.1-.1-.1-.1v-3.9zM121.7 94.1c0-.1 0-.1.1-.1h.1c.1 0 .1 0 .1.1l1.5 3.3 1.5-3.3.1-.1h.1c.1 0 .1 0 .1.1l.8 4.7c0 .1 0 .2-.1.2h-.6c-.1 0-.1-.1-.1-.1l-.4-2.6-1.2 2.7-.1.1h-.1c-.1 0-.1 0-.1-.1l-1.2-2.7-.4 2.6-.1.1h-.7c-.1 0-.1-.1-.1-.2l.8-4.7z"/><g><path class="st2" d="M240 20.4c1.9 0 3.9.7 5.4 2 .3.3.7.3 1 0l3.1-3.2c.3-.3.3-.8 0-1.1-2.7-2.5-5.6-3.7-9.6-3.7-8 0-14.4 6.4-14.4 14.4s6.4 14.3 14.4 14.3c3.5 0 7-1.2 9.7-3.9.3-.3.3-.8 0-1.1l-3.1-3.3c-.2-.3-.8-.3-1 0-1.4 1.2-3.5 1.9-5.3 1.9-4.5 0-7.8-3.7-7.8-8.1-.2-4.5 3.1-8.2 7.6-8.2M275.2 14.4c-8 0-14.3 6.4-14.3 14.4s6.3 14.3 14.3 14.3 14.3-6.3 14.3-14.3-6.4-14.4-14.3-14.4m0 22.3c-4.3 0-7.9-3.6-7.9-7.9 0-4.4 3.6-8 7.9-8 4.4 0 8 3.6 8 8-.1 4.3-3.6 7.9-8 7.9M318.6 36.8H309V15.6c0-.4-.4-.8-.8-.8h-4.7c-.4 0-.8.4-.8.8v26.3c0 .4.3.8.8.8h15.1c.4 0 .8-.4.8-.8v-4.3c0-.5-.4-.8-.8-.8M344.6 14.4c-8 0-14.3 6.4-14.3 14.4s6.3 14.3 14.3 14.3 14.3-6.3 14.3-14.3-6.4-14.4-14.3-14.4m0 22.3c-4.3 0-7.9-3.6-7.9-7.9 0-4.4 3.6-8 7.9-8 4.4 0 8 3.6 8 8-.1 4.3-3.6 7.9-8 7.9M388.4 31.4c3.5-1.4 5.9-4.3 5.9-8 0-4.7-3.9-8.6-8.7-8.6h-11.9c-.4 0-.8.4-.8.8v26.3c0 .4.3.8.8.8h4.7c.4 0 .8-.4.8-.8V31.7h2.7l5.7 10.5c.1.2.3.4.6.4h5.3c.7 0 1-.6.7-1.1l-5.8-10.1zm-3.3-4.7h-5.9v-6.2h5.9c1.6 0 3 1.4 3 3 0 1.7-1.4 3.2-3 3.2M458.5 14.8h-9.7c-.4 0-.7.4-.7.8v26.3c0 .4.3.8.7.8h9.7c7.7 0 14-6.2 14-14-.1-7.7-6.4-13.9-14-13.9m-.4 21.9h-3.8V20.6h3.8c4.5 0 7.8 3.5 7.8 8-.1 4.6-3.4 8.1-7.8 8.1M499.1 14.4c-8 0-14.3 6.4-14.3 14.4s6.3 14.3 14.3 14.3c7.9 0 14.3-6.3 14.3-14.3.1-8-6.3-14.4-14.3-14.4m0 22.3c-4.3 0-7.9-3.6-7.9-7.9 0-4.4 3.6-8 7.9-8 4.4 0 7.9 3.6 7.9 8 .1 4.3-3.5 7.9-7.9 7.9M421.8 14.8c-.1-.2-.4-.4-.7-.4h-.4c-.3 0-.6.2-.7.4l-12.4 26.8c-.2.5.1 1 .7 1h4.4c.8 0 1.2-.2 1.4-1l1.4-3.2h10.8l1.4 3.1c.4.9.6 1 1.4 1h4.4c.6 0 .9-.5.7-1l-12.4-26.7zm-4.6 19l3.6-8.3 3.7 8.3h-7.3z"/></g><g><path class="st2" d="M225.5 84.8v-2.6h2.3V68.3h-2.3v-2.7h8.3c1.6 0 3 .2 4 .5 3.8 1.1 6.2 4.5 6.2 9.1 0 4.5-2.2 7.8-5.9 9-1.1.4-2.5.6-4.2.6h-8.4zm5.8-2.8h2.3c1.3 0 2.3-.2 3.1-.5 2.2-.9 3.6-3.2 3.6-6.3 0-3.2-1.4-5.4-3.7-6.3-.7-.3-1.7-.4-3-.4h-2.3V82zM247.8 72.7c1.3-1.3 3-2 5-2 1.9 0 3.4.6 4.5 1.9 1.1 1.2 1.6 2.8 1.6 4.7l-.1 1.2h-9.5c.2 2.5 1.9 3.8 4.1 3.8 1.3 0 2.8-.6 3.5-1.1l.5-.4 1.3 2.4-.7.5c-.3.2-.9.5-1.9.9-.9.4-1.9.5-3 .5-2.2 0-4-.7-5.4-2.1-1.3-1.4-2-3.1-2-5.1.2-2.1.8-3.8 2.1-5.2zm7.7 3.7c0-1.8-1.2-3-2.7-3-1.7 0-3 1.2-3.3 3h6zM260.6 87.6h2V74.2c0-.4-.2-.6-.6-.6h-1.5V71h3.5c1.1 0 1.7.4 1.7 1.3v.7h.1c.1-.1.1-.3.6-.8.6-.7 1.8-1.5 3.8-1.5 1.9 0 3.3.7 4.4 2 1.1 1.3 1.7 3.1 1.7 5.2 0 2.2-.6 3.9-1.8 5.2-1.2 1.3-2.7 2-4.5 2-1.6 0-3.1-.8-3.6-1.5l-.4-.5c.1.3.1.7.1 1.2v3.3h2v2.6h-7.4v-2.6zm6.3-6.6c.6.8 1.5 1.2 2.5 1.2 2 0 3.5-1.6 3.5-4.3 0-2.6-1.4-4.3-3.4-4.3-1.9 0-3.5 1.5-3.5 4.3 0 1.3.3 2.3.9 3.1zM279.8 77.5c.6-.3 1.2-.6 2-.8 1.5-.4 2.6-.4 3.7-.4h.9v-.5c0-1.6-.8-2.4-2.5-2.4-1.2 0-2.7.5-3.4 1l-.5.4-1.3-2.4c.2-.1.4-.3.7-.5.3-.2.9-.5 1.9-.8.9-.3 1.9-.5 2.9-.5 3.7 0 5.7 1.9 5.7 5.4v5.5c0 .4.2.6.6.6h1.2v2.6h-3.2c-1.2 0-1.8-.6-1.8-1.5V83l.1-.7h-.1c-.1.1-.1.3-.6.9-.6.8-1.8 1.7-3.7 1.7-1.3 0-2.3-.4-3.2-1.1-.9-.7-1.3-1.8-1.3-3.1-.1-1.4.8-2.6 1.9-3.2zm3.4 5.1c.9 0 1.6-.4 2.2-1.2.6-.8.9-1.6.9-2.6v-.5h-.6c-.9 0-1.7.1-2.8.4-1.1.2-1.8.9-1.8 1.9.1 1.2.9 2 2.1 2zM293.2 84.8v-2.6h2v-8c0-.4-.2-.6-.6-.6h-1.5V71h3.6c1.2 0 1.8.6 1.8 1.7v.8l-.1.9h.1c.6-2.1 2.3-3.5 4.4-3.5l.6.1v3.4c-.2 0-.5-.1-.8-.1-1.3 0-2.3.5-3 1.5-.7 1-1 2.2-1 3.6v3h2V85h-7.5zM306.4 73.6h-2.1V71h2.2v-3.8h3.3V71h3.1v2.6h-3.1v5.8c0 2.3 1.8 2.7 2.8 2.7h.6v2.8c-.3.1-.6.1-1.1.1-.9 0-1.8-.1-2.9-.5-1.5-.6-2.9-1.9-2.9-4.7v-6.2zM315 84.8v-2.6h2v-8.1c0-.4-.2-.6-.6-.6h-1.5V71h3.6c1.2 0 1.8.5 1.8 1.5v.6l-.1.6h.1c.8-1.6 2.6-3.1 4.7-3.1s3.3 1 3.8 3h.1c.8-1.7 2.7-3 4.8-3 2.9 0 4.4 1.8 4.4 5.2v6.3h2v2.6h-5.4v-8.2c0-1.8-.4-2.8-1.9-2.8-1.1 0-2 .5-2.6 1.4-.6.9-.9 2.1-.9 3.5v3.5h2v2.6h-5.4v-8.2c0-1.8-.4-2.8-1.9-2.8-1.1 0-2 .5-2.6 1.5-.6 1-.9 2.2-.9 3.5V82h2v2.6H315zM343.3 72.7c1.3-1.3 3-2 5-2 1.9 0 3.4.6 4.5 1.9 1.1 1.2 1.6 2.8 1.6 4.7l-.1 1.2h-9.5c.2 2.5 1.9 3.8 4.1 3.8 1.3 0 2.8-.6 3.5-1.1l.5-.4 1.3 2.4-.7.5c-.3.2-.9.5-1.9.9-.9.4-1.9.5-3 .5-2.2 0-4-.7-5.4-2.1-1.3-1.4-2-3.1-2-5.1.1-2.1.8-3.8 2.1-5.2zm7.6 3.7c0-1.8-1.2-3-2.7-3-1.7 0-3 1.2-3.3 3h6zM356.4 84.8v-2.6h2v-8c0-.4-.2-.6-.6-.6h-1.5V71h3.6c1.2 0 1.8.5 1.8 1.5v.6l-.1.6h.1c.1-.4.5-.9 1.3-1.7.8-.8 2.2-1.4 3.8-1.4 3.1 0 4.6 1.8 4.6 5.2v6.3h2v2.6H368v-8.2c0-1.8-.6-2.8-2.2-2.8-1.2 0-2.1.5-2.9 1.4-.7.9-1.1 2.1-1.1 3.3V82h2v2.6h-7.4zM376.4 73.6h-2.1V71h2.2v-3.8h3.3V71h3.1v2.6h-3.1v5.8c0 2.3 1.8 2.7 2.8 2.7h.6v2.8c-.3.1-.6.1-1.1.1-.9 0-1.8-.1-2.9-.5-1.5-.6-2.9-1.9-2.9-4.7v-6.2zM393.3 83.1c-1.5-1.4-2.2-3.1-2.2-5.2s.7-3.8 2.2-5.2c1.5-1.4 3.2-2.1 5.4-2.1 2.1 0 3.9.7 5.4 2.1 1.5 1.3 2.2 3.1 2.2 5.2s-.7 3.8-2.2 5.2c-1.5 1.3-3.2 2-5.4 2-2.1 0-3.9-.6-5.4-2zm2.5-2.1c.8.8 1.8 1.2 2.9 1.2 1.1 0 2.1-.4 2.9-1.2.8-.8 1.2-1.8 1.2-3.1 0-1.2-.4-2.3-1.2-3.1-.8-.8-1.8-1.2-2.9-1.2-1.1 0-2.1.4-2.9 1.2-.8.8-1.2 1.8-1.2 3.1s.4 2.3 1.2 3.1zM408.2 84.8v-2.6h2v-8.6h-2.1V71h2.1v-.6c0-1.7.6-3 1.3-3.7.4-.4.9-.6 1.4-.8 1.1-.4 1.8-.5 2.7-.5l1.4.1v2.8c-.2-.1-.6-.1-1.1-.1-1.5 0-2.3.7-2.3 2.2v.6h3.1v2.6h-3.1v8.6h2.3v2.6h-7.7zM425.1 84.8v-2.6h2.3V68.3h-2.3v-2.7h9.2c1.4 0 2.5.2 3.2.5 2.1.9 3.4 3 3.4 5.7s-1.5 5-3.6 5.8c-.8.2-1.7.4-2.9.4H431v4.2h2.3v2.6h-8.2zm5.8-9.6h3c.8 0 1.4-.1 1.9-.4 1.1-.5 1.6-1.5 1.6-3 0-1.4-.5-2.3-1.4-2.9-.5-.3-1.2-.5-2.1-.5h-3v6.8zM444.1 73.6H442V71h5.6v8.3c0 1.8.5 2.8 2.2 2.8 1.1 0 2.1-.5 2.8-1.5.7-1 1.1-2.1 1.1-3.5v-3.6h-2.1V71h5.5v10.6c0 .4.2.6.6.6h1.3v2.5h-3.4c-1.2 0-1.8-.5-1.8-1.5v-1.1h-.1c-.1.4-.5.9-1.3 1.7-.8.8-2.2 1.3-3.8 1.3-3 0-4.5-1.8-4.5-5.2v-6.3zM461.5 84.8V68.2h-2.1v-2.6h5.5v6l-.1 1.2h.1c.1-.1.1-.2.6-.7.6-.6 1.8-1.3 3.5-1.3 1.9 0 3.3.7 4.5 2 1.1 1.3 1.7 3.1 1.7 5.2 0 2.2-.6 3.9-1.8 5.2-1.2 1.3-2.7 2-4.6 2-2.3 0-3.6-1.4-4-1.9l-.1-.2h-.1c0 .3.1.7.1 1v.8h-3.2zm4.2-3.8c.6.8 1.4 1.2 2.5 1.2 2 0 3.5-1.6 3.5-4.3 0-2.6-1.4-4.3-3.4-4.3-1.9 0-3.5 1.5-3.5 4.3 0 1.3.3 2.3.9 3.1zM477.9 68.2h-2.1v-2.6h5.5v14.6c0 1.3.3 1.9 1.4 1.9h.6v2.8c-.4.1-.8.1-1.2.1-1.3 0-2.3-.3-3.1-.9-.8-.6-1.1-1.8-1.1-3.5V68.2zM485.2 84.8v-2.6h2v-8.6H485V71h5.6v11.2h2v2.6h-7.4zm1.9-16.1v-3.1h3.5v3.1h-3.5zM496.1 72.8c1.4-1.4 3.2-2.1 5.3-2.1.8 0 1.7.1 2.5.3.8.2 1.5.6 2.2 1.1.6.5 1 1.2 1 1.9v1.9h-3V75c0-.9-1.3-1.3-2.6-1.3-2.5 0-4 1.7-4 4.2 0 1.4.4 2.4 1.2 3.2.8.8 1.9 1.2 3.1 1.2 1.4 0 2.9-.6 4.3-1.7l1.2 2.4c-1.2 1.1-3.3 2.1-5.7 2.1-2.1 0-3.9-.6-5.4-2-1.5-1.3-2.2-3-2.2-5.2 0-2 .7-3.7 2.1-5.1zM515.7 78.6h3.2V80c0 1.2 1.5 2 3.4 2 2 0 3.3-.9 3.3-2.4 0-.8-.4-1.5-1.1-1.9-.4-.3-.6-.4-1.2-.6l-.6-.3-1.5-.6c-1.5-.6-2.4-1-3.5-1.8-1.1-.9-1.6-2.1-1.6-3.7 0-1.8.6-3.1 1.8-4 1.2-.9 2.8-1.3 4.6-1.3 1.6 0 3.1.3 4.3.9 1.2.6 1.8 1.4 1.8 2.5v2.5h-3.2V70c0-.9-1.3-1.5-2.9-1.5-1.6 0-2.9.7-2.9 2.1 0 .7.4 1.3.7 1.6.2.2.5.4.9.6l1 .5 1.2.5c.9.3 1.6.6 2.1.9.5.2 1.1.6 1.8 1 1.3.9 1.8 2.1 1.8 3.9 0 1.9-.7 3.3-2 4.3s-3 1.5-4.9 1.5c-1.8 0-3.3-.4-4.6-1.1-1.3-.8-2-1.8-2-3.2v-2.5zM533 77.5c.6-.3 1.2-.6 2-.8 1.5-.4 2.6-.4 3.7-.4h.9v-.5c0-1.6-.8-2.4-2.5-2.4-1.2 0-2.7.5-3.4 1l-.5.4-1.3-2.4c.2-.1.4-.3.7-.5.3-.2.9-.5 1.9-.8.9-.3 1.9-.5 2.9-.5 3.7 0 5.7 1.9 5.7 5.4v5.5c0 .4.2.6.6.6h1.2v2.6h-3.2c-1.2 0-1.8-.6-1.8-1.5V83l.1-.7h-.1c-.1.1-.1.3-.6.9-.6.8-1.8 1.7-3.7 1.7-1.3 0-2.3-.4-3.2-1.1-.9-.7-1.3-1.8-1.3-3.1-.2-1.4.8-2.6 1.9-3.2zm3.4 5.1c.9 0 1.6-.4 2.2-1.2.6-.8.9-1.6.9-2.6v-.5h-.5c-.9 0-1.7.1-2.8.4-1.1.2-1.8.9-1.8 1.9 0 1.2.8 2 2 2zM546.4 84.8v-2.6h2v-8.6h-2.1V71h2.1v-.6c0-1.7.6-3 1.3-3.7.4-.4.9-.6 1.4-.8 1.1-.4 1.8-.5 2.7-.5l1.4.1v2.8c-.2-.1-.6-.1-1.1-.1-1.5 0-2.3.7-2.3 2.2v.6h3.1v2.6h-3.1v8.6h2.3v2.6h-7.7zM558.3 72.7c1.3-1.3 3-2 5-2 1.9 0 3.4.6 4.5 1.9 1.1 1.2 1.6 2.8 1.6 4.7l-.1 1.2h-9.5c.2 2.5 1.9 3.8 4.1 3.8 1.3 0 2.8-.6 3.5-1.1l.5-.4 1.3 2.4-.7.5c-.3.2-.9.5-1.9.9-.9.4-1.9.5-3 .5-2.2 0-4-.7-5.4-2.1-1.3-1.4-2-3.1-2-5.1.2-2.1.8-3.8 2.1-5.2zm7.7 3.7c0-1.8-1.2-3-2.7-3-1.7 0-3 1.2-3.3 3h6zM572.9 73.6h-2.1V71h2.2v-3.8h3.3V71h3.1v2.6h-3.1v5.8c0 2.3 1.8 2.7 2.8 2.7h.6v2.8c-.3.1-.6.1-1.1.1-.9 0-1.8-.1-2.9-.5-1.5-.6-2.9-1.9-2.9-4.7v-6.2zM582 87c.5.4 1.2.6 2.1.6 1.2 0 2-.5 2.4-1.6l.4-.9-4.7-11.6h-1.6V71h6.8v2.6h-1.6l2.5 7c.1.4.3 1 .3 1.2v.2h.1c.1-.5.2-1 .4-1.4l2.5-7H590V71h6.5v2.6h-1.6l-5.1 13c-1 2.6-2.8 3.9-5.5 3.9-1.2 0-2.4-.4-3-.7l-.4-.2L582 87z"/></g><path class="st2" d="M208.3 0h1.3v99h-1.3z"/><g><path class="st3" d="M187.6 0c4 0 5.6 2.8 3.6 6.2l-51.8 89.7c-2 3.4-5.2 3.4-7.2 0L80.4 6.2C78.4 2.8 80.1 0 84 0h103.6"/><path class="st1" d="M123.4 71.7l2.9 5.1 24-8.6 4.4-7.8zM127.5 78.9l2.9 4.9 13.7-4.9 4.3-7.5zM131.6 85.9l1.8 3.1c1.3 2.3 3.5 2.3 4.8 0l4-7-10.6 3.9z"/><path class="st4" d="M122.2 69.6l11.3-4.1-17.2-6.1z"/><path class="st5" d="M173 29.3l-16.3 28.3-19.6 7.1-22.8-8.1-15.7-27.3c-1.3-2.3-.2-4.2 2.4-4.2h69.6c2.6 0 3.7 1.9 2.4 4.2"/><path class="st1" d="M114.5 5.5c2.1 0 3.6.6 5 1.9.2.2.2.4 0 .6l-1.6 1.7c-.1.1-.4.1-.5 0-.8-.7-1.8-1.1-2.8-1.1-2.3 0-4 1.9-4 4.2 0 2.3 1.7 4.2 4.1 4.2 1 0 2-.4 2.8-1 .1-.1.4-.1.5 0l1.6 1.7c.1.1.1.4 0 .6-1.4 1.4-3.2 2-5 2-4.1 0-7.4-3.3-7.4-7.4-.2-4.1 3.1-7.4 7.3-7.4M124.6 6.1c0-.2.2-.4.4-.4h5c4 0 7.2 3.2 7.2 7.2s-3.3 7.2-7.2 7.2h-5c-.2 0-.4-.2-.4-.4V6.1zm5.2 11c2.3 0 4-1.8 4-4.2 0-2.3-1.7-4.2-4-4.2h-2v8.4h2zM142.5 6.1c0-.2.2-.4.4-.4h5c2.5 0 4.6 2.1 4.6 4.6 0 2.6-2.1 4.6-4.6 4.6h-2.2v4.8c0 .2-.2.4-.4.4h-2.4c-.2 0-.4-.2-.4-.4V6.1zm5.1 5.8c.9 0 1.6-.7 1.6-1.6 0-.9-.7-1.5-1.6-1.5h-2V12h2zM156.5 18.2l1-1.7c.2-.3.6-.2.7-.1.1 0 1.6 1.1 2.9 1.1.8 0 1.4-.5 1.4-1.2 0-.9-.7-1.5-2.1-2.1-1.8-.7-4-2.1-4-4.6 0-2 1.6-4.1 4.8-4.1 2.1 0 3.8 1.1 4.4 1.5.2.1.2.5.1.7l-1.1 1.6c-.1.2-.5.4-.7.3-.2-.1-1.7-1.2-2.9-1.2-.7 0-1.3.5-1.3 1.1 0 .8.6 1.3 2.2 2 1.6.6 4.2 1.9 4.2 4.7 0 2.1-1.8 4.3-4.9 4.3-2.7 0-4.2-1.1-4.6-1.6-.2-.4-.3-.5-.1-.7M127.7 47.4c.2-.1.4 0 .6 0 .7.1 1.4.4 2 .7.6.3 1.2.7 1.8 1 .3.1.6.2 1 .3.3 0 .7.1 1 .1.7 0 1.3 0 2-.2l.9-.3c.1-.1.3-.2.4-.3l.2-.1.1-.1.3-.3c.1-.1.1-.3.2-.4l.3-.9c.1-.5.1-1.1 0-1.7-2.4-.2-4.8-.3-7.2-.5-.6 0-1.2-.2-1.8-.1-.3 0-.6.1-.8.2-.1.1-.2.2-.2.3 0 .1-.2.3-.2.2-.1 0 0 0-.2.1h-.1c-.6.1-1.1.5-1.3 1.1-.2.6-.3 1.2-.3 1.8l.9-.6c0-.2.2-.2.4-.3z"/><path class="st1" d="M160.8 38.9c-1.5.8-3.9.3-3.9.3s2.1-.4 3.1-.8 2.2-2.1 2.4-3c-.1-.8-.1-1.6-.3-2.3-.6.9-1.8 2.3-2.6 3.1-1.2 1.1-2.7 1.1-2.7 1.1s1.3-.8 2-1.4c.7-.6 1.9-2.4 2.2-4.3.2-1.2-.6-2.7-1.2-3.5-.5-.6-.9-.8-.9-.8s1.1 5.2-2.9 7.6c-4 2.5-6 2.2-9.1 3.8-1.6.8-5 3.8-7.7 6.4 0 .6 0 1.1-.1 1.7-.1.4-.2.7-.3 1.1-.1.2-.2.3-.3.5l-.4.4-.1.1h-.1l-.2.1c-.2.1-.3.2-.5.3-.4.1-.7.3-1.1.4-.4.1-.7.2-1.1.2-.4.1-.7 0-1.1 0-.4 0-.7-.1-1.1-.2-.4-.1-.7-.2-1-.4-.7-.4-1.2-.7-1.8-1.1l-.9-.5c-.3-.1-.6-.3-1-.4-.2 0-.3-.1-.5 0s-.3.1-.5.2c-.3.1-.6.3-.9.4-.1-.6-.1-1.3.2-1.9.2-.6.7-1.2 1.4-1.3h.1.1c.1 0 0-.1.1-.1.1-.1.2-.3.3-.4.3-.2.7-.3 1-.3.7-.1 1.3 0 1.9 0-1.9-2-4-3.9-5.2-4.5-3.1-1.6-6.7-2-10.8-4.5-4-2.5-2.9-7.6-2.9-7.6s-.4.2-.9.8c-.6.9-1.3 2.3-1.2 3.5.3 1.8 1.5 3.7 2.2 4.3.7.6 2 1.4 2 1.4s-1.5 0-2.7-1.1c-.9-.8-2-2.2-2.6-3.1-.1.7-.2 1.4-.3 2.3.2.9 1.4 2.6 2.4 3 1 .4 3.1.8 3.1.8s-2.4.4-3.9-.3c-.6-.3-1.1-.8-1.6-1.2 0 .5 0 1 .1 1.5.2 1.2 1.5 1.8 2.4 2.3.9.4 2.9-.3 2.9-.3s-.8.9-2.4 1.1c-.7.1-1.4-.1-2-.3 1.4 2.8 3 3.8 5.2 4 0 0 6.3 5.3 9.7 6.6 1.6.6 3.8.9 5.8 1.2-.1.2-.2.5-.3.7-.5 1.4-2.3 3.6-2.3 3.6s4.1 2.2 6.2 2.6c.3.1.5.1.8.1 0 0 .1.1.6.1s.6 0 .6-.1c.2 0 .5-.1.8-.1 2.1-.4 6.2-2.6 6.2-2.6s-1.8-2.2-2.3-3.6c-.1-.2-.2-.5-.3-.7 2.1-.3 4.2-.6 5.8-1.2 3.4-1.2 9.7-6.6 9.7-6.6 2.2-.2 3.9-1.2 5.2-4-.6.2-1.4.4-2 .3-1.5-.2-2.4-1.1-2.4-1.1s1.9.7 2.9.3c.9-.4 2.2-1.1 2.4-2.3.1-.5.1-1 .1-1.5-.3.5-.8.9-1.5 1.2zm-31.6 14c-.2-.1-.6-.2-.9-.4-.3-.2-.7-.4-1-.8-.7-.6-1.4-1.4-2.1-2.4-.7-.9-1.3-2-1.9-3.1-.6-1.1-1.1-2.2-1.5-3.3-.1-.2-.2-.5-.3-.7-.1-.2-.3-.3-.5-.4-.4-.2-.9-.3-1.3-.4-.9-.1-1.6-.2-2.2-.2h-.8s.3-.1.8-.1c.5-.1 1.3-.2 2.2-.1.5 0 1 .1 1.5.3.3.1.6.3.8.6.2.3.3.5.4.8.5 1 1 2.1 1.6 3.2.5 1.1 1.1 2.1 1.8 3.1.6.9 1.2 1.8 1.9 2.4.6.7 1.2 1.1 1.7 1.4.5.2.8.3.8.3s-.4-.1-1-.2zm25-11.4c-.5 0-1.3 0-2.2.2-.4.1-.9.2-1.3.4-.2.1-.4.2-.5.4-.1.2-.2.5-.3.7-.5 1-1 2.2-1.5 3.3-.6 1.1-1.2 2.1-1.9 3.1-.7.9-1.4 1.8-2.1 2.4-.3.3-.7.5-1 .8-.3.2-.6.3-.9.4-.5.1-.8.2-.8.2s.3-.1.8-.3c.5-.3 1.1-.7 1.7-1.4.6-.6 1.2-1.5 1.9-2.4.6-.9 1.2-2 1.8-3.1.5-.9.9-1.7 1.6-3.2.1-.3.2-.5.4-.8.2-.3.5-.5.8-.6.5-.2 1.1-.3 1.5-.3.9-.1 1.7 0 2.2.1.5.1.8.1.8.1h-1z"/></g></g></svg>