<svg xmlns="http://www.w3.org/2000/svg" width="575.6" height="99" viewBox="0 0 575.6 99"><style>.st0{fill:#4e5758}.st1{fill:#fff}.st2{fill:#00b44f}.st3{fill:#407cca}.st4{fill:#00953a}.st5{fill:#5c6670}</style><g id="logo_lockups"><path class="st0" d="M187.6 0c4 0 5.6 2.8 3.6 6.2l-51.8 89.7c-2 3.4-5.2 3.4-7.2 0L80.4 6.2C78.4 2.8 80.1 0 84 0h103.6"/><path class="st1" d="M123.4 71.7l2.9 5.1 24-8.6 4.4-7.8zm4.1 7.2l2.9 4.9 13.7-4.9 4.3-7.5zm4.1 7l1.8 3.1c1.3 2.3 3.5 2.3 4.8 0l4-7-10.6 3.9z"/><path class="st2" d="M122.2 69.6l11.3-4.1-17.2-6.1z"/><path class="st3" d="M173 29.3l-16.3 28.3-19.6 7.1-22.8-8.1-15.7-27.3c-1.3-2.3-.2-4.2 2.4-4.2h69.6c2.6 0 3.7 1.9 2.4 4.2"/><path class="st1" d="M151.8 51l1-.2v-2.2h3.2v1.7l.7-.1v-4.1c0-.2-.2-.4-.4-.4s-.4.2-.4.4v.3h-3.2v-3.3c0-.1 0-.1-.1-.1l-3.8-1.2V41l1.2-.6.1-.1v-.1l-5.9-6.9.7-2.5v-.1s-.1-.1-.1 0c-3.9.8-16.2 2.4-19.8 2.4h-.5l-6.5 7.7-4.4 1.9c-.1 0-.1.1-.1.1v.9c0 .1.1.1.1.1h1.7v6.6c0 .1 0 .1.1.1l12.5 4.4.2.1h.2l.1-.1-.1-11 5.6-2c.1 0 .1-.1.1-.1v-1.4l7.7-7.3 5.9 7 .1 2c0 .1 0 .1.1.1l4.1 1.1-.1 7.7zm4.1-3.8v.7h-3.2v-.7h3.2z"/><path class="st3" d="M119.5 45.6l-1.9-.2h-.1v2.8c0 .1 0 .1.1.1l1.9.5h.1l.1-.1v-3c-.1 0-.1-.1-.2-.1zm3.6.4l-2.2-.2h-.1V49c0 .1 0 .1.1.1l2.2.6h.1l.1-.1v-3.5c-.1-.1-.1-.1-.2-.1z"/><path class="st1" d="M140.9 49.4l-2.9-2.7V53zm3.1-3.7l-5.4.3 2.9 2.8zm-2 3.6l2.6 2.5v-5.7zm-.5.6l-2.9 3.6 5.6-1zm1.1-12.5l-2.5-.1h-.1v4.4c0 .1.1.1.1.1h2.5c.1 0 .1-.1.1-.1v-4.2c.1 0 0-.1-.1-.1zm13.5 17.8c-.8-.1-1.7-.2-2.7-.2-3.1 0-6.2.6-8.3 1.6-.5.2-1.1.5-1.6.8-2.4 1.2-4.8 2.4-5.8 2.2-1.3-.2-3-.3-4.5-.4-1.3-.1-2.4-.1-3-.2-.9-.2-1.8-.2-2.6-.2-.1 0-.1.1-.1.1 0 .1 0 .1.1.1l9.2 3.1h.4l19-6.7c.1 0 .1-.1.1-.1-.1 0-.1-.1-.2-.1zM117.8 5.3c2 0 3.5.6 4.8 1.9.2.2.2.4 0 .6L121 9.3c-.1.1-.4.1-.5 0-.7-.7-1.7-1-2.7-1-2.3 0-3.9 1.9-3.9 4.1 0 2.2 1.7 4 3.9 4 .9 0 2-.3 2.7-1 .1-.1.4-.1.5 0l1.6 1.7c.1.1.1.4 0 .5-1.4 1.3-3.1 1.9-4.8 1.9-4 0-7.2-3.2-7.2-7.2 0-3.8 3.2-7 7.2-7zm12.5.6c0-.2.2-.4.4-.4h4.9c3.9 0 7 3.1 7 7s-3.2 7-7 7h-4.9c-.2 0-.4-.2-.4-.4V5.9zm5 10.6c2.3 0 3.9-1.8 3.9-4 0-2.3-1.6-4-3.9-4h-1.9v8.1h1.9zm13.2 2.4l6.2-13.4c.1-.1.2-.2.3-.2h.2c.1 0 .3.1.3.2l6.2 13.4c.1.3 0 .5-.3.5h-2.2c-.4 0-.5-.1-.7-.5l-.7-1.6h-5.4l-.7 1.6c-.1.2-.3.5-.7.5h-2.2c-.3 0-.5-.2-.3-.5zm8.2-4.2l-1.5-3.3-1.5 3.3h3z"/><path class="st4" d="M4.5 99c-4 0-5.6-2.8-3.6-6.3l52-90.1c2-3.5 5.3-3.5 7.3 0l52 90.1c2 3.5.4 6.3-3.6 6.3H4.5z"/><path class="st1" d="M39.6 36.9c-.5.9-.2 1.2.7.7l6.1-3.1c.9-.5 2-.1 2.4.8l4.1 8.9c.4.9 1.2.9 1.7.1l7.3-11.9c.5-.8 1.6-1 2.3-.4l11.5 9.9c.8.6 1 .5.5-.4L57.4 8.8c-.5-.9-1.3-.9-1.8 0l-16 28.1zm14.6 26.4l.2-.2c0-.1-.1-.3-.1-.3-2.8-3.7-7.3-6-12.3-6-8.6 0-15.5 7-15.5 15.5s7 15.5 15.5 15.5c4.7 0 8.9-2.1 11.7-5.4l.1-.1c.4-.5-.1-.8-.1-.8l-5.8-3.3s-.5-.3-.9.1l-.1.1c-1.3 1.1-3 1.7-4.9 1.7-4.3 0-7.8-3.5-7.8-7.8s3.5-7.8 7.8-7.8c2.1 0 4 .8 5.4 2.2.4.3.7.1.7.1l6.1-3.5m17.6 1.2c4.3 0 7.8 3.5 7.8 7.8s-3.5 7.8-7.8 7.8-7.8-3.5-7.8-7.8c.1-4.4 3.6-7.8 7.8-7.8m0 23.2c8.6 0 15.5-7 15.5-15.5 0-8.6-7-15.5-15.5-15.5-8.6 0-15.5 7-15.5 15.5 0 8.6 7 15.5 15.5 15.5"/><path class="st4" d="M117.7 94.9h-1.1c-.1 0-.1-.1-.1-.1v-.6c0-.1.1-.1.1-.1h3c.1 0 .1.1.1.1v.6c0 .1-.1.1-.1.1h-1.1v3.9c0 .1-.1.1-.1.1h-.6c-.1 0-.1-.1-.1-.1v-3.9zm4-.8c0-.1 0-.1.1-.1h.1c.1 0 .1 0 .1.1l1.5 3.3 1.5-3.3.1-.1h.1c.1 0 .1 0 .1.1l.8 4.7c0 .1 0 .2-.1.2h-.6c-.1 0-.1-.1-.1-.1l-.4-2.6-1.2 2.7-.1.1h-.1c-.1 0-.1 0-.1-.1l-1.2-2.7-.4 2.6-.1.1h-.7c-.1 0-.1-.1-.1-.2l.8-4.7z"/><path class="st5" d="M240 20.4c1.9 0 3.9.7 5.4 2 .3.3.7.3 1 0l3.1-3.2c.3-.3.3-.8 0-1.1-2.7-2.5-5.6-3.7-9.6-3.7-8 0-14.4 6.4-14.4 14.4s6.4 14.3 14.4 14.3c3.5 0 7-1.2 9.7-3.9.3-.3.3-.8 0-1.1l-3.1-3.3c-.2-.3-.8-.3-1 0-1.4 1.2-3.5 1.9-5.3 1.9-4.5 0-7.8-3.7-7.8-8.1-.2-4.5 3.1-8.2 7.6-8.2m35.2-6c-8 0-14.3 6.4-14.3 14.4s6.3 14.3 14.3 14.3 14.3-6.3 14.3-14.3-6.4-14.4-14.3-14.4m0 22.3c-4.3 0-7.9-3.6-7.9-7.9 0-4.4 3.6-8 7.9-8 4.4 0 8 3.6 8 8-.1 4.3-3.6 7.9-8 7.9m43.4.1H309V15.6c0-.4-.4-.8-.8-.8h-4.7c-.4 0-.8.4-.8.8v26.3c0 .4.3.8.8.8h15.1c.4 0 .8-.4.8-.8v-4.3c0-.5-.4-.8-.8-.8m26-22.4c-8 0-14.3 6.4-14.3 14.4s6.3 14.3 14.3 14.3 14.3-6.3 14.3-14.3-6.4-14.4-14.3-14.4m0 22.3c-4.3 0-7.9-3.6-7.9-7.9 0-4.4 3.6-8 7.9-8 4.4 0 8 3.6 8 8-.1 4.3-3.6 7.9-8 7.9m43.8-5.3c3.5-1.4 5.9-4.3 5.9-8 0-4.7-3.9-8.6-8.7-8.6h-11.9c-.4 0-.8.4-.8.8v26.3c0 .4.3.8.8.8h4.7c.4 0 .8-.4.8-.8V31.7h2.7l5.7 10.5c.1.2.3.4.6.4h5.3c.7 0 1-.6.7-1.1l-5.8-10.1zm-3.3-4.7h-5.9v-6.2h5.9c1.6 0 3 1.4 3 3 0 1.7-1.4 3.2-3 3.2m73.4-11.9h-9.7c-.4 0-.7.4-.7.8v26.3c0 .4.3.8.7.8h9.7c7.7 0 14-6.2 14-14-.1-7.7-6.4-13.9-14-13.9m-.4 21.9h-3.8V20.6h3.8c4.5 0 7.8 3.5 7.8 8-.1 4.6-3.4 8.1-7.8 8.1m41-22.3c-8 0-14.3 6.4-14.3 14.4s6.3 14.3 14.3 14.3c7.9 0 14.3-6.3 14.3-14.3.1-8-6.3-14.4-14.3-14.4m0 22.3c-4.3 0-7.9-3.6-7.9-7.9 0-4.4 3.6-8 7.9-8 4.4 0 7.9 3.6 7.9 8 .1 4.3-3.5 7.9-7.9 7.9m-77.3-21.9c-.1-.2-.4-.4-.7-.4h-.4c-.3 0-.6.2-.7.4l-12.4 26.8c-.2.5.1 1 .7 1h4.4c.8 0 1.2-.2 1.4-1l1.4-3.2h10.8l1.4 3.1c.4.9.6 1 1.4 1h4.4c.6 0 .9-.5.7-1l-12.4-26.7zm-4.6 19l3.6-8.3 3.7 8.3h-7.3z"/><g><path class="st5" d="M225.5 82.2h2.3V68.3h-2.3v-2.7h8.3c1.5 0 2.8.1 4 .5 3.7 1.1 6.2 4.4 6.2 9.1 0 4.5-2.3 7.8-5.9 9-1.3.5-2.6.6-4.2.6h-8.3v-2.6zm8.1-.2c1.2 0 2.2-.1 3.1-.5 2.2-.9 3.6-3.1 3.6-6.3 0-3.2-1.5-5.5-3.7-6.3-1-.4-1.9-.4-3-.4h-2.3V82h2.3zm19.3-11.3c4 0 6.1 2.9 6.1 6.5 0 .4-.1 1.2-.1 1.2h-9.5c.2 2.5 2.1 3.8 4.1 3.8 2.2 0 4-1.5 4-1.5l1.3 2.4s-2.1 1.9-5.6 1.9c-4.6 0-7.4-3.3-7.4-7.2.1-4.1 2.9-7.1 7.1-7.1zm2.6 5.7c-.1-1.9-1.2-3-2.7-3-1.8 0-3 1.2-3.3 3h6zm7.1 11.2V74.2c0-.4-.2-.6-.6-.6h-1.5V71h3.5c1.3 0 1.7.6 1.7 1.3v.7h.1s1.2-2.3 4.4-2.3c3.7 0 6.1 2.9 6.1 7.2 0 4.4-2.7 7.2-6.3 7.2-2.7 0-4-1.9-4-1.9s.1.5.1 1.2v3.3h2v2.6h-7.4v-2.6h1.9zm6.8-5.4c1.9 0 3.5-1.5 3.5-4.3 0-2.6-1.4-4.3-3.4-4.3-1.8 0-3.5 1.3-3.5 4.3 0 2.2 1.1 4.3 3.4 4.3zm16.1-5.9h.9v-.5c0-1.8-1.1-2.4-2.5-2.4-2.1 0-3.9 1.3-3.9 1.3l-1.3-2.4s2.1-1.7 5.5-1.7c3.7 0 5.7 1.9 5.7 5.4v5.5c0 .4.2.6.6.6h1.2v2.6h-3.2c-1.3 0-1.8-.7-1.8-1.5V83c0-.4.1-.7.1-.7h-.1s-1.2 2.6-4.3 2.6c-2.3 0-4.6-1.4-4.6-4.2 0-4 5.5-4.4 7.7-4.4zm-2.3 6.3c1.9 0 3.2-2 3.2-3.7v-.5h-.6c-1.3 0-4.6.2-4.6 2.3 0 1 .7 1.9 2 1.9zm10-.4h2v-8c0-.4-.2-.6-.6-.6h-1.5V71h3.6c1.2 0 1.8.5 1.8 1.7v.8c0 .5-.1.9-.1.9h.1c.6-2 2.3-3.5 4.4-3.5.3 0 .6.1.6.1v3.4s-.4-.1-.8-.1c-2.8 0-4 2.4-4 5v3h2v2.6h-7.4v-2.7zm13.2-8.6h-2.1V71h2.2v-3.8h3.3V71h3.1v2.6h-3.1v5.8c0 2.3 1.8 2.7 2.8 2.7h.6v2.8s-.4.1-1.1.1c-1.9 0-5.7-.6-5.7-5.2v-6.2zm8.6 8.6h2v-8.1c0-.4-.2-.6-.6-.6h-1.5V71h3.6c1.2 0 1.8.6 1.8 1.5v.6c0 .3-.1.6-.1.6h.1c.7-1.4 2.4-3.1 4.7-3.1 1.9 0 3.3.9 3.8 3h.1c.8-1.6 2.6-3 4.8-3 2.8 0 4.4 1.6 4.4 5.2v6.3h2v2.6h-5.4v-8.2c0-1.6-.3-2.8-1.9-2.8-2.3 0-3.5 2.3-3.5 4.9v3.5h2v2.6h-5.4v-8.2c0-1.5-.2-2.8-1.9-2.8-2.4 0-3.5 2.6-3.5 5V82h2v2.6H315v-2.4zm33.3-11.5c4 0 6.1 2.9 6.1 6.5 0 .4-.1 1.2-.1 1.2h-9.5c.2 2.5 2.1 3.8 4.1 3.8 2.2 0 4-1.5 4-1.5l1.3 2.4s-2.1 1.9-5.6 1.9c-4.6 0-7.4-3.3-7.4-7.2.1-4.1 3-7.1 7.1-7.1zm2.6 5.7c-.1-1.9-1.2-3-2.7-3-1.8 0-3 1.2-3.3 3h6zm5.5 5.8h2v-8c0-.4-.2-.6-.6-.6h-1.5V71h3.6c1.2 0 1.8.6 1.8 1.5v.6c0 .3-.1.6-.1.6h.1c.2-.4 1.6-3.1 5.1-3.1 2.9 0 4.6 1.6 4.6 5.2v6.3h2v2.6H368v-8.2c0-1.7-.5-2.8-2.2-2.8-2.5 0-3.9 2.4-3.9 4.8v3.6h2v2.6h-7.4v-2.5zm20-8.6h-2.1V71h2.2v-3.8h3.3V71h3.1v2.6h-3.1v5.8c0 2.3 1.8 2.7 2.8 2.7h.6v2.8s-.4.1-1.1.1c-1.9 0-5.7-.6-5.7-5.2v-6.2zm22.3-2.9c4.2 0 7.6 3 7.6 7.2s-3.4 7.2-7.6 7.2c-4.2 0-7.6-3-7.6-7.2.1-4.2 3.4-7.2 7.6-7.2zm0 11.5c2.2 0 4.1-1.7 4.1-4.3 0-2.5-1.9-4.3-4.1-4.3-2.2 0-4.1 1.8-4.1 4.3 0 2.6 1.9 4.3 4.1 4.3zm9.5 0h2v-8.6h-2.1V71h2.1v-.6c0-4.5 3.6-5 5.4-5 .8 0 1.4.1 1.4.1v2.8s-.4-.1-1.1-.1c-.8 0-2.3.2-2.3 2.2v.6h3.1v2.6h-3.1v8.6h2.3v2.6h-7.7v-2.6zm15.8 0h1.8l5.8-16.5h4l5.8 16.5h1.8v2.6H436v-2.6h1.9l-1.2-3.6h-6l-1.2 3.6h1.9v2.6H424v-2.6zm11.8-6.4l-1.8-5.4c-.3-.9-.4-1.7-.4-1.7h-.1s-.1.7-.4 1.7l-1.8 5.4h4.5zm14.5 11.9c2.1 0 3.9-.9 3.9-3.5v-.9c0-.3.1-.7.1-.7h-.1c-.8 1.2-2 1.9-3.8 1.9-4 0-6.2-3.2-6.2-7s2.1-6.9 6.1-6.9c1.6 0 3.5.6 4.3 2.1h.1s-.1-.2-.1-.5c0-.7.5-1.3 1.6-1.3h3.4v2.6h-1.3c-.4 0-.6.2-.6.5v10c0 4.7-3.7 6.5-7.3 6.5-1.7 0-3.6-.5-4.9-1.2l1.1-2.5c-.2-.1 1.6.9 3.7.9zm3.9-10.1c0-3.1-1.6-4-3.4-4-2.1 0-3.2 1.5-3.2 3.8 0 2.4 1.2 4.2 3.5 4.2 1.6 0 3.1-.9 3.1-4zm7.1 4.6h2v-8c0-.4-.2-.6-.6-.6h-1.5V71h3.6c1.2 0 1.8.5 1.8 1.7v.8c0 .5-.1.9-.1.9h.1c.6-2 2.3-3.5 4.4-3.5.3 0 .6.1.6.1v3.4s-.4-.1-.8-.1c-2.8 0-4 2.4-4 5v3h2v2.6h-7.4v-2.7zm11.7 0h2v-8.6h-2.1V71h5.6v11.2h2v2.6H473v-2.6zm2-16.6h3.5v3.1H475v-3.1zm14.3 5.1c2.3 0 5.6.9 5.6 3.3v1.9h-3V75c0-.9-1.4-1.3-2.6-1.3-2.5 0-4 1.7-4 4.2 0 2.8 2 4.4 4.3 4.4 1.9 0 3.5-1.1 4.3-1.7l1.2 2.4c-.9.9-3.1 2.1-5.7 2.1-4 0-7.6-2.7-7.6-7.2.1-4.1 3.2-7.2 7.5-7.2zm9.2 2.9h-2.1V71h5.6v8.3c0 1.6.4 2.8 2.2 2.8 2.4 0 3.8-2.4 3.8-4.9v-3.6h-2.1V71h5.5v10.6c0 .4.2.6.6.6h1.3v2.5h-3.4c-1.2 0-1.8-.6-1.8-1.5v-1.1h-.1c-.2.5-1.6 3-5 3-2.8 0-4.5-1.5-4.5-5.2v-6.3zm17.3-5.4h-2.1v-2.6h5.5v14.6c0 1.2.3 1.9 1.4 1.9h.6v2.8s-.6.1-1.2.1c-2.2 0-4.2-.7-4.2-4.5V68.2zm8.7 5.4h-2.1V71h2.2v-3.8h3.3V71h3.1v2.6h-3.1v5.8c0 2.3 1.8 2.7 2.8 2.7h.6v2.8s-.4.1-1.1.1c-1.9 0-5.7-.6-5.7-5.2v-6.2zm10 0h-2.1V71h5.6v8.3c0 1.6.4 2.8 2.2 2.8 2.4 0 3.8-2.4 3.8-4.9v-3.6h-2.1V71h5.5v10.6c0 .4.2.6.6.6h1.3v2.5h-3.4c-1.2 0-1.8-.6-1.8-1.5v-1.1h-.1c-.2.5-1.6 3-5 3-2.8 0-4.5-1.5-4.5-5.2v-6.3zm16.6 8.6h2v-8c0-.4-.2-.6-.6-.6H551V71h3.6c1.2 0 1.8.5 1.8 1.7v.8c0 .5-.1.9-.1.9h.1c.6-2 2.3-3.5 4.4-3.5.3 0 .6.1.6.1v3.4s-.4-.1-.8-.1c-2.8 0-4 2.4-4 5v3h2v2.6h-7.4v-2.7zm18.4-11.5c4 0 6.1 2.9 6.1 6.5 0 .4-.1 1.2-.1 1.2H566c.2 2.5 2.1 3.8 4.1 3.8 2.2 0 4-1.5 4-1.5l1.3 2.4s-2.1 1.9-5.6 1.9c-4.6 0-7.4-3.3-7.4-7.2.1-4.1 3-7.1 7.1-7.1zm2.6 5.7c-.1-1.9-1.2-3-2.7-3-1.8 0-3 1.2-3.3 3h6z"/></g><path class="st5" d="M208.3 0h1.3v99h-1.3z"/></g></svg>