<svg xmlns="http://www.w3.org/2000/svg" width="513.5" height="99" viewBox="0 0 513.5 99"><style>.st0{fill:#4e5758}.st1{fill:#fff}.st2{fill:#72a84f}.st3{fill:#009add}.st4{fill:#00953a}.st5{fill:#5c6670}</style><g id="DNR_logo_lockups"><path class="st0" d="M188.1 0c4 0 5.6 2.8 3.6 6.3l-52 90.1c-2 3.5-5.3 3.5-7.3 0l-52-90.1C78.4 2.8 80.1 0 84 0h104.1"/><path class="st1" d="M123.6 72.1l3 5.1 24-8.7 4.5-7.7zM127.8 79.3l2.8 4.9 13.8-4.9 4.4-7.6zM131.8 86.3l1.8 3.2c1.3 2.3 3.5 2.3 4.8 0l4-7-10.6 3.8z"/><path class="st2" d="M171 25h-69.5c-2.7 0-3.8 1.9-2.4 4.2l15.7 27.2 22.8 8.1 19.6-7 16.3-28.2c1.3-2.4.2-4.3-2.5-4.3"/><path class="st1" d="M110.5 5.9c0-.2.2-.4.4-.4h4.8c3.8 0 7 3.1 7 6.9 0 3.8-3.1 7-7 7h-4.8c-.2 0-.4-.2-.4-.4V5.9zm5 10.6c2.2 0 3.9-1.8 3.9-4s-1.6-4-3.9-4h-1.9v8h1.9zM130.4 5.7c0-.2.2-.4.4-.4h.5l7.9 7.6v-7c0-.2.2-.4.4-.4h2.4c.2 0 .4.2.4.4v13.3c0 .2-.2.4-.4.4h-.3c-.1 0-.2-.1-.3-.1l-7.8-7.9V19c0 .2-.2.4-.4.4h-2.4c-.2 0-.4-.2-.4-.4V5.7zM151.1 5.9c0-.2.2-.4.4-.4h5.9c2.4 0 4.3 1.9 4.3 4.3 0 1.8-1.2 3.3-2.9 4l2.7 5c.1.3 0 .6-.3.6h-2.6c-.2 0-.3-.1-.3-.2l-2.6-5.2h-1.4v5.1c0 .2-.2.4-.4.4h-2.4c-.2 0-.4-.2-.4-.4V5.9zm6.1 5.6c.8 0 1.5-.8 1.5-1.6s-.7-1.5-1.5-1.5h-2.9v3.1h2.9z"/><path class="st3" d="M122.4 70l11.4-4.1-17.3-6.2z"/><path class="st1" d="M156.3 53s0-.1 0 0l-4.7-5.5 2.6.3s.1 0 .1-.1v-.1l-4.6-5 2 .3s.1 0 .1-.1v-.1l-4.4-4.8 1.7.3s.1 0 .1-.1V38l-3.4-5.5h-.1-.1l-3.9 5.9v.1h.1l2-.6-4.2 4.8v.1h.1l2.3-.4-2.6 2.6-5.3-5.3 3.6 1.1c.1 0 .1 0 .1-.1v-.1l-5.7-5.7 2.9.9s.1 0 .1-.1v-.1l-4.8-7.8h-.1-.1l-5.2 8v.1h.1l3.5-1.1-5.8 5.8v.1h.1l3.7-1.2-6.4 6.3v.1h.1l4-1.2-6.4 6.5v.1h.1l3.8-1.2-4.1 4v.1l.1.1 8.1 2.8c7.2-1.8 8.2-2.7 8.2-3.3 0-.4-.5-.8-1-1.1-.4-.2-.8-.5-.8-.7 0-.9 4.1-1.3 7.7-1.7 4.3-.4 6.8-.8 6.8-1.6 0-.9-2.4-1-4.9-1.2h-.2l-.3-.3c5.2.2 8.2.8 8.2 1.6 0 1.4-4.7 2.3-8.2 3-2.8.5-3.8.8-3.8 1.1 0 .4.6.6 1.4.9 1 .4 2.1.7 2.1 1.6 0 1.2-2.6 2.4-7.1 4.3 0 0-.1 0-.1.1 0 0 0 .1.1.1l3.6 1.2h.4l17.9-6.3.1-.1v-.1l-2.4-2.6 2.8 1z"/><g><path class="st4" d="M4.5 99c-4 0-5.6-2.8-3.6-6.3l52-90.1c2-3.5 5.3-3.5 7.3 0l52 90.1c2 3.5.4 6.3-3.6 6.3H4.5z"/><path class="st1" d="M39.6 36.9c-.5.9-.2 1.2.7.7l6.1-3.1c.9-.5 2-.1 2.4.8l4.1 8.9c.4.9 1.2.9 1.7.1l7.3-11.9c.5-.8 1.6-1 2.3-.4l11.5 9.9c.8.6 1 .5.5-.4L57.4 8.8c-.5-.9-1.3-.9-1.8 0l-16 28.1zM54.2 63.3l.2-.2c0-.1-.1-.3-.1-.3-2.8-3.7-7.3-6-12.3-6-8.6 0-15.5 7-15.5 15.5s7 15.5 15.5 15.5c4.7 0 8.9-2.1 11.7-5.4l.1-.1c.4-.5-.1-.8-.1-.8l-5.8-3.3s-.5-.3-.9.1l-.1.1c-1.3 1.1-3 1.7-4.9 1.7-4.3 0-7.8-3.5-7.8-7.8s3.5-7.8 7.8-7.8c2.1 0 4 .8 5.4 2.2.4.3.7.1.7.1l6.1-3.5M71.8 64.5c4.3 0 7.8 3.5 7.8 7.8s-3.5 7.8-7.8 7.8-7.8-3.5-7.8-7.8c.1-4.4 3.6-7.8 7.8-7.8m0 23.2c8.6 0 15.5-7 15.5-15.5 0-8.6-7-15.5-15.5-15.5-8.6 0-15.5 7-15.5 15.5 0 8.6 7 15.5 15.5 15.5"/><path class="st4" d="M117.7 94.9h-1.1c-.1 0-.1-.1-.1-.1v-.6c0-.1.1-.1.1-.1h3c.1 0 .1.1.1.1v.6c0 .1-.1.1-.1.1h-1.1v3.9c0 .1-.1.1-.1.1h-.6c-.1 0-.1-.1-.1-.1v-3.9zM121.7 94.1c0-.1 0-.1.1-.1h.1c.1 0 .1 0 .1.1l1.5 3.3 1.5-3.3.1-.1h.1c.1 0 .1 0 .1.1l.8 4.7c0 .1 0 .2-.1.2h-.6c-.1 0-.1-.1-.1-.1l-.4-2.6-1.2 2.7-.1.1h-.1c-.1 0-.1 0-.1-.1l-1.2-2.7-.4 2.6-.1.1h-.7c-.1 0-.1-.1-.1-.2l.8-4.7z"/></g><g><path class="st5" d="M240 20.4c1.9 0 3.9.7 5.4 2 .3.3.7.3 1 0l3.1-3.2c.3-.3.3-.8 0-1.1-2.7-2.5-5.6-3.7-9.6-3.7-8 0-14.4 6.4-14.4 14.4s6.4 14.3 14.4 14.3c3.5 0 7-1.2 9.7-3.9.3-.3.3-.8 0-1.1l-3.1-3.3c-.2-.3-.8-.3-1 0-1.4 1.2-3.5 1.9-5.3 1.9-4.5 0-7.8-3.7-7.8-8.1-.2-4.5 3.1-8.2 7.6-8.2M275.2 14.4c-8 0-14.3 6.4-14.3 14.4s6.3 14.3 14.3 14.3 14.3-6.3 14.3-14.3-6.4-14.4-14.3-14.4m0 22.3c-4.3 0-7.9-3.6-7.9-7.9 0-4.4 3.6-8 7.9-8 4.4 0 8 3.6 8 8-.1 4.3-3.6 7.9-8 7.9M318.6 36.8H309V15.6c0-.4-.4-.8-.8-.8h-4.7c-.4 0-.8.4-.8.8v26.3c0 .4.3.8.8.8h15.1c.4 0 .8-.4.8-.8v-4.3c0-.5-.4-.8-.8-.8M344.6 14.4c-8 0-14.3 6.4-14.3 14.4s6.3 14.3 14.3 14.3 14.3-6.3 14.3-14.3-6.4-14.4-14.3-14.4m0 22.3c-4.3 0-7.9-3.6-7.9-7.9 0-4.4 3.6-8 7.9-8 4.4 0 8 3.6 8 8-.1 4.3-3.6 7.9-8 7.9M388.4 31.4c3.5-1.4 5.9-4.3 5.9-8 0-4.7-3.9-8.6-8.7-8.6h-11.9c-.4 0-.8.4-.8.8v26.3c0 .4.3.8.8.8h4.7c.4 0 .8-.4.8-.8V31.7h2.7l5.7 10.5c.1.2.3.4.6.4h5.3c.7 0 1-.6.7-1.1l-5.8-10.1zm-3.3-4.7h-5.9v-6.2h5.9c1.6 0 3 1.4 3 3 0 1.7-1.4 3.2-3 3.2M458.5 14.8h-9.7c-.4 0-.7.4-.7.8v26.3c0 .4.3.8.7.8h9.7c7.7 0 14-6.2 14-14-.1-7.7-6.4-13.9-14-13.9m-.4 21.9h-3.8V20.6h3.8c4.5 0 7.8 3.5 7.8 8-.1 4.6-3.4 8.1-7.8 8.1M499.1 14.4c-8 0-14.3 6.4-14.3 14.4s6.3 14.3 14.3 14.3c7.9 0 14.3-6.3 14.3-14.3.1-8-6.3-14.4-14.3-14.4m0 22.3c-4.3 0-7.9-3.6-7.9-7.9 0-4.4 3.6-8 7.9-8 4.4 0 7.9 3.6 7.9 8 .1 4.3-3.5 7.9-7.9 7.9M421.8 14.8c-.1-.2-.4-.4-.7-.4h-.4c-.3 0-.6.2-.7.4l-12.4 26.8c-.2.5.1 1 .7 1h4.4c.8 0 1.2-.2 1.4-1l1.4-3.2h10.8l1.4 3.1c.4.9.6 1 1.4 1h4.4c.6 0 .9-.5.7-1l-12.4-26.7zm-4.6 19l3.6-8.3 3.7 8.3h-7.3z"/></g><g><path class="st5" d="M228.6 78.6V80c0 1.2 1.6 2 3.4 2 1.9 0 3.3-.8 3.3-2.4 0-1.9-2.2-2.6-4.4-3.4-2.6-1-5.1-2.1-5.1-5.6 0-3.9 3.1-5.3 6.4-5.3 3 0 6.1 1.2 6.1 3.4v2.5h-3.2v-1.3c0-1-1.4-1.5-2.9-1.5-1.6 0-2.9.6-2.9 2.1 0 1.8 1.8 2.4 3.8 3.1 2.9 1 5.7 2.2 5.7 5.8 0 3.9-3.3 5.7-6.9 5.7-3.2 0-6.6-1.4-6.6-4.3v-2.2h3.3zM242.5 73.6h-2.1V71h2.2v-3.8h3.3V71h3.1v2.6h-3v5.8c0 2.3 1.8 2.7 2.8 2.7h.6v2.8s-.4.1-1.1.1c-1.9 0-5.7-.6-5.7-5.2v-6.2zM258.4 76.3h.9v-.5c0-1.8-1.1-2.4-2.5-2.4-2.1 0-3.9 1.3-3.9 1.3l-1.3-2.4s2.1-1.7 5.5-1.7c3.7 0 5.7 1.9 5.7 5.4v5.5c0 .4.2.6.6.6h1.2v2.6h-3.2c-1.3 0-1.8-.7-1.8-1.5V83c0-.4.1-.7.1-.7h-.1s-1.2 2.6-4.3 2.6c-2.3 0-4.6-1.4-4.6-4.2 0-4 5.5-4.4 7.7-4.4zm-2.3 6.3c1.9 0 3.2-2 3.2-3.7v-.5h-.6c-1.3 0-4.6.2-4.6 2.3 0 1 .8 1.9 2 1.9zM267.6 73.6h-2.1V71h2.2v-3.8h3.3V71h3.1v2.6H271v5.8c0 2.3 1.8 2.7 2.8 2.7h.6v2.8s-.4.1-1.1.1c-1.9 0-5.7-.6-5.7-5.2v-6.2zM282.9 70.7c4 0 6.1 2.9 6.1 6.5 0 .4-.1 1.2-.1 1.2h-9.5c.2 2.5 2.1 3.8 4.1 3.8 2.2 0 4-1.5 4-1.5l1.3 2.4s-2.1 1.9-5.6 1.9c-4.6 0-7.4-3.3-7.4-7.2.1-4.1 2.9-7.1 7.1-7.1zm2.6 5.7c-.1-1.9-1.2-3-2.7-3-1.8 0-3 1.2-3.3 3h6zM297.6 82.2h2.3V68.5h-2.3v-2.8h8.2v2.8h-2.3V82h5.7v-3h3v5.8h-14.5v-2.6zM321 76.3h.9v-.5c0-1.8-1.1-2.4-2.5-2.4-2.1 0-3.9 1.3-3.9 1.3l-1.3-2.4s2.1-1.7 5.5-1.7c3.7 0 5.7 1.9 5.7 5.4v5.5c0 .4.2.6.6.6h1.2v2.6H324c-1.3 0-1.8-.7-1.8-1.5V83c0-.4.1-.7.1-.7h-.1s-1.2 2.6-4.3 2.6c-2.3 0-4.6-1.4-4.6-4.2 0-4 5.5-4.4 7.7-4.4zm-2.3 6.3c1.9 0 3.2-2 3.2-3.7v-.5h-.6c-1.3 0-4.6.2-4.6 2.3 0 1 .7 1.9 2 1.9zM328.7 82.2h2v-8c0-.4-.2-.6-.6-.6h-1.5V71h3.6c1.2 0 1.8.6 1.8 1.5v.6c0 .3-.1.6-.1.6h.1c.2-.4 1.6-3.1 5.1-3.1 2.9 0 4.6 1.6 4.6 5.2v6.3h2v2.6h-5.4v-8.2c0-1.7-.5-2.8-2.2-2.8-2.5 0-3.9 2.4-3.9 4.8v3.6h2v2.6h-7.4v-2.5zM353.3 70.7c2.9 0 4 1.9 4 1.9h.1s-.1-.4-.1-1v-3.5h-2.1v-2.6h5.5v16c0 .4.2.6.6.6h1.2v2.6h-3.2c-1.2 0-1.8-.7-1.8-1.5V83c0-.4.1-.6.1-.6h-.1S356.4 85 353 85c-3.7 0-6-2.9-6-7.2 0-4.3 2.6-7.1 6.3-7.1zm.6 11.5c1.8 0 3.5-1.3 3.5-4.2 0-2.2-1.1-4.3-3.4-4.3-1.9 0-3.5 1.5-3.5 4.3 0 2.5 1.4 4.2 3.4 4.2zM370.9 82.2h2.3V68.3h-2.3v-2.7h8.8c1.4 0 2.4.1 3.4.5 1.7.7 2.9 2.3 2.9 4.4 0 1.8-.9 3.3-2.3 4.1v.1c2.1.6 3.1 2.5 3.1 4.5 0 2.7-1.7 4.6-3.8 5.2-.9.3-1.8.3-2.9.3h-9.2v-2.5zm9.2-8.7c1.5 0 2.3-1.1 2.3-2.5 0-.9-.4-1.8-1.1-2.2-.5-.2-1-.3-1.6-.3h-3v5h3.4zm.2 8.5c.5 0 1-.1 1.4-.2 1-.4 1.5-1.5 1.5-2.7 0-1.6-1-2.8-2.8-2.8h-3.7V82h3.6zM396.4 70.7c4.2 0 7.6 3 7.6 7.2s-3.4 7.2-7.6 7.2c-4.2 0-7.6-3-7.6-7.2s3.4-7.2 7.6-7.2zm0 11.5c2.2 0 4.1-1.7 4.1-4.3 0-2.5-1.9-4.3-4.1-4.3-2.2 0-4.1 1.8-4.1 4.3 0 2.6 1.9 4.3 4.1 4.3zM413.1 76.3h.9v-.5c0-1.8-1.1-2.4-2.5-2.4-2.1 0-3.9 1.3-3.9 1.3l-1.3-2.4s2.1-1.7 5.5-1.7c3.7 0 5.7 1.9 5.7 5.4v5.5c0 .4.2.6.6.6h1.2v2.6H416c-1.3 0-1.8-.7-1.8-1.5V83c0-.4.1-.7.1-.7h-.1s-1.2 2.6-4.3 2.6c-2.3 0-4.6-1.4-4.6-4.2.1-4 5.6-4.4 7.8-4.4zm-2.3 6.3c1.9 0 3.2-2 3.2-3.7v-.5h-.6c-1.3 0-4.6.2-4.6 2.3 0 1 .7 1.9 2 1.9zM420.8 82.2h2v-8c0-.4-.2-.6-.6-.6h-1.5V71h3.6c1.2 0 1.8.5 1.8 1.7v.8c0 .5-.1.9-.1.9h.1c.6-2 2.3-3.5 4.4-3.5.3 0 .6.1.6.1v3.4s-.4-.1-.8-.1c-2.8 0-4 2.4-4 5v3h2v2.6h-7.4v-2.7zM438.6 70.7c2.9 0 4 1.9 4 1.9h.1s-.1-.4-.1-1v-3.5h-2.1v-2.6h5.5v16c0 .4.2.6.6.6h1.2v2.6h-3.2c-1.2 0-1.8-.7-1.8-1.5V83c0-.4.1-.6.1-.6h-.1s-1.1 2.6-4.5 2.6c-3.7 0-6-2.9-6-7.2 0-4.3 2.6-7.1 6.3-7.1zm.6 11.5c1.8 0 3.5-1.3 3.5-4.2 0-2.2-1.1-4.3-3.4-4.3-1.9 0-3.5 1.5-3.5 4.3 0 2.5 1.4 4.2 3.4 4.2z"/></g><path class="st5" d="M208.3 0h1.3v99h-1.3z"/></g></svg>