<svg xmlns="http://www.w3.org/2000/svg" width="588.7" height="99" viewBox="0 0 588.7 99"><style>.st0{fill:#039547}.st1{fill:#fff}.st2{fill:#5d6670}.st3{fill:#467bbe}.st4{fill:#ef3741}.st5{fill:#4f5858}</style><g id="width_guide"><path class="st0" d="M4.5 99c-4 0-5.6-2.8-3.6-6.3l52-90.1c2-3.5 5.3-3.5 7.3 0l52 90.1c2 3.5.4 6.3-3.6 6.3H4.5z"/><path class="st1" d="M39.6 36.9c-.5.9-.2 1.2.7.7l6.1-3.1c.9-.5 2-.1 2.4.8l4.1 8.9c.4.9 1.2.9 1.7.1l7.3-11.9c.5-.8 1.6-1 2.3-.4l11.5 9.9c.8.6 1 .5.5-.4L57.4 8.8c-.5-.9-1.3-.9-1.8 0l-16 28.1zM54.2 63.3l.2-.2c0-.1-.1-.3-.1-.3-2.8-3.7-7.3-6-12.3-6-8.6 0-15.5 7-15.5 15.5s7 15.5 15.5 15.5c4.7 0 8.9-2.1 11.7-5.4l.1-.1c.4-.5-.1-.8-.1-.8l-5.8-3.3s-.5-.3-.9.1l-.1.1c-1.3 1.1-3 1.7-4.9 1.7-4.3 0-7.8-3.5-7.8-7.8s3.5-7.8 7.8-7.8c2.1 0 4 .8 5.4 2.2.4.3.7.1.7.1l6.1-3.5M71.8 64.5c4.3 0 7.8 3.5 7.8 7.8s-3.5 7.8-7.8 7.8-7.8-3.5-7.8-7.8c.1-4.4 3.6-7.8 7.8-7.8m0 23.2c8.6 0 15.5-7 15.5-15.5 0-8.6-7-15.5-15.5-15.5-8.6 0-15.5 7-15.5 15.5 0 8.6 7 15.5 15.5 15.5"/><path class="st0" d="M117.7 94.9h-1.1c-.1 0-.1-.1-.1-.1v-.6c0-.1.1-.1.1-.1h3c.1 0 .1.1.1.1v.6c0 .1-.1.1-.1.1h-1.1v3.9c0 .1-.1.1-.1.1h-.6c-.1 0-.1-.1-.1-.1v-3.9zM121.7 94.1c0-.1 0-.1.1-.1h.1c.1 0 .1 0 .1.1l1.5 3.3 1.5-3.3.1-.1h.1c.1 0 .1 0 .1.1l.8 4.7c0 .1 0 .2-.1.2h-.6c-.1 0-.1-.1-.1-.1l-.4-2.6-1.2 2.7-.1.1h-.1c-.1 0-.1 0-.1-.1l-1.2-2.7-.4 2.6-.1.1h-.7c-.1 0-.1-.1-.1-.2l.8-4.7z"/><g><path class="st2" d="M240 20.4c1.9 0 3.9.7 5.4 2 .3.3.7.3 1 0l3.1-3.2c.3-.3.3-.8 0-1.1-2.7-2.5-5.6-3.7-9.6-3.7-8 0-14.4 6.4-14.4 14.4s6.4 14.3 14.4 14.3c3.5 0 7-1.2 9.7-3.9.3-.3.3-.8 0-1.1l-3.1-3.3c-.2-.3-.8-.3-1 0-1.4 1.2-3.5 1.9-5.3 1.9-4.5 0-7.8-3.7-7.8-8.1-.2-4.5 3.1-8.2 7.6-8.2M275.2 14.4c-8 0-14.3 6.4-14.3 14.4s6.3 14.3 14.3 14.3 14.3-6.3 14.3-14.3-6.4-14.4-14.3-14.4m0 22.3c-4.3 0-7.9-3.6-7.9-7.9 0-4.4 3.6-8 7.9-8 4.4 0 8 3.6 8 8-.1 4.3-3.6 7.9-8 7.9M318.6 36.8H309V15.6c0-.4-.4-.8-.8-.8h-4.7c-.4 0-.8.4-.8.8v26.3c0 .4.3.8.8.8h15.1c.4 0 .8-.4.8-.8v-4.3c0-.5-.4-.8-.8-.8M344.6 14.4c-8 0-14.3 6.4-14.3 14.4s6.3 14.3 14.3 14.3 14.3-6.3 14.3-14.3-6.4-14.4-14.3-14.4m0 22.3c-4.3 0-7.9-3.6-7.9-7.9 0-4.4 3.6-8 7.9-8 4.4 0 8 3.6 8 8-.1 4.3-3.6 7.9-8 7.9M388.4 31.4c3.5-1.4 5.9-4.3 5.9-8 0-4.7-3.9-8.6-8.7-8.6h-11.9c-.4 0-.8.4-.8.8v26.3c0 .4.3.8.8.8h4.7c.4 0 .8-.4.8-.8V31.7h2.7l5.7 10.5c.1.2.3.4.6.4h5.3c.7 0 1-.6.7-1.1l-5.8-10.1zm-3.3-4.7h-5.9v-6.2h5.9c1.6 0 3 1.4 3 3 0 1.7-1.4 3.2-3 3.2M458.5 14.8h-9.7c-.4 0-.7.4-.7.8v26.3c0 .4.3.8.7.8h9.7c7.7 0 14-6.2 14-14-.1-7.7-6.4-13.9-14-13.9m-.4 21.9h-3.8V20.6h3.8c4.5 0 7.8 3.5 7.8 8-.1 4.6-3.4 8.1-7.8 8.1M499.1 14.4c-8 0-14.3 6.4-14.3 14.4s6.3 14.3 14.3 14.3c7.9 0 14.3-6.3 14.3-14.3.1-8-6.3-14.4-14.3-14.4m0 22.3c-4.3 0-7.9-3.6-7.9-7.9 0-4.4 3.6-8 7.9-8 4.4 0 7.9 3.6 7.9 8 .1 4.3-3.5 7.9-7.9 7.9M421.8 14.8c-.1-.2-.4-.4-.7-.4h-.4c-.3 0-.6.2-.7.4l-12.4 26.8c-.2.5.1 1 .7 1h4.4c.8 0 1.2-.2 1.4-1l1.4-3.2h10.8l1.4 3.1c.4.9.6 1 1.4 1h4.4c.6 0 .9-.5.7-1l-12.4-26.7zm-4.6 19l3.6-8.3 3.7 8.3h-7.3z"/></g><g><path class="st2" d="M225.5 82.2h2.3V68.3h-2.3v-2.7h8.3c1.5 0 2.8.1 4 .5 3.7 1.1 6.2 4.4 6.2 9.1 0 4.5-2.3 7.8-5.9 9-1.3.5-2.6.6-4.2.6h-8.3v-2.6zm8.1-.2c1.2 0 2.2-.1 3.1-.5 2.2-.9 3.6-3.1 3.6-6.3 0-3.2-1.5-5.5-3.7-6.3-1-.4-1.9-.4-3-.4h-2.3V82h2.3zM252.9 70.7c4 0 6.1 2.9 6.1 6.5 0 .4-.1 1.2-.1 1.2h-9.5c.2 2.5 2.1 3.8 4.1 3.8 2.2 0 4-1.5 4-1.5l1.3 2.4s-2.1 1.9-5.6 1.9c-4.6 0-7.4-3.3-7.4-7.2.1-4.1 2.9-7.1 7.1-7.1zm2.6 5.7c-.1-1.9-1.2-3-2.7-3-1.8 0-3 1.2-3.3 3h6zM262.6 87.6V74.2c0-.4-.2-.6-.6-.6h-1.5V71h3.5c1.3 0 1.7.6 1.7 1.3v.7h.1s1.2-2.3 4.4-2.3c3.7 0 6.1 2.9 6.1 7.2 0 4.4-2.7 7.2-6.3 7.2-2.7 0-4-1.9-4-1.9s.1.5.1 1.2v3.3h2v2.6h-7.4v-2.6h1.9zm6.8-5.4c1.9 0 3.5-1.5 3.5-4.3 0-2.6-1.4-4.3-3.4-4.3-1.8 0-3.5 1.3-3.5 4.3 0 2.2 1.1 4.3 3.4 4.3zM285.5 76.3h.9v-.5c0-1.8-1.1-2.4-2.5-2.4-2.1 0-3.9 1.3-3.9 1.3l-1.3-2.4s2.1-1.7 5.5-1.7c3.7 0 5.7 1.9 5.7 5.4v5.5c0 .4.2.6.6.6h1.2v2.6h-3.2c-1.3 0-1.8-.7-1.8-1.5V83c0-.4.1-.7.1-.7h-.1s-1.2 2.6-4.3 2.6c-2.3 0-4.6-1.4-4.6-4.2 0-4 5.5-4.4 7.7-4.4zm-2.3 6.3c1.9 0 3.2-2 3.2-3.7v-.5h-.6c-1.3 0-4.6.2-4.6 2.3 0 1 .7 1.9 2 1.9zM293.2 82.2h2v-8c0-.4-.2-.6-.6-.6h-1.5V71h3.6c1.2 0 1.8.5 1.8 1.7v.8c0 .5-.1.9-.1.9h.1c.6-2 2.3-3.5 4.4-3.5.3 0 .6.1.6.1v3.4s-.4-.1-.8-.1c-2.8 0-4 2.4-4 5v3h2v2.6h-7.4v-2.7zM306.4 73.6h-2.1V71h2.2v-3.8h3.3V71h3.1v2.6h-3.1v5.8c0 2.3 1.8 2.7 2.8 2.7h.6v2.8s-.4.1-1.1.1c-1.9 0-5.7-.6-5.7-5.2v-6.2zM315 82.2h2v-8.1c0-.4-.2-.6-.6-.6h-1.5V71h3.6c1.2 0 1.8.6 1.8 1.5v.6c0 .3-.1.6-.1.6h.1c.7-1.4 2.4-3.1 4.7-3.1 1.9 0 3.3.9 3.8 3h.1c.8-1.6 2.6-3 4.8-3 2.8 0 4.4 1.6 4.4 5.2v6.3h2v2.6h-5.4v-8.2c0-1.6-.3-2.8-1.9-2.8-2.3 0-3.5 2.3-3.5 4.9v3.5h2v2.6h-5.4v-8.2c0-1.5-.2-2.8-1.9-2.8-2.4 0-3.5 2.6-3.5 5V82h2v2.6H315v-2.4zM348.3 70.7c4 0 6.1 2.9 6.1 6.5 0 .4-.1 1.2-.1 1.2h-9.5c.2 2.5 2.1 3.8 4.1 3.8 2.2 0 4-1.5 4-1.5l1.3 2.4s-2.1 1.9-5.6 1.9c-4.6 0-7.4-3.3-7.4-7.2.1-4.1 3-7.1 7.1-7.1zm2.6 5.7c-.1-1.9-1.2-3-2.7-3-1.8 0-3 1.2-3.3 3h6zM356.4 82.2h2v-8c0-.4-.2-.6-.6-.6h-1.5V71h3.6c1.2 0 1.8.6 1.8 1.5v.6c0 .3-.1.6-.1.6h.1c.2-.4 1.6-3.1 5.1-3.1 2.9 0 4.6 1.6 4.6 5.2v6.3h2v2.6H368v-8.2c0-1.7-.5-2.8-2.2-2.8-2.5 0-3.9 2.4-3.9 4.8v3.6h2v2.6h-7.4v-2.5zM376.4 73.6h-2.1V71h2.2v-3.8h3.3V71h3.1v2.6h-3.1v5.8c0 2.3 1.8 2.7 2.8 2.7h.6v2.8s-.4.1-1.1.1c-1.9 0-5.7-.6-5.7-5.2v-6.2zM398.7 70.7c4.2 0 7.6 3 7.6 7.2s-3.4 7.2-7.6 7.2c-4.2 0-7.6-3-7.6-7.2.1-4.2 3.4-7.2 7.6-7.2zm0 11.5c2.2 0 4.1-1.7 4.1-4.3 0-2.5-1.9-4.3-4.1-4.3-2.2 0-4.1 1.8-4.1 4.3 0 2.6 1.9 4.3 4.1 4.3zM408.2 82.2h2v-8.6h-2.1V71h2.1v-.6c0-4.5 3.6-5 5.4-5 .8 0 1.4.1 1.4.1v2.8s-.4-.1-1.1-.1c-.8 0-2.3.2-2.3 2.2v.6h3.1v2.6h-3.1v8.6h2.3v2.6h-7.7v-2.6zM425.1 82.2h2.3V68.5h-2.3v-2.8h8.2v2.8H431V82h5.7v-3h3v5.8h-14.5v-2.6zM448.5 70.7c4.2 0 7.6 3 7.6 7.2s-3.4 7.2-7.6 7.2c-4.2 0-7.6-3-7.6-7.2s3.4-7.2 7.6-7.2zm0 11.5c2.2 0 4.1-1.7 4.1-4.3 0-2.5-1.9-4.3-4.1-4.3-2.2 0-4.1 1.8-4.1 4.3 0 2.6 1.9 4.3 4.1 4.3zM465.1 70.7c2.3 0 5.6.9 5.6 3.3v1.9h-3V75c0-.9-1.4-1.3-2.6-1.3-2.5 0-4 1.7-4 4.2 0 2.8 2 4.4 4.3 4.4 1.9 0 3.5-1.1 4.3-1.7l1.2 2.4c-.9.9-3.1 2.1-5.7 2.1-4 0-7.6-2.7-7.6-7.2.1-4.1 3.2-7.2 7.5-7.2zM480 76.3h.9v-.5c0-1.8-1.1-2.4-2.5-2.4-2.1 0-3.9 1.3-3.9 1.3l-1.3-2.4s2.1-1.7 5.5-1.7c3.7 0 5.7 1.9 5.7 5.4v5.5c0 .4.2.6.6.6h1.2v2.6H483c-1.3 0-1.8-.7-1.8-1.5V83c0-.4.1-.7.1-.7h-.1s-1.2 2.6-4.3 2.6c-2.3 0-4.6-1.4-4.6-4.2 0-4 5.5-4.4 7.7-4.4zm-2.3 6.3c1.9 0 3.2-2 3.2-3.7v-.5h-.6c-1.3 0-4.6.2-4.6 2.3 0 1 .8 1.9 2 1.9zM488.5 68.2h-2.1v-2.6h5.5v14.6c0 1.2.3 1.9 1.4 1.9h.6v2.8s-.6.1-1.2.1c-2.2 0-4.2-.7-4.2-4.5V68.2zM501.4 82.2h1.8l5.7-16.5h4l5.7 16.5h1.8v2.6h-7.2v-2.6h1.9l-1.2-3.6h-6l-1.2 3.6h1.9v2.6h-7.2v-2.6zm11.7-6.4l-1.8-5.4c-.3-.9-.4-1.7-.4-1.7h-.1s-.1.7-.4 1.7l-1.8 5.4h4.5zM521.7 82.2h2v-8.6h-2.1V71h2.1v-.6c0-4.5 3.6-5 5.4-5 .8 0 1.4.1 1.4.1v2.8s-.4-.1-1.1-.1c-.8 0-2.3.2-2.3 2.2v.6h6.3v-.6c0-4.5 3.5-5 5.4-5 .8 0 1.4.1 1.4.1v2.8s-.4-.1-1.1-.1c-.8 0-2.3.2-2.3 2.2v.6h3.1v2.6h-3.1v8.6h2.3v2.6h-7.7v-2.6h2v-8.6h-6.3v8.6h2.3v2.6h-7.7v-2.6zM548.9 76.3h.9v-.5c0-1.8-1.1-2.4-2.5-2.4-2.1 0-3.9 1.3-3.9 1.3l-1.3-2.4s2.1-1.7 5.5-1.7c3.7 0 5.7 1.9 5.7 5.4v5.5c0 .4.2.6.6.6h1.2v2.6h-3.2c-1.3 0-1.8-.7-1.8-1.5V83c0-.4.1-.7.1-.7h-.1s-1.2 2.6-4.3 2.6c-2.3 0-4.6-1.4-4.6-4.2 0-4 5.5-4.4 7.7-4.4zm-2.3 6.3c1.9 0 3.2-2 3.2-3.7v-.5h-.6c-1.3 0-4.6.2-4.6 2.3.1 1 .8 1.9 2 1.9zM556.7 82.2h2v-8.6h-2.1V71h5.6v11.2h2v2.6h-7.4v-2.6zm1.9-16.6h3.5v3.1h-3.5v-3.1zM565.8 82.2h2v-8c0-.4-.2-.6-.6-.6h-1.5V71h3.6c1.2 0 1.8.5 1.8 1.7v.8c0 .5-.1.9-.1.9h.1c.6-2 2.3-3.5 4.4-3.5.3 0 .6.1.6.1v3.4s-.4-.1-.8-.1c-2.8 0-4 2.4-4 5v3h2v2.6h-7.4v-2.7zM577.3 80.2h2.9v.8c0 .9 1.3 1.4 2.7 1.4 1.4 0 2.3-.5 2.3-1.4 0-1.2-1.3-1.5-3.1-2.1-2-.7-4.3-1.6-4.3-4.3 0-2.9 2.9-3.9 5.4-3.9 2 0 5 .8 5 2.9v1.8h-2.9v-.8c0-.7-.8-1.1-2-1.1-1.1 0-2 .4-2 1.2 0 1.1 1.3 1.6 2.9 2.1 2.1.7 4.6 1.5 4.6 4.2 0 2.8-2.6 4.2-5.8 4.2-2.5 0-5.6-1.1-5.6-3.3v-1.7z"/></g><path class="st2" d="M208.2 0h1.3v99h-1.3z"/><g><path class="st3" d="M170.4 25c2.7 0 3.7 1.9 2.4 4.2L138.2 89c-1.3 2.3-3.5 2.3-4.8 0L98.8 29.2c-1.3-2.3-.2-4.2 2.4-4.2h69.2z"/><path class="st4" d="M116.3 59.4l5.9 10.2 12.3-4z"/><path class="st1" d="M123.4 71.7l10 17.3c1.3 2.3 3.5 2.3 4.8 0l16.5-28.6-31.3 11.3z"/><path class="st5" d="M187.6 0H84c-4 0-5.6 2.8-3.6 6.2l51.8 89.7c2 3.4 5.2 3.4 7.2 0l51.8-89.7c1.9-3.4.3-6.2-3.6-6.2m-43.5 78.9l-13.7 4.9-2.8-4.9 20.9-7.5-4.4 7.5zm6.2-10.7l-24 8.6-2.9-5 31.3-11.3-4.4 7.7zm-28.1 1.4l-5.9-10.2 18.3 6.2-12.4 4zm16 19.4c-1.3 2.3-3.5 2.3-4.8 0l-1.8-3.1 10.7-3.8-4.1 6.9zm34.6-59.8l-16.2 28.1-19.5 7-22.6-8.1-15.6-27c-1.3-2.3-.2-4.2 2.4-4.2h69.1c2.6 0 3.7 1.9 2.4 4.2"/><path class="st1" d="M104.9 6.3c0-.2.2-.4.3-.4h4.7c3.7 0 6.8 3 6.8 6.8s-3.1 6.8-6.8 6.8h-4.7c-.2 0-.3-.2-.3-.4V6.3zm4.9 10.3c2.2 0 3.8-1.7 3.8-3.9s-1.6-3.9-3.8-3.9H108v7.8h1.8zM129.2 5.7c3.9 0 7 3.1 7 7s-3.1 6.9-7 6.9-6.9-3.1-6.9-6.9 3-7 6.9-7zm0 10.9c2.1 0 3.9-1.7 3.9-3.8 0-2.1-1.7-3.9-3.9-3.9-2.1 0-3.9 1.8-3.9 3.9 0 2 1.8 3.8 3.9 3.8zM142.6 6.3c0-.2.2-.4.4-.4h2.3c.2 0 .4.2.4.4v10.3h4.6c.2 0 .4.2.4.4v2.1c0 .2-.2.4-.4.4H143c-.2 0-.4-.2-.4-.4V6.3zM155.4 19l6.1-13c.1-.1.2-.2.3-.2h.2c.1 0 .3.1.3.2l6.1 13c.1.3 0 .5-.3.5H166c-.3 0-.5-.1-.7-.5l-.7-1.5h-5.3l-.7 1.5c-.1.2-.3.5-.7.5h-2.1c-.4 0-.5-.3-.4-.5zm7.9-4.2l-1.5-3.2-1.5 3.2h3z"/><g><path class="st1" d="M151 49.8c-1.2-1.4-3.2-2.9-7.5-3.3-4.2-.4-6.7-.3-8.6-.4-2-.2-5-1.4-7-1.3-2 .1-3.1.5-3.6 1.1-.4.6-.3 1.8 1.5 1.8 1.7.1 6.9 1.7 7.6 2.1 0 0-2.4.2-5 .5-2.5.3-3.2.3-4.7-.3s-7.1-2.7-8.6-3c-1.5-.3-2.6.2-2.7 1-.2.8 1.7 2.1 4.4 3.6 2.7 1.6 7.9 4.8 8.6 5s1.7.4 2.4.4 13.3-.8 14.6-.8c1.3 0 1.9-.1 2.7.8.2.2.9.9 1.8 1.9l8.6-3.1.9-1.5c-2.2-1.7-4.7-3.7-5.4-4.5zM137.2 32.4h-4.3v-3.6c.3 0 .7.1 1 .3.6.4.7.4 1 .4V28c-.3 0-.5 0-1-.4-.6-.4-1.5-.2-1.5-.2v5h-4.3v2.2h9.1v-2.2zM128.1 44.1c1.1 0 2.4.3 3.8.6h2.9v.4h-1.3c.6.1 1.1.2 1.6.3.7.1 1.5.1 2.5.1.6 0 1.2 0 1.9.1v-2.2h-1.3v-7.6h.4c.1 0 .2-.1.2-.3s-.1-.3-.2-.3H126.9c-.1 0-.2.1-.2.3s.1.3.2.3h.4v7.6H126v1c.5-.1 1.2-.2 1.9-.2l.2-.1zm6.6.3h-4V44h4v.4zm0-6.9h1.5v4.1h-1.5v-4.1zm0 6.2h-4v-.4h4v.4zm-2.8-6.2h1.5v4.1h-1.5v-4.1zm-2.8 0h1.5v4.1h-1.5v-4.1z"/><path class="st1" d="M141 45.6h2.3v.2h.6v-3.4h2.3v3.7c.2.1.4.1.6.2v-.9h2.3v1.8c.3.2.5.3.8.5V32.8h-9.7v12.8c.3 0 .6.1.8 0zm5.9-12h2.3v2.3h-2.3v-2.3zm0 3h2.3v2.3h-2.3v-2.3zm0 3h2.3v2.3h-2.3v-2.3zm0 3h2.3v2.3h-2.3v-2.3zm-3-9h2.3v2.3h-2.3v-2.3zm0 3h2.3v2.3h-2.3v-2.3zm0 3h2.3v2.3h-2.3v-2.3zm-2.9-6h2.3v2.3H141v-2.3zm0 3h2.3v2.3H141v-2.3zm0 3h2.3v2.3H141v-2.3zm0 3h2.3v2.3H141v-2.3z"/><g><path class="st1" d="M125 40.5h1.1l-3.1-2.1v-1.7h-1.4v.8l-1.4-.9-6 3.9h1.1zM116.6 46.7h2.2v-4.1h2.6v4.1h2c0-.4.1-.8.3-1.2.3-.4.7-.7 1.3-.9V41h-9.8v5.3c.4.1.9.3 1.4.4zm5.8-4.1h1.7v1.7h-1.7v-1.7zm-6.1 0h1.7v1.7h-1.7v-1.7z"/></g></g></g></g></svg>