<svg id="dpa_logos" xmlns="http://www.w3.org/2000/svg" width="557" height="99.4" viewBox="0 0 557 99.4"><style>.st0{fill:#00953a}.st1{fill:#fff}.st2{fill:#2f6eb6}.st3{fill:#f7d44a}.st4{fill:#4e5758}.st5{fill:#5c6670}</style><path class="st0" d="M4.5 99.1c-4 0-5.6-2.8-3.6-6.3l52-90.1c2-3.5 5.3-3.5 7.3 0l52 90.1c2 3.5.4 6.3-3.6 6.3H4.5z"/><path class="st1" d="M39.6 37c-.5.9-.2 1.2.7.7l6.1-3.1c.9-.5 2-.1 2.4.8l4.1 8.9c.4.9 1.2.9 1.7.1l7.3-11.9c.5-.8 1.6-1 2.3-.4L75.7 42c.8.6 1 .5.5-.4L57.4 8.9c-.5-.9-1.3-.9-1.8 0L39.6 37zM54.2 63.4l.2-.2c0-.1-.1-.3-.1-.3-2.8-3.7-7.3-6-12.2-6-8.6 0-15.5 7-15.5 15.5s7 15.5 15.5 15.5c4.7 0 8.9-2.1 11.7-5.4l.1-.1c.4-.5-.1-.8-.1-.8L48 78.3s-.5-.3-.9.1l-.1.1c-1.3 1.1-3 1.7-4.9 1.7-4.3 0-7.8-3.5-7.8-7.8s3.5-7.8 7.8-7.8c2.1 0 4 .8 5.4 2.2.4.3.7.1.7.1l6-3.5M71.8 64.6c4.3 0 7.8 3.5 7.8 7.8s-3.5 7.8-7.8 7.8-7.8-3.5-7.8-7.8c.1-4.3 3.6-7.8 7.8-7.8m0 23.3c8.6 0 15.5-7 15.5-15.5 0-8.6-7-15.5-15.5-15.5-8.6 0-15.5 7-15.5 15.5s7 15.5 15.5 15.5"/><path class="st0" d="M117.7 95h-1.1c-.1 0-.1-.1-.1-.1v-.6c0-.1.1-.1.1-.1h3c.1 0 .1.1.1.1v.6c0 .1-.1.1-.1.1h-1.1v3.9c0 .1-.1.1-.1.1h-.6c-.1 0-.1-.1-.1-.1V95zM121.7 94.2c0-.1 0-.1.1-.1h.1c.1 0 .1 0 .1.1l1.5 3.3 1.5-3.3.1-.1h.1c.1 0 .1 0 .1.1l.8 4.7c0 .1 0 .2-.1.2h-.6c-.1 0-.1-.1-.1-.1l-.4-2.6-1.2 2.7-.1.1h-.1c-.1 0-.1 0-.1-.1l-1.2-2.7-.4 2.6-.1.1h-.7c-.1 0-.1-.1-.1-.2l.8-4.7z"/><g><path class="st2" d="M170.8 25.3c2.7 0 3.8 1.9 2.4 4.2l-34.7 60.2c-1.3 2.3-3.5 2.3-4.8 0L98.9 29.4c-1.3-2.3-.2-4.2 2.4-4.2h69.5z"/><path class="st3" d="M116.5 59.8l5.9 10.3 12.4-4z"/><path class="st1" d="M147 56.1c-.1 0-.1-.1-.1-.1v-1.4c0-.1-.1-.1-.1-.1h-20.2c-.1 0-.1.1-.1.1V56c0 .1-.1.1-.1.1h-.4c-.1 0-.1.1-.1.1V58c0 .1.1.1.1.2l11.4 3.7h.2l9.8-3.4c.1 0 .1-.1.1-.2v-2.1c0-.1-.1-.1-.1-.1h-.4zM145.1 46.3c.3 0 .6-.3.6-.6s-.3-.6-.6-.6h-16.6c-.3 0-.6.3-.6.6s.3.6.6.6h.5V52h-.8c-.3 0-.6.3-.6.6s.3.6.6.6h16.6c.3 0 .6-.3.6-.6s-.3-.6-.6-.6h-.2v-5.7h.5zm-7.6 0h2.4V52h-2.4v-5.7zm-1.2 5.7h-2.4v-5.7h2.4V52zm-6-5.7h2.4V52h-2.4v-5.7zm13.1 5.7H141v-5.7h2.3V52zM144.3 42.1h-.5c-.4-4-2.6-7.3-5.5-8.2v-1.6c.3-.1.5-.3.5-.6s-.3-.6-.6-.6h-.1c0-.8-.5-1.5-1-1.7l-.1-1.5c0-.3 0-.4-.3-.4-.2 0-.2.2-.3.4l-.1 1.5c-.6.2-1 .9-1 1.7h-.1c-.3 0-.6.3-.6.6s.2.5.4.6v1.6c-2.9.9-5.1 4.1-5.5 8.2h-.5c-.2 0-.4.2-.4.4v1c0 .2.2.4.4.4h15.3c.2 0 .4-.2.4-.4v-1c0-.3-.2-.4-.4-.4M123.6 72.2l10 17.4c1.3 2.3 3.5 2.3 4.8 0L155 60.8l-31.4 11.4z"/><path class="st4" d="M188.1.1H84c-4 0-5.6 2.8-3.6 6.3l52 90.1c2 3.5 5.3 3.5 7.3 0l52-90.1c2-3.5.4-6.3-3.6-6.3m-43.7 79.3l-13.8 4.9-2.9-4.9 21-7.5-4.3 7.5zm6.2-10.8l-24.1 8.6-2.9-5.1 31.5-11.3-4.5 7.8zm-28.2 1.5l-5.9-10.3 18.4 6.2-12.5 4.1zm16.1 19.5c-1.3 2.3-3.5 2.3-4.8 0l-1.8-3.2 10.7-3.8-4.1 7zm34.8-60.2L157 57.7l-19.6 7-22.8-8.1-15.7-27.2c-1.3-2.3-.2-4.2 2.4-4.2h69.5c2.7.1 3.8 1.9 2.5 4.2"/><path class="st1" d="M113.7 6.5c0-.2.2-.4.3-.4h4.7a6.7 6.7 0 0 1 0 13.4H114c-.2 0-.3-.2-.3-.4V6.5zm4.8 10.2c2.2 0 3.7-1.7 3.7-3.9s-1.6-3.9-3.7-3.9h-1.8v7.8h1.8zM133 6.5c0-.2.2-.4.4-.4h4.6c2.4 0 4.3 1.9 4.3 4.2 0 2.4-1.9 4.3-4.3 4.3h-2v4.5c0 .2-.2.4-.4.4h-2.3c-.2 0-.4-.2-.4-.4V6.5zm4.8 5.4c.8 0 1.5-.7 1.5-1.5s-.7-1.4-1.5-1.4H136v2.9h1.8zM147 19l6-12.9c.1-.1.2-.2.3-.2h.2c.1 0 .3.1.3.2l6 12.9c.1.2 0 .5-.3.5h-2.1c-.3 0-.5-.1-.7-.5l-.7-1.5h-5.2l-.7 1.5c-.1.2-.3.5-.7.5h-2.1c-.3 0-.5-.2-.3-.5m7.8-4.1l-1.5-3.2-1.4 3.2h2.9z"/></g><g><path class="st5" d="M240 6c1.9 0 3.9.7 5.4 2 .3.3.7.3 1 0l3.1-3.2c.3-.3.3-.8 0-1.1-2.7-2.5-5.6-3.7-9.6-3.7-8 0-14.4 6.4-14.4 14.4s6.4 14.3 14.4 14.3c3.5 0 7-1.2 9.7-3.9.3-.3.3-.8 0-1.1l-3.1-3.3c-.2-.3-.8-.3-1 0-1.4 1.2-3.5 1.9-5.3 1.9-4.5 0-7.8-3.7-7.8-8.1-.2-4.5 3.1-8.2 7.6-8.2M275.2 0c-8 0-14.3 6.4-14.3 14.4s6.3 14.3 14.3 14.3 14.3-6.3 14.3-14.3S283.1 0 275.2 0m0 22.3c-4.3 0-7.9-3.6-7.9-7.9 0-4.4 3.6-8 7.9-8 4.4 0 8 3.6 8 8-.1 4.3-3.6 7.9-8 7.9M318.6 22.4H309V1.2c0-.4-.4-.8-.8-.8h-4.7c-.4 0-.8.4-.8.8v26.3c0 .4.3.8.8.8h15.1c.4 0 .8-.4.8-.8v-4.3c0-.5-.4-.8-.8-.8M344.6 0c-8 0-14.3 6.4-14.3 14.4s6.3 14.3 14.3 14.3 14.3-6.3 14.3-14.3S352.5 0 344.6 0m0 22.3c-4.3 0-7.9-3.6-7.9-7.9 0-4.4 3.6-8 7.9-8 4.4 0 8 3.6 8 8-.1 4.3-3.6 7.9-8 7.9M388.4 17c3.5-1.4 5.9-4.3 5.9-8 0-4.7-3.9-8.6-8.7-8.6h-11.9c-.4 0-.8.4-.8.8v26.3c0 .4.3.8.8.8h4.7c.4 0 .8-.4.8-.8V17.3h2.7l5.7 10.5c.1.2.3.4.6.4h5.3c.7 0 1-.6.7-1.1L388.4 17zm-3.3-4.7h-5.9V6.1h5.9c1.6 0 3 1.4 3 3 0 1.7-1.4 3.2-3 3.2M458.5.4h-9.7c-.4 0-.7.4-.7.8v26.3c0 .4.3.8.7.8h9.7c7.7 0 14-6.2 14-14-.1-7.7-6.4-13.9-14-13.9m-.4 21.9h-3.8V6.2h3.8c4.5 0 7.8 3.5 7.8 8-.1 4.6-3.4 8.1-7.8 8.1M499.1 0c-8 0-14.3 6.4-14.3 14.4s6.3 14.3 14.3 14.3c7.9 0 14.3-6.3 14.3-14.3.1-8-6.3-14.4-14.3-14.4m0 22.3c-4.3 0-7.9-3.6-7.9-7.9 0-4.4 3.6-8 7.9-8 4.4 0 7.9 3.6 7.9 8 .1 4.3-3.5 7.9-7.9 7.9M421.8.4c-.1-.2-.4-.4-.7-.4h-.4c-.3 0-.6.2-.7.4l-12.4 26.8c-.2.5.1 1 .7 1h4.4c.8 0 1.2-.2 1.4-1l1.4-3.2h10.8l1.4 3.1c.4.9.6 1 1.4 1h4.4c.6 0 .9-.5.7-1L421.8.4zm-4.6 19l3.6-8.3 3.7 8.3h-7.3z"/></g><g><path class="st5" d="M225.5 67.4h2.3V53.6h-2.3v-2.7h8.3c1.5 0 2.8.1 4 .5 3.7 1.1 6.2 4.4 6.2 9.1 0 4.5-2.3 7.8-5.9 9-1.3.5-2.6.6-4.2.6h-8.3v-2.7zm8.1-.1c1.2 0 2.2-.1 3.1-.5 2.2-.9 3.6-3.1 3.6-6.3 0-3.2-1.5-5.5-3.7-6.3-1-.4-1.9-.4-3-.4h-2.3v13.5h2.3zM252.9 56c4 0 6.1 2.9 6.1 6.5 0 .4-.1 1.2-.1 1.2h-9.5c.2 2.5 2.1 3.8 4.1 3.8 2.2 0 4-1.5 4-1.5l1.3 2.4s-2.1 1.9-5.6 1.9c-4.6 0-7.4-3.3-7.4-7.2.1-4.1 2.9-7.1 7.1-7.1zm2.6 5.7c-.1-1.9-1.2-3-2.7-3-1.8 0-3 1.2-3.3 3h6zM262.6 72.9V59.5c0-.4-.2-.6-.6-.6h-1.5v-2.6h3.5c1.3 0 1.7.6 1.7 1.3v.7h.1s1.2-2.3 4.4-2.3c3.7 0 6.1 2.9 6.1 7.2 0 4.4-2.7 7.2-6.3 7.2-2.7 0-4-1.9-4-1.9s.1.5.1 1.2V73h2v2.6h-7.4V73h1.9zm6.8-5.4c1.9 0 3.5-1.5 3.5-4.3 0-2.6-1.4-4.3-3.4-4.3-1.8 0-3.5 1.3-3.5 4.3 0 2.2 1.1 4.3 3.4 4.3zM285.5 61.6h.9v-.5c0-1.8-1.1-2.4-2.5-2.4-2.1 0-3.9 1.3-3.9 1.3l-1.3-2.4s2.1-1.7 5.5-1.7c3.7 0 5.7 1.9 5.7 5.4v5.5c0 .4.2.6.6.6h1.2V70h-3.2c-1.3 0-1.8-.7-1.8-1.5v-.2c0-.4.1-.7.1-.7h-.1s-1.2 2.6-4.3 2.6c-2.3 0-4.6-1.4-4.6-4.2 0-4 5.5-4.4 7.7-4.4zm-2.3 6.3c1.9 0 3.2-2 3.2-3.7v-.5h-.6c-1.3 0-4.6.2-4.6 2.3 0 1 .7 1.9 2 1.9zM293.2 67.5h2v-8c0-.4-.2-.6-.6-.6h-1.5v-2.6h3.6c1.2 0 1.8.5 1.8 1.7v.8c0 .5-.1.9-.1.9h.1c.6-2 2.3-3.5 4.4-3.5.3 0 .6.1.6.1v3.4s-.4-.1-.8-.1c-2.8 0-4 2.4-4 5v3h2v2.6h-7.4v-2.7zM306.4 58.9h-2.1v-2.6h2.2v-3.8h3.3v3.8h3.1v2.6h-3.1v5.8c0 2.3 1.8 2.7 2.8 2.7h.6v2.8s-.4.1-1.1.1c-1.9 0-5.7-.6-5.7-5.2v-6.2zM315 67.5h2v-8.1c0-.4-.2-.6-.6-.6h-1.5v-2.6h3.6c1.2 0 1.8.6 1.8 1.5v.6c0 .3-.1.6-.1.6h.1c.7-1.4 2.4-3.1 4.7-3.1 1.9 0 3.3.9 3.8 3h.1c.8-1.6 2.6-3 4.8-3 2.8 0 4.4 1.6 4.4 5.2v6.3h2v2.6h-5.4v-8.2c0-1.6-.3-2.8-1.9-2.8-2.3 0-3.5 2.3-3.5 4.9v3.5h2v2.6h-5.4v-8.2c0-1.5-.2-2.8-1.9-2.8-2.4 0-3.5 2.6-3.5 5v3.3h2v2.6H315v-2.3zM348.3 56c4 0 6.1 2.9 6.1 6.5 0 .4-.1 1.2-.1 1.2h-9.5c.2 2.5 2.1 3.8 4.1 3.8 2.2 0 4-1.5 4-1.5l1.3 2.4s-2.1 1.9-5.6 1.9c-4.6 0-7.4-3.3-7.4-7.2.1-4.1 3-7.1 7.1-7.1zm2.6 5.7c-.1-1.9-1.2-3-2.7-3-1.8 0-3 1.2-3.3 3h6zM356.4 67.5h2v-8c0-.4-.2-.6-.6-.6h-1.5v-2.6h3.6c1.2 0 1.8.6 1.8 1.5v.6c0 .3-.1.6-.1.6h.1c.2-.4 1.6-3.1 5.1-3.1 2.9 0 4.6 1.6 4.6 5.2v6.3h2V70H368v-8.2c0-1.7-.5-2.8-2.2-2.8-2.5 0-3.9 2.4-3.9 4.8v3.6h2V70h-7.4v-2.5zM376.4 58.9h-2.1v-2.6h2.2v-3.8h3.3v3.8h3.1v2.6h-3.1v5.8c0 2.3 1.8 2.7 2.8 2.7h.6v2.8s-.4.1-1.1.1c-1.9 0-5.7-.6-5.7-5.2v-6.2zM398.7 56c4.2 0 7.6 3 7.6 7.2s-3.4 7.2-7.6 7.2c-4.2 0-7.6-3-7.6-7.2.1-4.2 3.4-7.2 7.6-7.2zm0 11.5c2.2 0 4.1-1.7 4.1-4.3 0-2.5-1.9-4.3-4.1-4.3-2.2 0-4.1 1.8-4.1 4.3 0 2.6 1.9 4.3 4.1 4.3zM408.2 67.5h2v-8.6h-2.1v-2.6h2.1v-.6c0-4.5 3.6-5 5.4-5 .8 0 1.4.1 1.4.1v2.8s-.4-.1-1.1-.1c-.8 0-2.3.2-2.3 2.2v.7h3.1V59h-3.1v8.6h2.3v2.6h-7.7v-2.7zM425.1 67.4h2.3V53.6h-2.3v-2.7h9.2c1.1 0 2.3.1 3.2.5 2.1.9 3.4 3 3.4 5.7s-1.4 5-3.6 5.8c-.9.3-1.9.4-2.9.4H431v4.2h2.3v2.6h-8.2v-2.7zm8.8-6.9c.8 0 1.4-.1 1.9-.4 1-.5 1.6-1.6 1.6-3 0-1.3-.5-2.3-1.4-2.9-.5-.3-1.2-.5-2.1-.5h-3v6.7h3zM449.3 56c4 0 6.1 2.9 6.1 6.5 0 .4-.1 1.2-.1 1.2h-9.5c.2 2.5 2.1 3.8 4.1 3.8 2.2 0 4-1.5 4-1.5l1.3 2.4s-2.1 1.9-5.6 1.9c-4.6 0-7.4-3.3-7.4-7.2.1-4.1 3-7.1 7.1-7.1zm2.6 5.7c-.1-1.9-1.2-3-2.7-3-1.8 0-3 1.2-3.3 3h6zM457.4 67.5h2v-8c0-.4-.2-.6-.6-.6h-1.5v-2.6h3.6c1.2 0 1.8.5 1.8 1.7v.8c0 .5-.1.9-.1.9h.1c.6-2 2.3-3.5 4.4-3.5.3 0 .6.1.6.1v3.4s-.4-.1-.8-.1c-2.8 0-4 2.4-4 5v3h2v2.6h-7.4v-2.7zM468.8 65.5h2.9v.8c0 .9 1.3 1.4 2.7 1.4 1.4 0 2.3-.5 2.3-1.4 0-1.2-1.3-1.5-3.1-2.1-2-.7-4.3-1.6-4.3-4.3 0-2.9 2.9-3.9 5.4-3.9 2 0 5 .8 5 2.9v1.8h-2.9v-.8c0-.7-.8-1.1-2-1.1-1.1 0-2 .4-2 1.2 0 1.1 1.3 1.6 2.9 2.1 2.1.7 4.6 1.5 4.6 4.2 0 2.8-2.6 4.2-5.8 4.2-2.5 0-5.6-1.1-5.6-3.3v-1.7zM489.4 56c4.2 0 7.6 3 7.6 7.2s-3.4 7.2-7.6 7.2c-4.2 0-7.6-3-7.6-7.2s3.4-7.2 7.6-7.2zm0 11.5c2.2 0 4.1-1.7 4.1-4.3 0-2.5-1.9-4.3-4.1-4.3-2.2 0-4.1 1.8-4.1 4.3 0 2.6 1.9 4.3 4.1 4.3zM498.9 67.5h2v-8c0-.4-.2-.6-.6-.6h-1.5v-2.6h3.6c1.2 0 1.8.6 1.8 1.5v.6c0 .3-.1.6-.1.6h.1c.2-.4 1.6-3.1 5.1-3.1 2.9 0 4.6 1.6 4.6 5.2v6.3h2V70h-5.4v-8.2c0-1.7-.5-2.8-2.2-2.8-2.5 0-3.9 2.4-3.9 4.8v3.6h2V70H499v-2.5zM517.4 67.5h2v-8c0-.4-.2-.6-.6-.6h-1.5v-2.6h3.6c1.2 0 1.8.6 1.8 1.5v.6c0 .3-.1.6-.1.6h.1c.2-.4 1.6-3.1 5.1-3.1 2.9 0 4.6 1.6 4.6 5.2v6.3h2V70H529v-8.2c0-1.7-.5-2.8-2.2-2.8-2.5 0-3.9 2.4-3.9 4.8v3.6h2V70h-7.4v-2.5zM542.7 56c4 0 6.1 2.9 6.1 6.5 0 .4-.1 1.2-.1 1.2h-9.5c.2 2.5 2.1 3.8 4.1 3.8 2.2 0 4-1.5 4-1.5l1.3 2.4s-2.1 1.9-5.6 1.9c-4.6 0-7.4-3.3-7.4-7.2.1-4.1 2.9-7.1 7.1-7.1zm2.6 5.7c-.1-1.9-1.2-3-2.7-3-1.8 0-3 1.2-3.3 3h6zM551.6 53.5h-2.1v-2.6h5.5v14.6c0 1.2.3 1.9 1.4 1.9h.6v2.8s-.6.1-1.2.1c-2.2 0-4.2-.7-4.2-4.5V53.5zM228.7 88.9c0-.1-2.6-1-2.6-4.2 0-3.4 2.9-5 6.3-5 1.3 0 2.5.3 2.5.3l-.8 2.8s-.7-.2-1.3-.2c-1.8 0-3.2.9-3.2 2.5 0 1.2.6 2.7 2.9 2.7h3.6v-2.6h3.4v2.6h2.5v2.8h-2.5V93c0 3.9-2.7 6.5-7.1 6.5-4.3 0-7.1-2.5-7.1-5.7 0-2.2 1.3-4.2 3.4-4.9zm3.7 7.4c2.2 0 3.7-1.2 3.7-3.6v-2.2h-3.8c-2.1 0-3.5 1-3.5 2.9 0 1.7 1.4 2.9 3.6 2.9zM249.1 96.4h1.8l5.7-16.5h4l5.7 16.5h1.8V99h-7.2v-2.6h1.9l-1.2-3.6h-6l-1.2 3.6h1.9V99h-7.2v-2.6zm11.7-6.3l-1.8-5.4c-.3-.9-.4-1.7-.4-1.7h-.1s-.1.7-.4 1.7l-1.8 5.4h4.5zM275.5 85c2.9 0 4 1.9 4 1.9h.1s-.1-.4-.1-1v-3.5h-2.1v-2.6h5.5v16c0 .4.2.6.6.6h1.2V99h-3.2c-1.2 0-1.8-.7-1.8-1.5v-.2c0-.4.1-.6.1-.6h-.1s-1.1 2.6-4.5 2.6c-3.7 0-6-2.9-6-7.2 0-4.3 2.5-7.1 6.3-7.1zm.5 11.5c1.8 0 3.5-1.3 3.5-4.2 0-2.2-1.1-4.3-3.4-4.3-1.9 0-3.5 1.5-3.5 4.3 0 2.5 1.4 4.2 3.4 4.2zM286.5 96.5h2v-8.1c0-.4-.2-.6-.6-.6h-1.5v-2.6h3.6c1.2 0 1.8.6 1.8 1.5v.6c0 .3-.1.6-.1.6h.1c.7-1.4 2.4-3.1 4.7-3.1 1.9 0 3.3.9 3.8 3h.1c.8-1.6 2.6-3 4.8-3 2.8 0 4.4 1.6 4.4 5.2v6.3h2v2.6h-5.4v-8.2c0-1.6-.3-2.8-1.9-2.8-2.3 0-3.5 2.3-3.5 4.9v3.5h2v2.6h-5.4v-8.2c0-1.5-.2-2.8-1.9-2.8-2.4 0-3.5 2.6-3.5 5v3.3h2v2.6h-7.4v-2.3zM313.1 96.5h2v-8.6H313v-2.6h5.6v11.2h2v2.6h-7.4v-2.6zm2-16.6h3.5V83h-3.5v-3.1zM322.3 96.5h2v-8c0-.4-.2-.6-.6-.6h-1.5v-2.6h3.6c1.2 0 1.8.6 1.8 1.5v.6c0 .3-.1.6-.1.6h.1c.2-.4 1.6-3.1 5.1-3.1 2.9 0 4.6 1.6 4.6 5.2v6.3h2V99h-5.4v-8.2c0-1.7-.5-2.8-2.2-2.8-2.5 0-3.9 2.4-3.9 4.8v3.6h2V99h-7.4v-2.5zM340.9 96.5h2v-8.6h-2.1v-2.6h5.6v11.2h2v2.6H341v-2.6zm1.9-16.6h3.5V83h-3.5v-3.1zM349.7 94.5h2.9v.8c0 .9 1.3 1.4 2.7 1.4 1.4 0 2.3-.5 2.3-1.4 0-1.2-1.3-1.5-3.1-2.1-2-.7-4.3-1.6-4.3-4.3 0-2.9 2.9-3.9 5.4-3.9 2 0 5 .8 5 2.9v1.8h-2.9v-.8c0-.7-.8-1.1-2-1.1-1.1 0-2 .4-2 1.2 0 1.1 1.3 1.6 2.9 2.1 2.1.7 4.6 1.5 4.6 4.2 0 2.8-2.6 4.2-5.8 4.2-2.5 0-5.6-1.1-5.6-3.3v-1.7zM364.5 87.9h-2.1v-2.6h2.2v-3.8h3.3v3.8h3.1v2.6h-3.1v5.8c0 2.3 1.8 2.7 2.8 2.7h.6v2.8s-.4.1-1.1.1c-1.9 0-5.7-.6-5.7-5.2v-6.2zM373.1 96.5h2v-8c0-.4-.2-.6-.6-.6H373v-2.6h3.6c1.2 0 1.8.5 1.8 1.7v.8c0 .5-.1.9-.1.9h.1c.6-2 2.3-3.5 4.4-3.5.3 0 .6.1.6.1v3.4s-.4-.1-.8-.1c-2.8 0-4 2.4-4 5v3h2v2.6h-7.4v-2.7zM392.1 90.6h.9v-.5c0-1.8-1.1-2.4-2.5-2.4-2.1 0-3.9 1.3-3.9 1.3l-1.3-2.4s2.1-1.7 5.5-1.7c3.7 0 5.7 1.9 5.7 5.4v5.5c0 .4.2.6.6.6h1.2V99H395c-1.3 0-1.8-.7-1.8-1.5v-.2c0-.4.1-.7.1-.7h-.1s-1.2 2.6-4.3 2.6c-2.3 0-4.6-1.4-4.6-4.2.1-4 5.6-4.4 7.8-4.4zm-2.3 6.3c1.9 0 3.2-2 3.2-3.7v-.5h-.6c-1.3 0-4.6.2-4.6 2.3 0 1 .7 1.9 2 1.9zM401.2 87.9h-2.1v-2.6h2.2v-3.8h3.3v3.8h3.1v2.6h-3.1v5.8c0 2.3 1.8 2.7 2.8 2.7h.6v2.8s-.4.1-1.1.1c-1.9 0-5.7-.6-5.7-5.2v-6.2zM409.8 96.5h2v-8.6h-2.1v-2.6h5.6v11.2h2v2.6h-7.4v-2.6zm2-16.6h3.5V83h-3.5v-3.1zM426.3 85c4.2 0 7.6 3 7.6 7.2s-3.4 7.2-7.6 7.2c-4.2 0-7.6-3-7.6-7.2s3.4-7.2 7.6-7.2zm0 11.5c2.2 0 4.1-1.7 4.1-4.3 0-2.5-1.9-4.3-4.1-4.3-2.2 0-4.1 1.8-4.1 4.3 0 2.6 1.8 4.3 4.1 4.3zM435.7 96.5h2v-8c0-.4-.2-.6-.6-.6h-1.5v-2.6h3.6c1.2 0 1.8.6 1.8 1.5v.6c0 .3-.1.6-.1.6h.1c.2-.4 1.6-3.1 5.1-3.1 2.9 0 4.6 1.6 4.6 5.2v6.3h2V99h-5.4v-8.2c0-1.7-.5-2.8-2.2-2.8-2.5 0-3.9 2.4-3.9 4.8v3.6h2V99h-7.4v-2.5z"/></g><path class="st5" d="M208.3.1h1.3v99h-1.3z"/></svg>