<svg xmlns="http://www.w3.org/2000/svg" width="579.6" height="104.8" viewBox="0 0 579.6 104.8"><style>.st0{fill:#039547}.st1{fill:#fff}.st2{fill:#5d6670}.st3{fill:#00a6ce}.st4{fill:#814c9e}.st5{fill:#4f5858}</style><g id="width_guide"><path class="st0" d="M4.5 99.1c-4 0-5.6-2.8-3.6-6.3l52-90.1c2-3.5 5.3-3.5 7.3 0l52 90.1c2 3.5.4 6.3-3.6 6.3H4.5z"/><path class="st1" d="M39.6 37c-.5.9-.2 1.2.7.7l6.1-3.1c.9-.5 2-.1 2.4.8l4.1 8.9c.4.9 1.2.9 1.7.1l7.3-11.9c.5-.8 1.6-1 2.3-.4L75.7 42c.8.6 1 .5.5-.4L57.4 8.9c-.5-.9-1.3-.9-1.8 0L39.6 37zM54.2 63.4l.2-.2c0-.1-.1-.3-.1-.3-2.8-3.7-7.3-6-12.2-6-8.6 0-15.5 7-15.5 15.5s7 15.5 15.5 15.5c4.7 0 8.9-2.1 11.7-5.4l.1-.1c.4-.5-.1-.8-.1-.8L48 78.3s-.5-.3-.9.1l-.1.1c-1.3 1.1-3 1.7-4.9 1.7-4.3 0-7.8-3.5-7.8-7.8s3.5-7.8 7.8-7.8c2.1 0 4 .8 5.4 2.2.4.3.7.1.7.1l6-3.5M71.8 64.6c4.3 0 7.8 3.5 7.8 7.8s-3.5 7.8-7.8 7.8-7.8-3.5-7.8-7.8c.1-4.3 3.6-7.8 7.8-7.8m0 23.3c8.6 0 15.5-7 15.5-15.5 0-8.6-7-15.5-15.5-15.5-8.6 0-15.5 7-15.5 15.5s7 15.5 15.5 15.5"/><path class="st0" d="M117.7 95h-1.1c-.1 0-.1-.1-.1-.1v-.6c0-.1.1-.1.1-.1h3c.1 0 .1.1.1.1v.6c0 .1-.1.1-.1.1h-1.1v3.9c0 .1-.1.1-.1.1h-.6c-.1 0-.1-.1-.1-.1V95zM121.7 94.2c0-.1 0-.1.1-.1h.1c.1 0 .1 0 .1.1l1.5 3.3 1.5-3.3.1-.1h.1c.1 0 .1 0 .1.1l.8 4.7c0 .1 0 .2-.1.2h-.6c-.1 0-.1-.1-.1-.1l-.4-2.6-1.2 2.7-.1.1h-.1c-.1 0-.1 0-.1-.1l-1.2-2.7-.4 2.6-.1.1h-.7c-.1 0-.1-.1-.1-.2l.8-4.7z"/><g><path class="st2" d="M240 6c1.9 0 3.9.7 5.4 2 .3.3.7.3 1 0l3.1-3.2c.3-.3.3-.8 0-1.1-2.7-2.5-5.6-3.7-9.6-3.7-8 0-14.4 6.4-14.4 14.4s6.4 14.3 14.4 14.3c3.5 0 7-1.2 9.7-3.9.3-.3.3-.8 0-1.1l-3.1-3.3c-.2-.3-.8-.3-1 0-1.4 1.2-3.5 1.9-5.3 1.9-4.5 0-7.8-3.7-7.8-8.1-.2-4.5 3.1-8.2 7.6-8.2M275.2 0c-8 0-14.3 6.4-14.3 14.4s6.3 14.3 14.3 14.3 14.3-6.3 14.3-14.3S283.1 0 275.2 0m0 22.3c-4.3 0-7.9-3.6-7.9-7.9 0-4.4 3.6-8 7.9-8 4.4 0 8 3.6 8 8-.1 4.3-3.6 7.9-8 7.9M318.6 22.4H309V1.2c0-.4-.4-.8-.8-.8h-4.7c-.4 0-.8.4-.8.8v26.3c0 .4.3.8.8.8h15.1c.4 0 .8-.4.8-.8v-4.3c0-.5-.4-.8-.8-.8M344.6 0c-8 0-14.3 6.4-14.3 14.4s6.3 14.3 14.3 14.3 14.3-6.3 14.3-14.3S352.5 0 344.6 0m0 22.3c-4.3 0-7.9-3.6-7.9-7.9 0-4.4 3.6-8 7.9-8 4.4 0 8 3.6 8 8-.1 4.3-3.6 7.9-8 7.9M388.4 17c3.5-1.4 5.9-4.3 5.9-8 0-4.7-3.9-8.6-8.7-8.6h-11.9c-.4 0-.8.4-.8.8v26.3c0 .4.3.8.8.8h4.7c.4 0 .8-.4.8-.8V17.3h2.7l5.7 10.5c.1.2.3.4.6.4h5.3c.7 0 1-.6.7-1.1L388.4 17zm-3.3-4.7h-5.9V6.1h5.9c1.6 0 3 1.4 3 3 0 1.7-1.4 3.2-3 3.2M458.5.4h-9.7c-.4 0-.7.4-.7.8v26.3c0 .4.3.8.7.8h9.7c7.7 0 14-6.2 14-14-.1-7.7-6.4-13.9-14-13.9m-.4 21.9h-3.8V6.2h3.8c4.5 0 7.8 3.5 7.8 8-.1 4.6-3.4 8.1-7.8 8.1M499.1 0c-8 0-14.3 6.4-14.3 14.4s6.3 14.3 14.3 14.3c7.9 0 14.3-6.3 14.3-14.3.1-8-6.3-14.4-14.3-14.4m0 22.3c-4.3 0-7.9-3.6-7.9-7.9 0-4.4 3.6-8 7.9-8 4.4 0 7.9 3.6 7.9 8 .1 4.3-3.5 7.9-7.9 7.9M421.8.4c-.1-.2-.4-.4-.7-.4h-.4c-.3 0-.6.2-.7.4l-12.4 26.8c-.2.5.1 1 .7 1h4.4c.8 0 1.2-.2 1.4-1l1.4-3.2h10.8l1.4 3.1c.4.9.6 1 1.4 1h4.4c.6 0 .9-.5.7-1L421.8.4zm-4.6 19l3.6-8.3 3.7 8.3h-7.3z"/></g><g><path class="st2" d="M225.5 67.4h2.3V53.6h-2.3v-2.7h8.3c1.5 0 2.8.1 4 .5 3.7 1.1 6.2 4.4 6.2 9.1 0 4.5-2.3 7.8-5.9 9-1.3.5-2.6.6-4.2.6h-8.3v-2.7zm8.1-.1c1.2 0 2.2-.1 3.1-.5 2.2-.9 3.6-3.1 3.6-6.3 0-3.2-1.5-5.5-3.7-6.3-1-.4-1.9-.4-3-.4h-2.3v13.5h2.3zM252.9 56c4 0 6.1 2.9 6.1 6.5 0 .4-.1 1.2-.1 1.2h-9.5c.2 2.5 2.1 3.8 4.1 3.8 2.2 0 4-1.5 4-1.5l1.3 2.4s-2.1 1.9-5.6 1.9c-4.6 0-7.4-3.3-7.4-7.2.1-4.1 2.9-7.1 7.1-7.1zm2.6 5.7c-.1-1.9-1.2-3-2.7-3-1.8 0-3 1.2-3.3 3h6zM262.6 72.9V59.5c0-.4-.2-.6-.6-.6h-1.5v-2.6h3.5c1.3 0 1.7.6 1.7 1.3v.7h.1s1.2-2.3 4.4-2.3c3.7 0 6.1 2.9 6.1 7.2 0 4.4-2.7 7.2-6.3 7.2-2.7 0-4-1.9-4-1.9s.1.5.1 1.2V73h2v2.6h-7.4V73h1.9zm6.8-5.4c1.9 0 3.5-1.5 3.5-4.3 0-2.6-1.4-4.3-3.4-4.3-1.8 0-3.5 1.3-3.5 4.3 0 2.2 1.1 4.3 3.4 4.3zM285.5 61.6h.9v-.5c0-1.8-1.1-2.4-2.5-2.4-2.1 0-3.9 1.3-3.9 1.3l-1.3-2.4s2.1-1.7 5.5-1.7c3.7 0 5.7 1.9 5.7 5.4v5.5c0 .4.2.6.6.6h1.2V70h-3.2c-1.3 0-1.8-.7-1.8-1.5v-.2c0-.4.1-.7.1-.7h-.1s-1.2 2.6-4.3 2.6c-2.3 0-4.6-1.4-4.6-4.2 0-4 5.5-4.4 7.7-4.4zm-2.3 6.3c1.9 0 3.2-2 3.2-3.7v-.5h-.6c-1.3 0-4.6.2-4.6 2.3 0 1 .7 1.9 2 1.9zM293.2 67.5h2v-8c0-.4-.2-.6-.6-.6h-1.5v-2.6h3.6c1.2 0 1.8.5 1.8 1.7v.8c0 .5-.1.9-.1.9h.1c.6-2 2.3-3.5 4.4-3.5.3 0 .6.1.6.1v3.4s-.4-.1-.8-.1c-2.8 0-4 2.4-4 5v3h2v2.6h-7.4v-2.7zM306.4 58.9h-2.1v-2.6h2.2v-3.8h3.3v3.8h3.1v2.6h-3.1v5.8c0 2.3 1.8 2.7 2.8 2.7h.6v2.8s-.4.1-1.1.1c-1.9 0-5.8-.6-5.8-5.2v-6.2zM315 67.5h2v-8.1c0-.4-.2-.6-.6-.6h-1.5v-2.6h3.6c1.2 0 1.8.6 1.8 1.5v.6c0 .3-.1.6-.1.6h.1c.7-1.4 2.4-3.1 4.7-3.1 1.9 0 3.3.9 3.8 3h.1c.8-1.6 2.6-3 4.8-3 2.8 0 4.4 1.6 4.4 5.2v6.3h2v2.6h-5.4v-8.2c0-1.6-.3-2.8-1.9-2.8-2.3 0-3.5 2.3-3.5 4.9v3.5h2v2.6h-5.4v-8.2c0-1.5-.2-2.8-1.9-2.8-2.4 0-3.5 2.6-3.5 5v3.3h2v2.6H315v-2.3zM348.3 56c4 0 6.1 2.9 6.1 6.5 0 .4-.1 1.2-.1 1.2h-9.5c.2 2.5 2.1 3.8 4.1 3.8 2.2 0 4-1.5 4-1.5l1.3 2.4s-2.1 1.9-5.6 1.9c-4.6 0-7.4-3.3-7.4-7.2.1-4.1 3-7.1 7.1-7.1zm2.6 5.7c-.1-1.9-1.2-3-2.7-3-1.8 0-3 1.2-3.3 3h6zM356.4 67.5h2v-8c0-.4-.2-.6-.6-.6h-1.5v-2.6h3.6c1.2 0 1.8.6 1.8 1.5v.6c0 .3-.1.6-.1.6h.1c.2-.4 1.6-3.1 5.1-3.1 2.9 0 4.6 1.6 4.6 5.2v6.3h2V70H368v-8.2c0-1.7-.5-2.8-2.2-2.8-2.5 0-3.9 2.4-3.9 4.8v3.6h2V70h-7.4v-2.5zM376.4 58.9h-2.1v-2.6h2.2v-3.8h3.3v3.8h3.1v2.6h-3.1v5.8c0 2.3 1.8 2.7 2.8 2.7h.6v2.8s-.4.1-1.1.1c-1.9 0-5.7-.6-5.7-5.2v-6.2zM398.7 56c4.2 0 7.6 3 7.6 7.2s-3.4 7.2-7.6 7.2c-4.2 0-7.6-3-7.6-7.2.1-4.2 3.4-7.2 7.6-7.2zm0 11.5c2.2 0 4.1-1.7 4.1-4.3 0-2.5-1.9-4.3-4.1-4.3-2.2 0-4.1 1.8-4.1 4.3 0 2.6 1.9 4.3 4.1 4.3zM408.2 67.5h2v-8.6h-2.1v-2.6h2.1v-.6c0-4.5 3.6-5 5.4-5 .8 0 1.4.1 1.4.1v2.8s-.4-.1-1.1-.1c-.8 0-2.3.2-2.3 2.2v.7h3.1V59h-3.1v8.6h2.3v2.6h-7.7v-2.7zM425.1 67.4h2.3V53.6h-2.3v-2.7h8.2v2.7H431v5.5h8.7v-5.5h-2.3v-2.7h8.2v2.7h-2.3v13.8h2.3V70h-8.2v-2.6h2.3V62H431v5.5h2.3v2.6h-8.2v-2.7zM454.5 56c4 0 6.1 2.9 6.1 6.5 0 .4-.1 1.2-.1 1.2H451c.2 2.5 2.1 3.8 4.1 3.8 2.2 0 4-1.5 4-1.5l1.3 2.4s-2.1 1.9-5.6 1.9c-4.6 0-7.4-3.3-7.4-7.2.1-4.1 2.9-7.1 7.1-7.1zm2.6 5.7c-.1-1.9-1.2-3-2.7-3-1.8 0-3 1.2-3.3 3h6zM469.8 61.6h.9v-.5c0-1.8-1.1-2.4-2.5-2.4-2.1 0-3.9 1.3-3.9 1.3l-1.3-2.4s2.1-1.7 5.5-1.7c3.7 0 5.7 1.9 5.7 5.4v5.5c0 .4.2.6.6.6h1.2V70h-3.2c-1.3 0-1.8-.7-1.8-1.5v-.2c0-.4.1-.7.1-.7h-.1s-1.2 2.6-4.3 2.6c-2.3 0-4.6-1.4-4.6-4.2 0-4 5.5-4.4 7.7-4.4zm-2.3 6.3c1.9 0 3.2-2 3.2-3.7v-.5h-.6c-1.3 0-4.6.2-4.6 2.3 0 1 .8 1.9 2 1.9zM478.3 53.5h-2.1v-2.6h5.5v14.6c0 1.2.3 1.9 1.4 1.9h.6v2.8s-.6.1-1.2.1c-2.2 0-4.2-.7-4.2-4.5V53.5zM487 58.9h-2.1v-2.6h2.2v-3.8h3.3v3.8h3.1v2.6h-3.1v5.8c0 2.3 1.8 2.7 2.8 2.7h.6v2.8s-.4.1-1.1.1c-1.9 0-5.7-.6-5.7-5.2v-6.2zM495.2 67.5h2v-14H495v-2.6h5.6v6.7c0 .7-.1 1.2-.1 1.2h.1c.7-1.3 2.4-2.8 4.8-2.8 3 0 4.8 1.6 4.8 5.2v6.3h2v2.6h-5.4v-8.2c0-1.7-.4-2.8-2.2-2.8-2.4 0-3.9 2.1-3.9 4.6v3.8h2v2.6h-7.4v-2.6zM530 50.6c2.3 0 7.5.8 7.5 3.8V57h-3.2v-1.5c0-1.4-2.5-1.9-4.1-1.9-3.7 0-6.4 2.6-6.4 6.6 0 4.3 2.8 7.1 6.6 7.1 1.2 0 4.2-.4 4.2-1.9V64h3.2v2.6c0 2.9-4.9 3.8-7.6 3.8-5.8 0-10-4.4-10-10-.1-5.6 4.2-9.8 9.8-9.8zM547.3 61.6h.9v-.5c0-1.8-1.1-2.4-2.5-2.4-2.1 0-3.9 1.3-3.9 1.3l-1.3-2.4s2.1-1.7 5.5-1.7c3.7 0 5.7 1.9 5.7 5.4v5.5c0 .4.2.6.6.6h1.2V70h-3.2c-1.3 0-1.8-.7-1.8-1.5v-.2c0-.4.1-.7.1-.7h-.1s-1.2 2.6-4.3 2.6c-2.3 0-4.6-1.4-4.6-4.2-.1-4 5.5-4.4 7.7-4.4zm-2.3 6.3c1.9 0 3.2-2 3.2-3.7v-.5h-.6c-1.3 0-4.6.2-4.6 2.3 0 1 .7 1.9 2 1.9zM555 67.5h2v-8c0-.4-.2-.6-.6-.6h-1.5v-2.6h3.6c1.2 0 1.8.5 1.8 1.7v.8c0 .5-.1.9-.1.9h.1c.6-2 2.3-3.5 4.4-3.5.3 0 .6.1.6.1v3.4s-.4-.1-.8-.1c-2.8 0-4 2.4-4 5v3h2v2.6H555v-2.7zM573.4 56c4 0 6.1 2.9 6.1 6.5 0 .4-.1 1.2-.1 1.2h-9.5c.2 2.5 2.1 3.8 4.1 3.8 2.2 0 4-1.5 4-1.5l1.3 2.4s-2.1 1.9-5.6 1.9c-4.6 0-7.4-3.3-7.4-7.2.1-4.1 3-7.1 7.1-7.1zm2.6 5.7c-.1-1.9-1.2-3-2.7-3-1.8 0-3 1.2-3.3 3h6zM225.5 96.4h2.3V82.6h-2.3v-2.7h9.2c1.1 0 2.3.1 3.2.5 2.1.9 3.4 3 3.4 5.7s-1.4 5-3.6 5.8c-.9.3-1.9.4-2.9.4h-3.4v4.2h2.3v2.6h-8.2v-2.7zm8.8-6.9c.8 0 1.4-.1 1.9-.4 1-.5 1.6-1.6 1.6-3 0-1.3-.5-2.3-1.4-2.9-.5-.3-1.2-.5-2.1-.5h-3v6.7h3zM250.2 85c4.2 0 7.6 3 7.6 7.2s-3.4 7.2-7.6 7.2c-4.2 0-7.6-3-7.6-7.2.1-4.2 3.4-7.2 7.6-7.2zm0 11.5c2.2 0 4.1-1.7 4.1-4.3 0-2.5-1.9-4.3-4.1-4.3-2.2 0-4.1 1.8-4.1 4.3 0 2.6 1.9 4.3 4.1 4.3zM260.5 82.5h-2.1v-2.6h5.5v14.6c0 1.2.3 1.9 1.4 1.9h.6v2.8s-.6.1-1.2.1c-2.2 0-4.2-.7-4.2-4.5V82.5zM267.7 96.5h2v-8.6h-2.1v-2.6h5.6v11.2h2v2.6h-7.4v-2.6zm2-16.6h3.5V83h-3.5v-3.1zM284 85c2.3 0 5.6.9 5.6 3.3v1.9h-3v-.9c0-.9-1.4-1.3-2.6-1.3-2.5 0-4 1.7-4 4.2 0 2.8 2 4.4 4.3 4.4 1.9 0 3.5-1.1 4.3-1.7l1.2 2.4c-.9.9-3.1 2.1-5.7 2.1-4 0-7.6-2.7-7.6-7.2.1-4.1 3.3-7.2 7.5-7.2zM294.3 102c1.1 0 2-.6 2.4-1.6l.4-.9-4.7-11.6h-1.6v-2.6h6.8v2.6H296l2.5 7c.2.7.3 1.4.3 1.4h.1s.1-.8.4-1.4l2.5-7h-1.6v-2.6h6.5v2.6H305l-5.1 13c-1.1 2.7-3.1 3.9-5.5 3.9-2 0-3.3-.9-3.3-.9l1.1-2.5c0-.1.8.6 2.1.6zM317.6 88.9c0-.1-2.6-1-2.6-4.2 0-3.4 2.9-5 6.3-5 1.3 0 2.5.3 2.5.3l-.8 2.8s-.7-.2-1.3-.2c-1.8 0-3.2.9-3.2 2.5 0 1.2.6 2.7 2.9 2.7h3.6v-2.6h3.4v2.6h2.5v2.8h-2.5V93c0 3.9-2.7 6.5-7.1 6.5-4.3 0-7.1-2.5-7.1-5.7 0-2.2 1.3-4.2 3.4-4.9zm3.8 7.4c2.2 0 3.7-1.2 3.7-3.6v-2.2h-3.8c-2.1 0-3.5 1-3.5 2.9-.1 1.7 1.3 2.9 3.6 2.9zM339.1 96.4h2.3V82.6h-2.3v-2.7h13.7v5h-3v-2H345v5.5h6.2v2.8H345v5.2h2.5V99h-8.4v-2.6zM354.6 96.5h2v-8.6h-2.1v-2.6h5.6v11.2h2v2.6h-7.4v-2.6zm1.9-16.6h3.5V83h-3.5v-3.1zM363.8 96.5h2v-8c0-.4-.2-.6-.6-.6h-1.5v-2.6h3.6c1.2 0 1.8.6 1.8 1.5v.6c0 .3-.1.6-.1.6h.1c.2-.4 1.6-3.1 5.1-3.1 2.9 0 4.6 1.6 4.6 5.2v6.3h2V99h-5.4v-8.2c0-1.7-.5-2.8-2.2-2.8-2.5 0-3.9 2.4-3.9 4.8v3.6h2V99h-7.4v-2.5zM389.6 90.6h.9v-.5c0-1.8-1.1-2.4-2.5-2.4-2.1 0-3.9 1.3-3.9 1.3l-1.3-2.4s2.1-1.7 5.5-1.7c3.7 0 5.7 1.9 5.7 5.4v5.5c0 .4.2.6.6.6h1.2V99h-3.2c-1.3 0-1.8-.7-1.8-1.5v-.2c0-.4.1-.7.1-.7h-.1s-1.2 2.6-4.3 2.6c-2.3 0-4.6-1.4-4.6-4.2-.1-4 5.4-4.4 7.7-4.4zm-2.3 6.3c1.9 0 3.2-2 3.2-3.7v-.5h-.6c-1.3 0-4.6.2-4.6 2.3 0 1 .7 1.9 2 1.9zM397.3 96.5h2v-8c0-.4-.2-.6-.6-.6h-1.5v-2.6h3.6c1.2 0 1.8.6 1.8 1.5v.6c0 .3-.1.6-.1.6h.1c.2-.4 1.6-3.1 5.1-3.1 2.9 0 4.6 1.6 4.6 5.2v6.3h2V99h-5.4v-8.2c0-1.7-.5-2.8-2.2-2.8-2.5 0-3.9 2.4-3.9 4.8v3.6h2V99h-7.4v-2.5zM422.9 85c2.3 0 5.6.9 5.6 3.3v1.9h-3v-.9c0-.9-1.4-1.3-2.6-1.3-2.5 0-4 1.7-4 4.2 0 2.8 2 4.4 4.3 4.4 1.9 0 3.5-1.1 4.3-1.7l1.2 2.4c-.9.9-3.1 2.1-5.7 2.1-4 0-7.6-2.7-7.6-7.2.1-4.1 3.3-7.2 7.5-7.2zM430.6 96.5h2v-8.6h-2.1v-2.6h5.6v11.2h2v2.6h-7.4v-2.6zm2-16.6h3.5V83h-3.5v-3.1zM439.8 96.5h2v-8c0-.4-.2-.6-.6-.6h-1.5v-2.6h3.6c1.2 0 1.8.6 1.8 1.5v.6c0 .3-.1.6-.1.6h.1c.2-.4 1.6-3.1 5.1-3.1 2.9 0 4.6 1.6 4.6 5.2v6.3h2V99h-5.4v-8.2c0-1.7-.5-2.8-2.2-2.8-2.5 0-3.9 2.4-3.9 4.8v3.6h2V99h-7.4v-2.5zM464.2 102c2.1 0 3.9-.9 3.9-3.5v-.9c0-.3.1-.7.1-.7h-.1c-.8 1.2-2 1.9-3.8 1.9-4 0-6.2-3.2-6.2-7s2.1-6.9 6.1-6.9c1.6 0 3.5.6 4.3 2.1h.1s-.1-.2-.1-.5c0-.7.5-1.3 1.6-1.3h3.4v2.6h-1.3c-.4 0-.6.2-.6.5v9.8c0 4.7-3.7 6.5-7.3 6.5-1.7 0-3.6-.5-4.9-1.2l1.1-2.5c-.1.1 1.6 1.1 3.7 1.1zm4-10.1c0-3.1-1.6-4-3.4-4-2.1 0-3.2 1.5-3.2 3.8 0 2.4 1.2 4.2 3.5 4.2 1.5 0 3.1-.9 3.1-4z"/></g><path class="st2" d="M208.3.1h1.3v99h-1.3z"/><g><path class="st2" d="M225.5 67.4h2.3V53.6h-2.3v-2.7h8.3c1.5 0 2.8.1 4 .5 3.7 1.1 6.2 4.4 6.2 9.1 0 4.5-2.3 7.8-5.9 9-1.3.5-2.6.6-4.2.6h-8.3v-2.7zm8.1-.1c1.2 0 2.2-.1 3.1-.5 2.2-.9 3.6-3.1 3.6-6.3 0-3.2-1.5-5.5-3.7-6.3-1-.4-1.9-.4-3-.4h-2.3v13.5h2.3zM252.9 56c4 0 6.1 2.9 6.1 6.5 0 .4-.1 1.2-.1 1.2h-9.5c.2 2.5 2.1 3.8 4.1 3.8 2.2 0 4-1.5 4-1.5l1.3 2.4s-2.1 1.9-5.6 1.9c-4.6 0-7.4-3.3-7.4-7.2.1-4.1 2.9-7.1 7.1-7.1zm2.6 5.7c-.1-1.9-1.2-3-2.7-3-1.8 0-3 1.2-3.3 3h6zM262.6 72.9V59.5c0-.4-.2-.6-.6-.6h-1.5v-2.6h3.5c1.3 0 1.7.6 1.7 1.3v.7h.1s1.2-2.3 4.4-2.3c3.7 0 6.1 2.9 6.1 7.2 0 4.4-2.7 7.2-6.3 7.2-2.7 0-4-1.9-4-1.9s.1.5.1 1.2V73h2v2.6h-7.4V73h1.9zm6.8-5.4c1.9 0 3.5-1.5 3.5-4.3 0-2.6-1.4-4.3-3.4-4.3-1.8 0-3.5 1.3-3.5 4.3 0 2.2 1.1 4.3 3.4 4.3zM285.5 61.6h.9v-.5c0-1.8-1.1-2.4-2.5-2.4-2.1 0-3.9 1.3-3.9 1.3l-1.3-2.4s2.1-1.7 5.5-1.7c3.7 0 5.7 1.9 5.7 5.4v5.5c0 .4.2.6.6.6h1.2V70h-3.2c-1.3 0-1.8-.7-1.8-1.5v-.2c0-.4.1-.7.1-.7h-.1s-1.2 2.6-4.3 2.6c-2.3 0-4.6-1.4-4.6-4.2 0-4 5.5-4.4 7.7-4.4zm-2.3 6.3c1.9 0 3.2-2 3.2-3.7v-.5h-.6c-1.3 0-4.6.2-4.6 2.3 0 1 .7 1.9 2 1.9zM293.2 67.5h2v-8c0-.4-.2-.6-.6-.6h-1.5v-2.6h3.6c1.2 0 1.8.5 1.8 1.7v.8c0 .5-.1.9-.1.9h.1c.6-2 2.3-3.5 4.4-3.5.3 0 .6.1.6.1v3.4s-.4-.1-.8-.1c-2.8 0-4 2.4-4 5v3h2v2.6h-7.4v-2.7zM306.4 58.9h-2.1v-2.6h2.2v-3.8h3.3v3.8h3.1v2.6h-3.1v5.8c0 2.3 1.8 2.7 2.8 2.7h.6v2.8s-.4.1-1.1.1c-1.9 0-5.8-.6-5.8-5.2v-6.2zM315 67.5h2v-8.1c0-.4-.2-.6-.6-.6h-1.5v-2.6h3.6c1.2 0 1.8.6 1.8 1.5v.6c0 .3-.1.6-.1.6h.1c.7-1.4 2.4-3.1 4.7-3.1 1.9 0 3.3.9 3.8 3h.1c.8-1.6 2.6-3 4.8-3 2.8 0 4.4 1.6 4.4 5.2v6.3h2v2.6h-5.4v-8.2c0-1.6-.3-2.8-1.9-2.8-2.3 0-3.5 2.3-3.5 4.9v3.5h2v2.6h-5.4v-8.2c0-1.5-.2-2.8-1.9-2.8-2.4 0-3.5 2.6-3.5 5v3.3h2v2.6H315v-2.3zM348.3 56c4 0 6.1 2.9 6.1 6.5 0 .4-.1 1.2-.1 1.2h-9.5c.2 2.5 2.1 3.8 4.1 3.8 2.2 0 4-1.5 4-1.5l1.3 2.4s-2.1 1.9-5.6 1.9c-4.6 0-7.4-3.3-7.4-7.2.1-4.1 3-7.1 7.1-7.1zm2.6 5.7c-.1-1.9-1.2-3-2.7-3-1.8 0-3 1.2-3.3 3h6zM356.4 67.5h2v-8c0-.4-.2-.6-.6-.6h-1.5v-2.6h3.6c1.2 0 1.8.6 1.8 1.5v.6c0 .3-.1.6-.1.6h.1c.2-.4 1.6-3.1 5.1-3.1 2.9 0 4.6 1.6 4.6 5.2v6.3h2V70H368v-8.2c0-1.7-.5-2.8-2.2-2.8-2.5 0-3.9 2.4-3.9 4.8v3.6h2V70h-7.4v-2.5zM376.4 58.9h-2.1v-2.6h2.2v-3.8h3.3v3.8h3.1v2.6h-3.1v5.8c0 2.3 1.8 2.7 2.8 2.7h.6v2.8s-.4.1-1.1.1c-1.9 0-5.7-.6-5.7-5.2v-6.2zM398.7 56c4.2 0 7.6 3 7.6 7.2s-3.4 7.2-7.6 7.2c-4.2 0-7.6-3-7.6-7.2.1-4.2 3.4-7.2 7.6-7.2zm0 11.5c2.2 0 4.1-1.7 4.1-4.3 0-2.5-1.9-4.3-4.1-4.3-2.2 0-4.1 1.8-4.1 4.3 0 2.6 1.9 4.3 4.1 4.3zM408.2 67.5h2v-8.6h-2.1v-2.6h2.1v-.6c0-4.5 3.6-5 5.4-5 .8 0 1.4.1 1.4.1v2.8s-.4-.1-1.1-.1c-.8 0-2.3.2-2.3 2.2v.7h3.1V59h-3.1v8.6h2.3v2.6h-7.7v-2.7zM425.1 67.4h2.3V53.6h-2.3v-2.7h8.2v2.7H431v5.5h8.7v-5.5h-2.3v-2.7h8.2v2.7h-2.3v13.8h2.3V70h-8.2v-2.6h2.3V62H431v5.5h2.3v2.6h-8.2v-2.7zM454.5 56c4 0 6.1 2.9 6.1 6.5 0 .4-.1 1.2-.1 1.2H451c.2 2.5 2.1 3.8 4.1 3.8 2.2 0 4-1.5 4-1.5l1.3 2.4s-2.1 1.9-5.6 1.9c-4.6 0-7.4-3.3-7.4-7.2.1-4.1 2.9-7.1 7.1-7.1zm2.6 5.7c-.1-1.9-1.2-3-2.7-3-1.8 0-3 1.2-3.3 3h6zM469.8 61.6h.9v-.5c0-1.8-1.1-2.4-2.5-2.4-2.1 0-3.9 1.3-3.9 1.3l-1.3-2.4s2.1-1.7 5.5-1.7c3.7 0 5.7 1.9 5.7 5.4v5.5c0 .4.2.6.6.6h1.2V70h-3.2c-1.3 0-1.8-.7-1.8-1.5v-.2c0-.4.1-.7.1-.7h-.1s-1.2 2.6-4.3 2.6c-2.3 0-4.6-1.4-4.6-4.2 0-4 5.5-4.4 7.7-4.4zm-2.3 6.3c1.9 0 3.2-2 3.2-3.7v-.5h-.6c-1.3 0-4.6.2-4.6 2.3 0 1 .8 1.9 2 1.9zM478.3 53.5h-2.1v-2.6h5.5v14.6c0 1.2.3 1.9 1.4 1.9h.6v2.8s-.6.1-1.2.1c-2.2 0-4.2-.7-4.2-4.5V53.5zM487 58.9h-2.1v-2.6h2.2v-3.8h3.3v3.8h3.1v2.6h-3.1v5.8c0 2.3 1.8 2.7 2.8 2.7h.6v2.8s-.4.1-1.1.1c-1.9 0-5.7-.6-5.7-5.2v-6.2zM495.2 67.5h2v-14H495v-2.6h5.6v6.7c0 .7-.1 1.2-.1 1.2h.1c.7-1.3 2.4-2.8 4.8-2.8 3 0 4.8 1.6 4.8 5.2v6.3h2v2.6h-5.4v-8.2c0-1.7-.4-2.8-2.2-2.8-2.4 0-3.9 2.1-3.9 4.6v3.8h2v2.6h-7.4v-2.6zM530 50.6c2.3 0 7.5.8 7.5 3.8V57h-3.2v-1.5c0-1.4-2.5-1.9-4.1-1.9-3.7 0-6.4 2.6-6.4 6.6 0 4.3 2.8 7.1 6.6 7.1 1.2 0 4.2-.4 4.2-1.9V64h3.2v2.6c0 2.9-4.9 3.8-7.6 3.8-5.8 0-10-4.4-10-10-.1-5.6 4.2-9.8 9.8-9.8zM547.3 61.6h.9v-.5c0-1.8-1.1-2.4-2.5-2.4-2.1 0-3.9 1.3-3.9 1.3l-1.3-2.4s2.1-1.7 5.5-1.7c3.7 0 5.7 1.9 5.7 5.4v5.5c0 .4.2.6.6.6h1.2V70h-3.2c-1.3 0-1.8-.7-1.8-1.5v-.2c0-.4.1-.7.1-.7h-.1s-1.2 2.6-4.3 2.6c-2.3 0-4.6-1.4-4.6-4.2-.1-4 5.5-4.4 7.7-4.4zm-2.3 6.3c1.9 0 3.2-2 3.2-3.7v-.5h-.6c-1.3 0-4.6.2-4.6 2.3 0 1 .7 1.9 2 1.9zM555 67.5h2v-8c0-.4-.2-.6-.6-.6h-1.5v-2.6h3.6c1.2 0 1.8.5 1.8 1.7v.8c0 .5-.1.9-.1.9h.1c.6-2 2.3-3.5 4.4-3.5.3 0 .6.1.6.1v3.4s-.4-.1-.8-.1c-2.8 0-4 2.4-4 5v3h2v2.6H555v-2.7zM573.4 56c4 0 6.1 2.9 6.1 6.5 0 .4-.1 1.2-.1 1.2h-9.5c.2 2.5 2.1 3.8 4.1 3.8 2.2 0 4-1.5 4-1.5l1.3 2.4s-2.1 1.9-5.6 1.9c-4.6 0-7.4-3.3-7.4-7.2.1-4.1 3-7.1 7.1-7.1zm2.6 5.7c-.1-1.9-1.2-3-2.7-3-1.8 0-3 1.2-3.3 3h6zM225.5 96.4h2.3V82.6h-2.3v-2.7h9.2c1.1 0 2.3.1 3.2.5 2.1.9 3.4 3 3.4 5.7s-1.4 5-3.6 5.8c-.9.3-1.9.4-2.9.4h-3.4v4.2h2.3v2.6h-8.2v-2.7zm8.8-6.9c.8 0 1.4-.1 1.9-.4 1-.5 1.6-1.6 1.6-3 0-1.3-.5-2.3-1.4-2.9-.5-.3-1.2-.5-2.1-.5h-3v6.7h3zM250.2 85c4.2 0 7.6 3 7.6 7.2s-3.4 7.2-7.6 7.2c-4.2 0-7.6-3-7.6-7.2.1-4.2 3.4-7.2 7.6-7.2zm0 11.5c2.2 0 4.1-1.7 4.1-4.3 0-2.5-1.9-4.3-4.1-4.3-2.2 0-4.1 1.8-4.1 4.3 0 2.6 1.9 4.3 4.1 4.3zM260.5 82.5h-2.1v-2.6h5.5v14.6c0 1.2.3 1.9 1.4 1.9h.6v2.8s-.6.1-1.2.1c-2.2 0-4.2-.7-4.2-4.5V82.5zM267.7 96.5h2v-8.6h-2.1v-2.6h5.6v11.2h2v2.6h-7.4v-2.6zm2-16.6h3.5V83h-3.5v-3.1zM284 85c2.3 0 5.6.9 5.6 3.3v1.9h-3v-.9c0-.9-1.4-1.3-2.6-1.3-2.5 0-4 1.7-4 4.2 0 2.8 2 4.4 4.3 4.4 1.9 0 3.5-1.1 4.3-1.7l1.2 2.4c-.9.9-3.1 2.1-5.7 2.1-4 0-7.6-2.7-7.6-7.2.1-4.1 3.3-7.2 7.5-7.2zM294.3 102c1.1 0 2-.6 2.4-1.6l.4-.9-4.7-11.6h-1.6v-2.6h6.8v2.6H296l2.5 7c.2.7.3 1.4.3 1.4h.1s.1-.8.4-1.4l2.5-7h-1.6v-2.6h6.5v2.6H305l-5.1 13c-1.1 2.7-3.1 3.9-5.5 3.9-2 0-3.3-.9-3.3-.9l1.1-2.5c0-.1.8.6 2.1.6zM317.6 88.9c0-.1-2.6-1-2.6-4.2 0-3.4 2.9-5 6.3-5 1.3 0 2.5.3 2.5.3l-.8 2.8s-.7-.2-1.3-.2c-1.8 0-3.2.9-3.2 2.5 0 1.2.6 2.7 2.9 2.7h3.6v-2.6h3.4v2.6h2.5v2.8h-2.5V93c0 3.9-2.7 6.5-7.1 6.5-4.3 0-7.1-2.5-7.1-5.7 0-2.2 1.3-4.2 3.4-4.9zm3.8 7.4c2.2 0 3.7-1.2 3.7-3.6v-2.2h-3.8c-2.1 0-3.5 1-3.5 2.9-.1 1.7 1.3 2.9 3.6 2.9zM339.1 96.4h2.3V82.6h-2.3v-2.7h13.7v5h-3v-2H345v5.5h6.2v2.8H345v5.2h2.5V99h-8.4v-2.6zM354.6 96.5h2v-8.6h-2.1v-2.6h5.6v11.2h2v2.6h-7.4v-2.6zm1.9-16.6h3.5V83h-3.5v-3.1zM363.8 96.5h2v-8c0-.4-.2-.6-.6-.6h-1.5v-2.6h3.6c1.2 0 1.8.6 1.8 1.5v.6c0 .3-.1.6-.1.6h.1c.2-.4 1.6-3.1 5.1-3.1 2.9 0 4.6 1.6 4.6 5.2v6.3h2V99h-5.4v-8.2c0-1.7-.5-2.8-2.2-2.8-2.5 0-3.9 2.4-3.9 4.8v3.6h2V99h-7.4v-2.5zM389.6 90.6h.9v-.5c0-1.8-1.1-2.4-2.5-2.4-2.1 0-3.9 1.3-3.9 1.3l-1.3-2.4s2.1-1.7 5.5-1.7c3.7 0 5.7 1.9 5.7 5.4v5.5c0 .4.2.6.6.6h1.2V99h-3.2c-1.3 0-1.8-.7-1.8-1.5v-.2c0-.4.1-.7.1-.7h-.1s-1.2 2.6-4.3 2.6c-2.3 0-4.6-1.4-4.6-4.2-.1-4 5.4-4.4 7.7-4.4zm-2.3 6.3c1.9 0 3.2-2 3.2-3.7v-.5h-.6c-1.3 0-4.6.2-4.6 2.3 0 1 .7 1.9 2 1.9zM397.3 96.5h2v-8c0-.4-.2-.6-.6-.6h-1.5v-2.6h3.6c1.2 0 1.8.6 1.8 1.5v.6c0 .3-.1.6-.1.6h.1c.2-.4 1.6-3.1 5.1-3.1 2.9 0 4.6 1.6 4.6 5.2v6.3h2V99h-5.4v-8.2c0-1.7-.5-2.8-2.2-2.8-2.5 0-3.9 2.4-3.9 4.8v3.6h2V99h-7.4v-2.5zM422.9 85c2.3 0 5.6.9 5.6 3.3v1.9h-3v-.9c0-.9-1.4-1.3-2.6-1.3-2.5 0-4 1.7-4 4.2 0 2.8 2 4.4 4.3 4.4 1.9 0 3.5-1.1 4.3-1.7l1.2 2.4c-.9.9-3.1 2.1-5.7 2.1-4 0-7.6-2.7-7.6-7.2.1-4.1 3.3-7.2 7.5-7.2zM430.6 96.5h2v-8.6h-2.1v-2.6h5.6v11.2h2v2.6h-7.4v-2.6zm2-16.6h3.5V83h-3.5v-3.1zM439.8 96.5h2v-8c0-.4-.2-.6-.6-.6h-1.5v-2.6h3.6c1.2 0 1.8.6 1.8 1.5v.6c0 .3-.1.6-.1.6h.1c.2-.4 1.6-3.1 5.1-3.1 2.9 0 4.6 1.6 4.6 5.2v6.3h2V99h-5.4v-8.2c0-1.7-.5-2.8-2.2-2.8-2.5 0-3.9 2.4-3.9 4.8v3.6h2V99h-7.4v-2.5zM464.2 102c2.1 0 3.9-.9 3.9-3.5v-.9c0-.3.1-.7.1-.7h-.1c-.8 1.2-2 1.9-3.8 1.9-4 0-6.2-3.2-6.2-7s2.1-6.9 6.1-6.9c1.6 0 3.5.6 4.3 2.1h.1s-.1-.2-.1-.5c0-.7.5-1.3 1.6-1.3h3.4v2.6h-1.3c-.4 0-.6.2-.6.5v9.8c0 4.7-3.7 6.5-7.3 6.5-1.7 0-3.6-.5-4.9-1.2l1.1-2.5c-.1.1 1.6 1.1 3.7 1.1zm4-10.1c0-3.1-1.6-4-3.4-4-2.1 0-3.2 1.5-3.2 3.8 0 2.4 1.2 4.2 3.5 4.2 1.5 0 3.1-.9 3.1-4z"/></g><g><path class="st3" d="M136.1 92.1c-1.2 0-2.3-.7-3-2.1L98.3 29.8c-.8-1.3-.9-2.7-.3-3.7.6-1 1.8-1.6 3.3-1.6h69.5c1.6 0 2.7.6 3.3 1.6.6 1 .5 2.3-.3 3.7L139.1 90c-.7 1.3-1.8 2.1-3 2.1z"/><path class="st4" d="M114.9 58.5l22.2 7.6-15 4.9z"/><path class="st1" d="M123.6 72.2l10 17.4c1.3 2.3 3.5 2.3 4.8 0L155 60.8l-31.4 11.4z"/><path class="st5" d="M188.1.1H84c-4 0-5.6 2.8-3.6 6.3l52 90.1c2 3.5 5.3 3.5 7.3 0l52-90.1c2-3.5.4-6.3-3.6-6.3m-43.7 79.3l-13.8 4.9-2.9-4.9 21-7.5-4.3 7.5zm6.2-10.8l-24.1 8.6-2.9-5.1 31.5-11.3-4.5 7.8zm-28.2 1.5l-5.9-10.3 18.4 6.2-12.5 4.1zm16.1 19.5c-1.3 2.3-3.5 2.3-4.8 0l-1.8-3.2 10.7-3.8-4.1 7zm34.8-60.2L157 57.7l-19.6 7-22.8-8.1-15.7-27.2c-1.3-2.3-.2-4.2 2.4-4.2h69.5c2.7.1 3.8 1.9 2.5 4.2"/><path class="st1" d="M106.7 6.4c0-.2.2-.4.4-.4h2.3c.2 0 .4.2.4.4v4.9h5.6V6.4c0-.2.2-.4.4-.4h2.3c.2 0 .4.2.4.4v12.9c0 .2-.2.4-.4.4h-2.3c-.2 0-.4-.2-.4-.4v-5.1h-5.6v5.1c0 .2-.2.4-.4.4h-2.3c-.2 0-.4-.2-.4-.4V6.4zM131.2 5.9c1.9 0 3.4.6 4.7 1.8.2.2.2.4 0 .5l-1.5 1.6c-.1.1-.4.1-.5 0-.7-.6-1.7-1-2.6-1-2.2 0-3.8 1.8-3.8 4s1.6 3.9 3.8 3.9c.9 0 1.9-.3 2.6-.9.1-.1.4-.1.5 0l1.5 1.6c.1.1.1.4 0 .5-1.3 1.3-3 1.9-4.7 1.9-3.9 0-7-3.1-7-7s3.1-6.9 7-6.9zM141.8 6.4c0-.2.2-.4.4-.4h4.7c2.4 0 4.4 1.9 4.4 4.3s-2 4.4-4.3 4.4h-2v4.6c0 .2-.2.4-.4.4h-2.3c-.2 0-.4-.2-.4-.4V6.4zm4.9 5.5c.8 0 1.5-.7 1.5-1.5s-.7-1.4-1.5-1.4h-1.8v3h1.8zM156.7 6.4c0-.2.2-.4.4-.4h8.1c.2 0 .4.2.4.4v2.1c0 .2-.2.4-.4.4h-5.4v2.8h4.4c.2 0 .4.2.4.4v2.1c0 .2-.2.4-.4.4h-4.4v4.7c0 .2-.2.4-.4.4h-2.3c-.2 0-.4-.2-.4-.4V6.4zM146 49.7c.1-2.5 0-5.8 0-5.8l.2-3.6.9 2.8s.2.6.5.6.6-.4.4-1.2c0 0-1.3-4.6-1.6-5.1-.2-.3-.5-.6-1-.8l-.4-.2c.1 0 .1-.1.2-.1l.1-.1c.4-.4.6-.9.6-1.5v-.1c.3-.7-.3-1.6-.5-1.7-.2-.2-.4-.1-.4-.1-.1-.4-1-.5-1.6-.4s-1.2.7-1.3 1.4c-.1.4 0 .7.1.9 0 .5.3 1 .6 1.4l.1.1s.1.1.2.1l-.4.2c-.5.2-.8.5-1 .8 0 0 0 .1-.1.1 0 .1-.1.4-.2.7-.5-1.7-1.2-4-1.4-4.4-.2-.4-.7-.9-1.4-1.1l-.4-.1c.1-.1.2-.1.3-.2.3-.3.5-.7.6-1.1.3-.3.3-.9 0-1.7-.2-.9-.8-.7-.8-.7s-.1-.4-1.2-.5c-1.1-.1-1.9 1-1.9 1.5-.1.4.1 1.1.1 1.1 0 .5.3 1 .6 1.4.1.1.2.2.3.2l-.4.1c-.7.2-1.2.7-1.4 1.1-.2.3-.7 2.1-1.2 3.7l-.2-.7c-.3-.9-.5-1.7-.6-1.8-.1-.2-.5-.4-.9-.5V33c0-.5.3-1.5-.3-2.2-.6-.7-1.5-1.1-2.5-.4 0 0-1.3.1-1.2 1.5 0 .6.1 1.2.1 1.8v.7c-.4.1-.9.3-1 .5-.2.5-1.7 5.6-1.9 6.3-.2.8.3.9.4.9.2 0 .7-.2.9-.8l1.1-3.3s.2 3.3-.1 4.8-.9 4.9-.7 5c.1 0 .4.1.9.1v1.5c-3.3.9-5.9 2.6-5.9 4.2 0 2.8 6.8 5.1 15.1 5.1 8.4 0 15.1-2.3 15.1-5.1.4-1.3-2.3-3-5.5-3.9zm-9.3 5.8c-5.8 0-11.9-1.2-11.9-2.6 0-.5 1.4-1.3 2.7-1.9 0 .7.1 1.3.1 1.4.3.9 1 .9 1.1.3 0-.3.1-2.7.2-4.6h1.2c.1 1.8.2 4.3.2 4.6.1.6.8.6 1.1-.3.1-.4.2-2.5.2-4.4.5 0 .8-.1.9-.1.3-.1-.4-3.5-.7-5-.3-1.5-.1-4.8-.1-4.8s.2.5.4 1.2l.9 2.5c.2.3.5.4.7.4.2 0 .6-.2.4-.9 0-.2-.1-.5-.3-1l-.2-.6.8-2.5.2 4.4c0 1 0 10.7.3 11.6.3 1 1.1.9 1.2.3.1-.6.3-9 .7-9.3.1-.1.3-.1.5 0 .4.3.6 8.7.7 9.3.1.6.9.7 1.2-.3.3-.9.3-10.7.3-11.6l.2-4.4 1 3c-.3 1.1-.7 2.1-.7 2.1-.2.7.1 1.2.4 1.2.3 0 .5-.6.5-.6l.4-1.1.5-1.6c.1.8.1 1.4.1 1.4l.1 2.1s0 7.9.2 8.7c.3.8.9.7 1 .2.1-.5.2-6.3.5-6.6.1-.1.3-.1.4 0 .3.2.5 6.1.5 6.6.1.5.7.6 1-.2.1-.2.1-.8.1-1.5 1.3.5 2.7 1.4 2.7 1.8.3 1.7-5.9 2.8-11.7 2.8z"/></g></g></svg>