<?xml version="1.0" encoding="utf-8"?>
<!-- Generator: Adobe Illustrator 18.0.0, SVG Export Plug-In . SVG Version: 6.00 Build 0)  -->
<!DOCTYPE svg PUBLIC "-//W3C//DTD SVG 1.1//EN" "http://www.w3.org/Graphics/SVG/1.1/DTD/svg11.dtd">
<svg version="1.1" id="Layer_1" xmlns="http://www.w3.org/2000/svg" xmlns:xlink="http://www.w3.org/1999/xlink" x="0px" y="0px"
	 viewBox="0.1 234.5 791.8 133.9" enable-background="new 0.1 234.5 791.8 133.9" xml:space="preserve">
<g id="Option2">
</g>
<g>
	<polygon fill="#FFFFFF" points="76.4,240 107.5,292.7 139.3,353 18.7,357.3 46.7,288.3 	"/>
	<g id="Option1">
		<g>
			<rect x="184" y="234.5" fill="#5C6670" width="1.8" height="133.8"/>
		</g>
		<g>
			<g>
				<g>
					<path fill="#00953A" d="M159,362.7h-1.5c-0.1,0-0.1-0.1-0.1-0.1v-0.8c0-0.1,0.1-0.1,0.1-0.1h4.1c0.1,0,0.1,0.1,0.1,0.1v0.8
						c0,0.1-0.1,0.1-0.1,0.1h-1.5v5.3c0,0.1-0.1,0.1-0.1,0.1h-0.8c-0.1,0-0.1-0.1-0.1-0.1L159,362.7L159,362.7z"/>
				</g>
				<g>
					<path fill="#00953A" d="M164.4,361.7c0-0.1,0-0.1,0.1-0.1h0.1c0.1,0,0.1,0,0.1,0.1l2,4.5l0,0l2-4.5l0.1-0.1h0.1
						c0.1,0,0.1,0,0.1,0.1l1.1,6.4c0,0.1,0,0.3-0.1,0.3h-0.8c-0.1,0-0.1-0.1-0.1-0.1l-0.5-3.5l0,0l-1.6,3.6l-0.1,0.1h-0.1
						c-0.1,0-0.1,0-0.1-0.1l-1.6-3.6l0,0l-0.5,3.5l-0.1,0.1h-0.9c-0.1,0-0.1-0.1-0.1-0.3L164.4,361.7z"/>
				</g>
			</g>
			<g>
				<g>
					<path fill="#00953A" d="M151.6,359.8L81.3,238c-2.7-4.7-7.2-4.7-9.9,0L1.2,359.8c-2.7,4.7-0.5,8.5,4.9,8.5h140.6
						C152,368.3,154.3,364.5,151.6,359.8z M73.2,320.1l-8.1,4.7c0,0-0.5,0.3-0.9-0.1l0,0c-1.9-1.9-4.5-3-7.3-3
						c-5.8,0-10.5,4.7-10.5,10.5s4.7,10.5,10.5,10.5c2.4,0,4.7-0.9,6.6-2.3l0.1-0.1c0.5-0.5,1.2-0.1,1.2-0.1l7.8,4.5
						c0,0,0.7,0.4,0.1,1.1c0,0,0,0-0.1,0.1c-3.8,4.5-9.6,7.3-15.8,7.3c-11.6,0-20.9-9.5-20.9-20.9c0-11.6,9.5-20.9,20.9-20.9
						c6.8,0,12.7,3.2,16.5,8.1c0,0.1,0.1,0.3,0.1,0.4C73.4,319.9,73.2,320.1,73.2,320.1z M71.3,294.2l-5.5-12
						c-0.5-1.2-2-1.8-3.2-1.1l-8.2,4.2c-1.2,0.5-1.6,0.1-0.9-0.9l21.8-37.8c0.7-1.2,1.8-1.2,2.4,0l25.3,44.2
						c0.7,1.2,0.4,1.4-0.7,0.5l-15.4-13.5c-1.1-0.8-2.4-0.7-3.1,0.5l-9.9,16.1C73,295.5,71.9,295.5,71.3,294.2z M97,353
						c-11.6,0-20.9-9.5-20.9-20.9c0-11.6,9.5-20.9,20.9-20.9c11.6,0,20.9,9.5,20.9,20.9C118.1,343.7,108.6,353,97,353z"/>
				</g>
				<g>
					<path fill="#00953A" d="M97,321.7c-5.8,0-10.5,4.7-10.5,10.5s4.7,10.5,10.5,10.5c5.8,0,10.5-4.7,10.5-10.5
						C107.5,326.3,103,321.7,97,321.7z"/>
				</g>
			</g>
		</g>
		<g>
			<g>
				<path fill="#5C6670" d="M235,246.3c3.6,0,7.2,1.4,10,3.8c0.5,0.5,1.4,0.5,1.9,0l5.8-5.9c0.5-0.5,0.5-1.5-0.1-2
					c-5-4.6-10.4-6.9-17.8-6.9c-14.7,0-26.6,11.9-26.6,26.6c0,14.7,11.9,26.5,26.6,26.5c6.6,0,12.8-2.3,18-7.2c0.5-0.5,0.5-1.5,0-2
					l-5.8-6.1c-0.4-0.5-1.4-0.5-1.9,0c-2.7,2.3-6.4,3.5-9.9,3.5c-8.4,0-14.6-6.8-14.6-15C220.5,253.3,226.7,246.3,235,246.3"/>
			</g>
			<g>
				<path fill="#5C6670" d="M300.2,235.2c-14.7,0-26.5,11.9-26.5,26.6c0,14.7,11.8,26.5,26.5,26.5c14.7,0,26.5-11.8,26.5-26.5
					C326.8,247.1,314.9,235.2,300.2,235.2 M300.2,276.5c-8,0-14.7-6.6-14.7-14.7c0-8.1,6.6-14.9,14.7-14.9s14.7,6.8,14.7,14.9
					C314.9,269.9,308.3,276.5,300.2,276.5"/>
			</g>
			<g>
				<path fill="#5C6670" d="M380.7,276.7h-17.8v-39.3c0-0.8-0.7-1.4-1.4-1.4h-8.8c-0.8,0-1.4,0.7-1.4,1.4v48.8
					c0,0.7,0.5,1.4,1.4,1.4h28c0.8,0,1.4-0.7,1.4-1.4v-8C382.1,277.4,381.5,276.7,380.7,276.7"/>
			</g>
			<g>
				<path fill="#5C6670" d="M428.8,235.2c-14.7,0-26.5,11.9-26.5,26.6c0,14.7,11.8,26.5,26.5,26.5c14.7,0,26.5-11.8,26.5-26.5
					C455.4,247.1,443.7,235.2,428.8,235.2 M428.8,276.5c-8.1,0-14.7-6.6-14.7-14.7c0-8.1,6.6-14.9,14.7-14.9
					c8.1,0,14.7,6.8,14.7,14.9C443.7,269.9,436.9,276.5,428.8,276.5"/>
			</g>
			<g>
				<path fill="#5C6670" d="M510.2,266.7c6.4-2.6,10.9-8.1,10.9-14.9c0-8.8-7.2-15.9-16.1-15.9h-22c-0.8,0-1.4,0.7-1.4,1.4V286
					c0,0.7,0.5,1.4,1.4,1.4h8.8c0.7,0,1.4-0.7,1.4-1.4v-18.6h5.1l10.5,19.6c0.1,0.3,0.5,0.7,1.2,0.7h9.9c1.2,0,1.8-1.2,1.2-2.2
					L510.2,266.7z M504.1,258h-10.9v-11.5h10.9c3,0,5.5,2.6,5.5,5.5C509.6,255.2,507.1,258,504.1,258"/>
			</g>
			<g>
				<path fill="#5C6670" d="M640,236h-18c-0.7,0-1.4,0.7-1.4,1.4v48.8c0,0.7,0.5,1.4,1.4,1.4h18c14.2,0,25.8-11.6,25.8-25.9
					C665.9,247.5,654.2,236,640,236 M639.3,276.7h-7v-29.9h7c8.4,0,14.3,6.5,14.3,14.9C653.6,270.1,647.6,276.7,639.3,276.7"/>
			</g>
			<g>
				<path fill="#5C6670" d="M715.5,235.2c-14.7,0-26.5,11.9-26.5,26.6c0,14.7,11.8,26.5,26.5,26.5s26.5-11.8,26.5-26.5
					C742,247.1,730.3,235.2,715.5,235.2 M715.5,276.5c-8.1,0-14.7-6.6-14.7-14.7c0-8.1,6.6-14.9,14.7-14.9s14.7,6.8,14.7,14.9
					C730.3,269.9,723.6,276.5,715.5,276.5"/>
			</g>
			<g>
				<path fill="#5C6670" d="M572,236c-0.3-0.4-0.7-0.8-1.2-0.8H570c-0.5,0-1.1,0.4-1.2,0.8l-23.1,49.6c-0.4,0.9,0.1,1.9,1.2,1.9h8.1
					c1.5,0,2.2-0.4,2.7-1.8l2.7-5.9h20.1l2.7,5.8c0.8,1.6,1.1,1.9,2.6,1.9h8.2c1.1,0,1.8-0.9,1.2-1.9L572,236z M563.7,271.1
					l6.8-15.4l6.8,15.4H563.7z"/>
			</g>
		</g>
		<g enable-background="new    ">
			<path fill="#5C6670" d="M226,329.6c10.5,0,18.4,8,18.4,18.1c0,10.5-7.9,18.6-18.4,18.6c-10.5,0-18.4-8.2-18.4-18.6
				C207.6,337.6,215.5,329.6,226,329.6z M226,360.6c6.4,0,11.7-5.6,11.7-12.9c0-7-5.3-12.4-11.7-12.4s-11.7,5.4-11.7,12.4
				C214.4,355,219.6,360.6,226,360.6z"/>
			<path fill="#5C6670" d="M248.9,361h3.7v-16h-4v-4.8h4v-1.2c0-8.3,6.6-9.3,10-9.3c1.5,0,2.6,0.2,2.6,0.2v5.1c0,0-0.7-0.2-2-0.2
				c-1.5,0-4.3,0.3-4.3,4v1.3h11.6v-1.2c0-8.3,6.6-9.3,10-9.3c1.6,0,2.7,0.2,2.7,0.2v5.1c0,0-0.7-0.2-2-0.2c-1.5,0-4.4,0.3-4.4,4
				v1.3h18V361h3.7v4.8h-13.8V361h3.7v-16h-11.6v16h4.4v4.8h-14.4V361h3.7v-16h-11.6v16h4.3v4.8h-14.4V361z M288.4,330.2h6.5v5.7
				h-6.5V330.2z"/>
			<path fill="#5C6670" d="M315.4,339.6c4.3,0,10.5,1.6,10.5,6.1v3.5h-5.5v-1.7c0-1.7-2.6-2.5-4.8-2.5c-4.7,0-7.5,3.2-7.5,7.9
				c0,5.3,3.7,8.1,8,8.1c3.6,0,6.6-2,8-3.1l2.3,4.5c-1.8,1.7-5.7,4-10.6,4c-7.5,0-14.1-5.1-14.1-13.3
				C301.7,345.4,307.5,339.6,315.4,339.6z"/>
			<path fill="#5C6670" d="M330.2,361h3.7v-16h-4v-4.8h10.3V361h3.7v4.8h-13.7V361z M333.9,330.2h6.4v5.7h-6.4V330.2z"/>
		</g>
		<g enable-background="new    ">
			<path fill="#5C6670" d="M359.2,350h1.6v-0.9c0-3.3-2.1-4.4-4.7-4.4c-3.8,0-7.2,2.5-7.2,2.5l-2.4-4.4c0,0,4-3.2,10.1-3.2
				c6.9,0,10.5,3.6,10.5,10.1v10.2c0,0.8,0.4,1.1,1.1,1.1h2.3v4.8h-6c-2.4,0-3.3-1.3-3.3-2.7v-0.3c0-0.8,0.1-1.3,0.1-1.3h-0.1
				c0,0-2.2,4.9-8.1,4.9c-4.4,0-8.5-2.6-8.5-7.8C344.9,350.8,355.1,350,359.2,350z M355,361.6c3.5,0,5.9-3.7,5.9-6.9v-0.9h-1.1
				c-2.5,0-8.6,0.4-8.6,4.3C351.3,360,352.6,361.6,355,361.6z"/>
		</g>
		<g enable-background="new    ">
			<path fill="#5C6670" d="M374,335h-4v-4.8h10.3v27c0,2.3,0.5,3.5,2.6,3.5c0.7,0,1.2,0,1.2,0v5.1c0,0-1.1,0.2-2.3,0.2
				c-4.1,0-7.8-1.4-7.8-8.3V335z"/>
			<path fill="#5C6670" d="M406.5,354.3v2.7c0,2.3,2.9,3.7,6.3,3.7c3.6,0,6.2-1.6,6.2-4.4c0-3.6-4.1-4.8-8.2-6.4
				c-4.8-1.8-9.4-4-9.4-10.3c0-7.2,5.8-9.9,11.9-9.9c5.6,0,11.3,2.2,11.3,6.3v4.7h-6v-2.4c0-1.8-2.7-2.8-5.3-2.8
				c-2.9,0-5.3,1.2-5.3,3.9c0,3.3,3.3,4.4,7,5.8c5.3,1.9,10.6,4,10.6,10.7c0,7.3-6.1,10.6-12.8,10.6c-5.9,0-12.2-2.7-12.2-8v-4.1
				H406.5z"/>
			<path fill="#5C6670" d="M432.8,345h-3.9v-4.8h4.1v-7h6.2v7h5.8v4.8h-5.8v10.8c0,4.4,3.3,5,5.1,5c0.7,0,1.2,0,1.2,0v5.2
				c0,0-0.8,0.1-2,0.1c-3.6,0-10.7-1.1-10.7-9.6V345z"/>
		</g>
		<g enable-background="new    ">
			<path fill="#5C6670" d="M460.8,350h1.6v-0.9c0-3.3-2.1-4.4-4.7-4.4c-3.8,0-7.2,2.5-7.2,2.5l-2.4-4.4c0,0,4-3.2,10.1-3.2
				c6.9,0,10.5,3.6,10.5,10.1v10.2c0,0.8,0.4,1.1,1.1,1.1h2.3v4.8h-6c-2.4,0-3.3-1.3-3.3-2.7v-0.3c0-0.8,0.2-1.3,0.2-1.3H463
				c0,0-2.2,4.9-8.1,4.9c-4.4,0-8.5-2.6-8.5-7.8C446.5,350.8,456.7,350,460.8,350z M456.6,361.6c3.5,0,5.9-3.7,5.9-6.9v-0.9h-1.1
				c-2.5,0-8.6,0.4-8.6,4.3C452.9,360,454.2,361.6,456.6,361.6z"/>
			<path fill="#5C6670" d="M476.6,345h-3.9v-4.8h4.1v-7h6.2v7h5.8v4.8H483v10.8c0,4.4,3.3,5,5.1,5c0.7,0,1.2,0,1.2,0v5.2
				c0,0-0.8,0.1-2,0.1c-3.6,0-10.7-1.1-10.7-9.6V345z"/>
		</g>
		<g enable-background="new    ">
			<path fill="#5C6670" d="M504.1,339.6c7.4,0,11.4,5.4,11.4,12.1c0,0.8-0.1,2.2-0.1,2.2h-17.7c0.4,4.7,3.8,7.1,7.7,7.1
				c4.2,0,7.4-2.7,7.4-2.7l2.5,4.5c0,0-3.9,3.6-10.3,3.6c-8.5,0-13.7-6.1-13.7-13.4C491.1,345.1,496.4,339.6,504.1,339.6z
				 M508.9,350.1c-0.1-3.5-2.3-5.6-5-5.6c-3.3,0-5.6,2.3-6.2,5.6H508.9z"/>
		</g>
		<g enable-background="new    ">
			<path fill="#5C6670" d="M529.5,330.2h13.9v5h-4.2l4.6,20.3c0.3,1.5,0.4,3.1,0.4,3.1h0.2c0,0,0.2-1.7,0.6-3.1l6.7-25.2h5.3
				l6.7,25.2c0.4,1.5,0.6,3.1,0.6,3.1h0.2c0,0,0.1-1.7,0.4-3.1l4.6-20.3h-4.2v-5H579v5h-3.3l-7.6,30.6h-7.4l-6-22.4
				c-0.4-1.5-0.6-3.3-0.6-3.3h-0.1c0,0-0.2,1.8-0.6,3.3l-6,22.4h-7.4l-7.6-30.6h-3.3V330.2z"/>
		</g>
		<g enable-background="new    ">
			<path fill="#5C6670" d="M591,339.6c7.4,0,11.4,5.4,11.4,12.1c0,0.8-0.1,2.2-0.1,2.2h-17.7c0.4,4.7,3.8,7.1,7.7,7.1
				c4.2,0,7.4-2.7,7.4-2.7l2.5,4.5c0,0-3.9,3.6-10.3,3.6c-8.5,0-13.7-6.1-13.7-13.4C578,345.1,583.3,339.6,591,339.6z M595.8,350.1
				c-0.1-3.5-2.3-5.6-5-5.6c-3.3,0-5.6,2.3-6.2,5.6H595.8z"/>
		</g>
		<g enable-background="new    ">
			<path fill="#5C6670" d="M606.5,335h-3.9v-4.8h10.3v11.1c0,1.3-0.1,2.2-0.1,2.2h0.1c0,0,2.3-3.8,7.7-3.8c6.9,0,11.4,5.5,11.4,13.4
				c0,8.1-5,13.4-11.8,13.4c-5.6,0-7.6-4.1-7.6-4.1h-0.1c0,0,0.1,0.9,0.1,1.9v1.6h-6V335z M619.1,361c3.5,0,6.5-2.9,6.5-7.9
				c0-4.9-2.6-8-6.4-8c-3.3,0-6.4,2.4-6.4,8.1C612.8,357.1,614.8,361,619.1,361z"/>
		</g>
		<g enable-background="new    ">
			<path fill="#5C6670" d="M647.8,360.8h4.3v-25.7h-4.3v-5h17c2.1,0,4.3,0.2,6,0.9c3.9,1.6,6.4,5.6,6.4,10.5c0,5.1-2.7,9.4-6.8,10.8
				c-1.7,0.6-3.5,0.7-5.5,0.7h-6.4v7.7h4.3v4.9h-15.1V360.8z M664.1,347.9c1.5,0,2.6-0.2,3.6-0.7c1.9-1,2.9-3,2.9-5.6
				c0-2.5-1-4.4-2.6-5.3c-1-0.6-2.3-0.9-3.9-0.9h-5.6v12.4H664.1z"/>
			<path fill="#5C6670" d="M692.5,339.6c7.8,0,14.1,5.6,14.1,13.4c0,7.9-6.3,13.4-14,13.4c-7.8,0-14.1-5.5-14.1-13.4
				C678.5,345.2,684.8,339.6,692.5,339.6z M692.6,360.9c4.1,0,7.6-3.2,7.6-8c0-4.7-3.5-8-7.6-8c-4.2,0-7.6,3.3-7.6,8
				C685,357.7,688.4,360.9,692.6,360.9z"/>
		</g>
		<g enable-background="new    ">
			<path fill="#5C6670" d="M709.3,361h3.7v-14.9c0-0.7-0.4-1.1-1.1-1.1h-2.9v-4.8h6.7c2.3,0,3.4,1,3.4,3.1v1.5c0,1-0.1,1.6-0.1,1.6
				h0.1c1.2-3.7,4.2-6.6,8.1-6.6c0.6,0,1.2,0.1,1.2,0.1v6.3c0,0-0.7-0.1-1.6-0.1c-5.2,0-7.5,4.5-7.5,9.3v5.6h3.7v4.8h-13.7V361z"/>
		</g>
		<g enable-background="new    ">
			<path fill="#5C6670" d="M735.7,345h-3.9v-4.8h4.1v-7h6.2v7h5.8v4.8h-5.8v10.8c0,4.4,3.3,5,5.1,5c0.7,0,1.2,0,1.2,0v5.2
				c0,0-0.8,0.1-2,0.1c-3.6,0-10.7-1.1-10.7-9.6V345z"/>
			<path fill="#5C6670" d="M765.7,350h1.6v-0.9c0-3.3-2.1-4.4-4.7-4.4c-3.8,0-7.2,2.5-7.2,2.5l-2.4-4.4c0,0,4-3.2,10.1-3.2
				c6.9,0,10.5,3.6,10.5,10.1v10.2c0,0.8,0.4,1.1,1.1,1.1h2.3v4.8h-6c-2.4,0-3.3-1.3-3.3-2.7v-0.3c0-0.8,0.2-1.3,0.2-1.3h-0.1
				c0,0-2.2,4.9-8.1,4.9c-4.4,0-8.5-2.6-8.5-7.8C751.3,350.8,761.5,350,765.7,350z M761.4,361.6c3.5,0,5.9-3.7,5.9-6.9v-0.9h-1.1
				c-2.5,0-8.6,0.4-8.6,4.3C757.7,360,759,361.6,761.4,361.6z"/>
			<path fill="#5C6670" d="M781.7,335h-4v-4.8H788v27c0,2.3,0.5,3.5,2.6,3.5c0.7,0,1.2,0,1.2,0v5.1c0,0-1.1,0.2-2.3,0.2
				c-4.1,0-7.8-1.4-7.8-8.3V335z"/>
		</g>
	</g>
</g>
</svg>
