<svg width="515" height="139" viewBox="0 0 515 139" xmlns="http://www.w3.org/2000/svg" xmlns:xlink="http://www.w3.org/1999/xlink"><title>Group</title><defs><path id="a" d="M138.772.234H0V139h138.772z"/><path id="c" d="M0 139.766h138.772V1H0z"/></defs><g fill="none" fill-rule="evenodd"><g transform="translate(0 -1)"><g transform="translate(0 .766)"><mask id="b" fill="#fff"><use xlink:href="#a"/></mask><path d="M69.39 1.835c-37.378 0-67.784 30.404-67.784 67.783 0 37.378 30.406 67.78 67.784 67.78 37.375 0 67.78-30.402 67.78-67.78 0-37.379-30.405-67.783-67.78-67.783m0 137.165C31.128 139 0 107.876 0 69.618 0 31.36 31.128.233 69.39.233c38.259 0 69.382 31.126 69.382 69.385 0 38.258-31.123 69.382-69.382 69.382" fill="#E6AA24" mask="url(#b)"/></g><path d="M69.39 27.1c-23.868 0-43.284 19.417-43.284 43.285 0 23.862 19.416 43.283 43.284 43.283 23.864 0 43.28-19.42 43.28-43.284 0-23.867-19.416-43.285-43.28-43.285m0 90.572c-26.078 0-47.294-21.213-47.294-47.287 0-26.075 21.216-47.29 47.294-47.29 26.075 0 47.29 21.215 47.29 47.29s-21.215 47.287-47.29 47.287" fill="#002B38"/><path d="M69.39 28.302c-23.205 0-42.082 18.877-42.082 42.083 0 23.204 18.877 42.082 42.082 42.082 23.205 0 42.083-18.878 42.083-42.082 0-23.206-18.878-42.083-42.083-42.083m0 86.569c-24.531 0-44.486-19.956-44.486-44.486 0-24.532 19.955-44.487 44.486-44.487 24.53 0 44.487 19.955 44.487 44.487 0 24.53-19.956 44.486-44.487 44.486m0-90.577c-25.411 0-46.088 20.673-46.088 46.09 0 25.416 20.677 46.088 46.088 46.088 25.416 0 46.084-20.672 46.084-46.087 0-25.418-20.668-46.091-46.084-46.091m0 94.583c-26.741 0-48.492-21.76-48.492-48.492 0-26.738 21.75-48.493 48.492-48.493 26.738 0 48.493 21.755 48.493 48.493 0 26.733-21.755 48.492-48.493 48.492" fill="#002B38"/><path d="M42.334 66.498c5.41 1.171 7.907 3.152 7.907 6.895 0 4.2-3.466 6.906-8.29 6.906-3.848 0-7.005-1.283-9.92-3.882l1.699-2.016c2.532 2.288 4.963 3.436 8.322 3.436 3.264 0 5.416-1.703 5.416-4.165 0-2.288-1.217-3.57-6.317-4.646-5.58-1.214-8.15-3.017-8.15-7.042 0-3.882 3.37-6.654 7.977-6.654 3.54 0 6.072 1 8.535 2.978l-1.599 2.117c-2.253-1.838-4.506-2.637-7.003-2.637-3.157 0-5.166 1.737-5.166 3.956 0 2.322 1.245 3.606 6.59 4.754" fill="#3D1013"/><path d="M41.95 81.9c-4.157 0-7.75-1.402-10.986-4.288l-1.167-1.04 3.777-4.466 1.23 1.109c2.373 2.144 4.474 3.017 7.247 3.017 1.76 0 3.816-.667 3.816-2.56 0-.984 0-2.012-5.049-3.08-4.894-1.061-9.419-2.837-9.419-8.607 0-4.786 4.03-8.26 9.578-8.26 3.726 0 6.666 1.03 9.54 3.335l1.213.973-3.536 4.688-1.292-1.054c-1.904-1.551-3.804-2.273-5.99-2.273-2.099 0-3.569.97-3.569 2.35 0 1 0 2.04 5.321 3.188 4.277.93 9.182 2.73 9.182 8.46 0 5.01-4.07 8.509-9.896 8.509" fill="#3D1013"/><mask id="d" fill="#fff"><use xlink:href="#c"/></mask><path fill="#002B38" mask="url(#d)" d="M55.197 111.644h2.738V55.675h-2.738z"/><path fill="#002B38" mask="url(#d)" d="M53.592 113.249h5.948V54.073h-5.948z"/><path d="M73.058 58.207H66.92v10.68h6c4.017 0 6.654-2.149 6.654-5.375 0-3.502-2.602-5.305-6.515-5.305m-.248 13.177h-5.89v8.566h-2.746V55.675h9.09c5.48 0 9.09 2.912 9.09 7.736 0 5.266-4.379 7.973-9.544 7.973" fill="#3D1013" mask="url(#d)"/><path d="M68.517 67.285h4.401c2.444 0 5.05-.989 5.05-3.772 0-3.064-2.668-3.7-4.91-3.7h-4.54v7.472zm0 14.267h-5.94V54.073h10.687c6.491 0 10.687 3.666 10.687 9.338 0 5.728-4.479 9.579-11.14 9.579h-4.294v8.563z" fill="#3D1013" mask="url(#d)"/><text mask="url(#d)" font-family="MuseoSlab-500, Museo Slab" font-size="36" fill="#640637"><tspan x="178" y="81">Statewide Internet</tspan> <tspan x="178" y="124">Portal Authority</tspan></text><path d="M94.274 58.688l-5.55 12.386h11.064l-5.514-12.386zm12.382 21.262h-2.947l-2.847-6.414H87.647l-2.874 6.414h-2.811L93.025 55.5h2.567l11.064 24.45z" fill="#3D1013" mask="url(#d)"/><path d="M91.195 69.469h6.127L94.27 62.62l-3.075 6.848zm17.947 12.083h-6.476l-2.846-6.414H88.686l-2.873 6.414h-6.337L91.99 53.9h4.638l12.514 27.652z" fill="#3D1013" mask="url(#d)"/><path d="M69.39 9.211c-33.733 0-61.172 27.441-61.172 61.173 0 33.73 27.439 61.172 61.172 61.172 33.729 0 61.173-27.443 61.173-61.172 0-33.732-27.444-61.173-61.173-61.173m0 126.351c-35.94 0-65.178-29.239-65.178-65.178 0-35.942 29.239-65.179 65.178-65.179 35.936 0 65.175 29.237 65.175 65.18 0 35.938-29.24 65.177-65.175 65.177" fill="#002B38" mask="url(#d)"/><path d="M116.16 101.283l-.686-.415a55.813 55.813 0 0 0 6.235-14.627 56.992 56.992 0 0 0 1.753-10.498l.8.059a56.617 56.617 0 0 1-1.785 10.644 56.314 56.314 0 0 1-6.317 14.837M21.607 101.348a56.746 56.746 0 0 1-4.762-9.69 56.445 56.445 0 0 1-3.52-15.737l.798-.058a55.883 55.883 0 0 0 3.466 15.511 56.549 56.549 0 0 0 4.696 9.552l-.678.422z" fill="#E6AA24" mask="url(#d)"/><path d="M30.22 110.138c.094.151.239.313.43.494.69.653 1.426.715 2.005.105.553-.585.406-1.259-.224-1.856-.25-.236-.458-.396-.582-.464l-1.63 1.721zm1.449-2.676c.32.216.718.518 1.177.953.566.535.856 1.058.895 1.543.043.44-.117.899-.49 1.293-.38.401-.796.604-1.236.623-.607.035-1.256-.266-1.814-.795a2.742 2.742 0 0 1-.422-.474l-1.68 1.773-.57-.541 4.14-4.375zM34.267 113.862c-.78 1.041-.916 2.397.075 3.14.998.748 2.251.252 3.081-.854.726-.97.98-2.362-.07-3.148-1.042-.78-2.284-.209-3.086.862m3.842 2.755c-1.256 1.68-2.944 1.805-4.188.872-1.287-.965-1.445-2.64-.338-4.117 1.161-1.548 2.881-1.84 4.184-.864 1.331.998 1.426 2.662.342 4.11M40.59 117.989l.696.406c.728.424 1.42.294 1.772-.308.396-.68.077-1.264-.637-1.691-.33-.192-.582-.297-.71-.33l-1.121 1.923zm.719-2.796c.385.13.9.378 1.37.652.727.424 1.119.83 1.274 1.318.129.39.068.836-.17 1.242-.405.696-1.112.902-1.776.766l-.014.023c.325.378.348.895.154 1.515-.257.835-.428 1.416-.436 1.683l-.704-.41c0-.2.148-.721.38-1.464.269-.818.148-1.255-.457-1.64l-.641-.373-1.33 2.282-.68-.396 3.03-5.198zM47.006 118.929l-1.687-.765.275-.61 4.108 1.864-.277.609-1.694-.77-2.242 4.939-.723-.33zM52.018 124.002l.005-1.855c.001-.42.034-.793.062-1.156l-.017-.006c-.203.313-.418.632-.65.945l-1.138 1.474 1.738.598zm-2.093-.068l-1.222 1.61-.77-.266 3.941-5.096.9.31-.013 6.445-.796-.274.007-2.026-2.047-.703zM56.273 121.552l.765.176-1.216 5.297 2.538.583-.148.643-3.305-.76zM66.4 126.711l-.467-1.792c-.107-.407-.17-.775-.235-1.133h-.017c-.117.353-.244.716-.387 1.077l-.725 1.714 1.831.134zm-2.038.468l-.77 1.865-.81-.059 2.507-5.926.947.068 1.631 6.23-.84-.062-.509-1.959-2.156-.157zM70.39 123.251l.146 3.603c.057 1.363.686 1.916 1.5 1.882.902-.037 1.456-.657 1.4-2.003l-.149-3.602.794-.033.147 3.55c.077 1.868-.876 2.676-2.193 2.731-1.247.051-2.215-.624-2.293-2.51l-.149-3.586.796-.032zM77.352 123.356l-1.833.276-.1-.66 4.46-.676.1.662-1.84.278.81 5.364-.787.12zM81.988 121.816l.654 2.465 2.85-.755-.653-2.466.768-.203 1.562 5.89-.767.205-.734-2.762-2.85.755.733 2.763-.761.2-1.562-5.89zM89.126 122.905c.489 1.207 1.581 2.022 2.729 1.557 1.156-.47 1.379-1.798.858-3.08-.454-1.123-1.516-2.058-2.731-1.565-1.207.488-1.358 1.848-.856 3.088m4.345-1.87c.788 1.945.025 3.455-1.417 4.038-1.491.605-3.007-.126-3.7-1.835-.728-1.793-.089-3.42 1.42-4.03 1.541-.625 3.018.152 3.697 1.828M95.899 119.624l.705-.388c.738-.404.985-1.065.65-1.676-.38-.69-1.044-.718-1.777-.326-.335.183-.555.345-.648.438l1.07 1.952zm-2.025-2.057c.309-.264.787-.577 1.263-.838.737-.405 1.288-.53 1.786-.412.4.091.75.373.978.786.386.706.199 1.417-.26 1.917l.012.023c.492-.083.947.162 1.378.65.583.65.992 1.094 1.216 1.24l-.712.392c-.171-.103-.542-.498-1.058-1.082-.563-.65-1.001-.772-1.641-.452l-.65.356 1.269 2.316-.69.38-2.891-5.276zM99.288 114.279l3.35 5.092-.657.433-3.351-5.092zM102.3 112.954l-1.468 1.133-.409-.53 3.574-2.758.408.53-1.475 1.139 3.317 4.295-.63.486zM110.403 113.199l-1.786-1.872-3.816-1.208.648-.62 1.783.625c.488.172.875.315 1.307.492l.012-.013c-.15-.406-.274-.838-.422-1.334l-.528-1.823.648-.618.938 3.943 1.792 1.878-.576.55zM19.841 55.803c.07.316.07.913-.112 1.631-.419 1.666-1.787 2.656-3.724 2.17-1.85-.467-2.789-2.035-2.329-3.868.185-.738.46-1.163.616-1.337l.576.341c-.213.253-.42.64-.545 1.13-.349 1.386.306 2.53 1.858 2.92 1.447.364 2.586-.237 2.948-1.674.117-.465.14-.963.067-1.308l.645-.005zM17.8 53.011c1.215.462 2.557.217 2.998-.94.442-1.166-.38-2.234-1.673-2.727-1.133-.43-2.54-.289-3.007.938-.464 1.217.43 2.252 1.681 2.73m1.587-4.458c1.961.747 2.548 2.334 1.996 3.787-.573 1.504-2.14 2.118-3.865 1.462-1.809-.688-2.565-2.262-1.987-3.784.592-1.555 2.166-2.107 3.856-1.465M17.617 45.405l.36-.699 4.83 2.493L24 44.886l.587.303-1.556 3.012zM22.877 42.166c1.087.717 2.45.77 3.132-.265.686-1.04.116-2.262-1.04-3.025-1.01-.667-2.418-.835-3.139.26-.716 1.087-.071 2.293 1.047 3.03m2.52-4.004c1.753 1.156 1.98 2.833 1.123 4.13-.886 1.345-2.55 1.602-4.09.587-1.617-1.067-2.012-2.768-1.116-4.127.916-1.39 2.573-1.586 4.084-.59M27.061 35.921l.521-.614c.543-.64.537-1.347.005-1.798-.6-.508-1.231-.296-1.776.334-.245.29-.393.52-.448.64l1.698 1.438zm-2.627-1.194c.195-.357.529-.82.88-1.235.543-.642 1.012-.956 1.519-1.024.406-.058.834.08 1.194.384.614.52.693 1.251.444 1.882l.021.017c.427-.254.941-.187 1.517.111.777.398 1.32.668 1.58.724l-.526.621c-.195-.036-.683-.27-1.374-.63-.758-.407-1.21-.364-1.693.164l-.479.566 2.014 1.707-.508.6-4.589-3.887zM33.069 30.61l-1.637-.867c-.372-.197-.685-.4-.993-.592l-.013.012c.183.325.364.662.533 1.013l.774 1.692 1.336-1.258zm-1.032 1.817l.853 1.829-.592.558-2.671-5.854.69-.651 5.692 3.009-.612.576-1.788-.948-1.572 1.48zM37.43 29.396c.182-.09.42-.254.668-.436 1.354-1 1.53-2.3.553-3.624-.847-1.163-2.044-1.414-3.383-.425a4.532 4.532 0 0 0-.694.613l2.857 3.872zm-3.833-3.871c.343-.343.769-.725 1.27-1.095.91-.671 1.714-.94 2.439-.855.732.077 1.406.457 1.992 1.25.59.802.826 1.64.7 2.428-.12.797-.693 1.604-1.648 2.307-.451.333-.845.59-1.192.79l-3.561-4.825zM41.492 23.694c.632 1.138 1.814 1.815 2.897 1.215 1.092-.605 1.151-1.951.48-3.162-.587-1.058-1.755-1.86-2.9-1.223-1.14.632-1.126 2-.477 3.17m4.087-2.382c1.018 1.835.443 3.425-.918 4.18-1.407.78-3 .238-3.896-1.375-.938-1.692-.5-3.381.922-4.172 1.455-.807 3.014-.214 3.892 1.367M50.554 21.524a2.78 2.78 0 0 0 1.463-.097c.76-.27 1.06-.827.856-1.406-.191-.54-.607-.737-1.49-.76-1.055 0-1.808-.281-2.095-1.091-.317-.895.189-1.824 1.307-2.22.588-.208 1.063-.223 1.37-.17l.01.68a2.397 2.397 0 0 0-1.188.114c-.785.277-.918.852-.778 1.244.19.538.634.679 1.536.705 1.105.03 1.766.324 2.066 1.169.315.887-.07 1.887-1.427 2.367-.554.197-1.217.25-1.597.154l-.033-.69zM55.62 15.242l-1.8.443-.159-.65 4.38-1.08.161.652-1.809.446 1.298 5.267-.773.19zM62.683 16.825l-.845-1.648c-.192-.374-.333-.719-.474-1.054l-.018.002c-.037.371-.08.752-.144 1.136l-.334 1.831 1.815-.267zm-1.887.9l-.348 1.987-.806.118 1.165-6.329.94-.138 2.941 5.727-.832.123-.923-1.803-2.137.314zM66.365 13.579l-1.849.096-.036-.668 4.504-.234.034.668-1.859.096.282 5.415-.794.042zM73.897 16.176l-2.368-.107-.099 2.196 2.637.119-.028.66-3.425-.156.276-6.088 3.288.148-.03.66-2.501-.114-.089 1.924 2.367.107zM76.684 19.324l-.465-6.266.819.145.177 3.16c.046.778.074 1.553.08 2.15l.018.004c.203-.58.515-1.257.855-1.997l1.334-2.883.809.142.194 3.17c.044.743.079 1.484.056 2.13l.018.004c.24-.637.527-1.274.846-1.988l1.325-2.886.79.139-2.754 5.698-.81-.142-.206-3.257c-.052-.8-.073-1.407-.047-2.026l-.017-.004a18.883 18.883 0 0 1-.808 1.876l-1.404 2.973-.81-.142zM86.2 15.182l-1.677 5.856-.756-.218 1.678-5.854zM87.418 21.302c.172.106.44.22.726.331 1.566.61 2.758.064 3.355-1.469.529-1.336.102-2.482-1.448-3.085a4.323 4.323 0 0 0-.889-.257l-1.744 4.48zm1.22-5.305c.474.106 1.024.262 1.605.488 1.053.41 1.708.945 2.025 1.602.326.66.364 1.432.007 2.35-.36.927-.94 1.574-1.675 1.89-.737.324-1.725.27-2.828-.16a12.312 12.312 0 0 1-1.306-.585l2.172-5.585zM96.683 23.076l-2.098-1.104-1.023 1.947 2.338 1.229-.307.585-3.035-1.596 2.838-5.396 2.914 1.532-.307.585-2.218-1.168-.896 1.706 2.097 1.104zM103.336 23.491l-3.5 4.994-.645-.45 3.5-4.996zM101.462 29.627l3.934-4.658.656.554-.497 3.618c-.115.838-.26 1.556-.442 2.22l.02.005c.47-.669.934-1.248 1.548-1.974l1.645-1.949.568.48-3.934 4.658-.609-.514.517-3.613c.113-.792.252-1.587.443-2.29l-.027-.01a40.812 40.812 0 0 1-1.575 1.961l-1.68 1.991-.567-.479zM111.092 31.074l-1.273-1.347.486-.46 3.1 3.278-.487.46-1.279-1.352-3.943 3.725-.545-.578zM113.983 38.473l-1.453-1.869-1.733 1.348 1.62 2.083-.52.405-2.103-2.704 4.807-3.738 2.02 2.596-.52.405-1.538-1.976-1.519 1.181 1.453 1.87zM116.002 40.749l.428.682c.446.713 1.12.92 1.71.55.667-.417.656-1.083.222-1.793-.2-.321-.376-.532-.474-.621l-1.886 1.182zm1.936-2.141c.28.294.621.753.91 1.213.446.713.603 1.254.513 1.759-.066.405-.328.77-.727 1.02-.682.428-1.403.28-1.928-.147l-.023.014c.112.485-.107.953-.567 1.412-.614.62-1.037 1.055-1.168 1.287l-.432-.69c.092-.176.465-.57 1.018-1.118.616-.6.712-1.044.356-1.663l-.394-.63-2.238 1.403-.418-.667 5.098-3.193zM115.659 46.448l5.5-2.62.369.777-1.944 3.087c-.45.715-.878 1.309-1.317 1.838l.016.012a27.023 27.023 0 0 1 2.222-1.157l2.3-1.095.319.669-5.5 2.617-.341-.717 1.959-3.076c.43-.673.883-1.34 1.347-1.901l-.021-.021c-.674.37-1.326.702-2.24 1.137l-2.35 1.119-.32-.67zM122.068 54.486l-.77-2.242-2.08.717.86 2.498-.625.214-1.116-3.242 5.767-1.984 1.071 3.114-.624.215-.816-2.37-1.822.627.771 2.242zM125.472 57.26l-.423-1.807.651-.152 1.03 4.393-.652.152-.425-1.813-5.282 1.238-.18-.774z" fill="#3D1013" mask="url(#d)"/><path d="M60.257 45.222a3.34 3.34 0 0 1-3.334 3.341 3.337 3.337 0 0 1-3.335-3.34 3.333 3.333 0 0 1 3.335-3.335 3.336 3.336 0 0 1 3.334 3.334" fill="#E6AA24" mask="url(#d)"/><path d="M59.866 43.598l2.362-1.181s-1.524-3.292-5.41-3.292c0 0-6.03.202-6.03 6.117 0 0-.105 5.524 5.949 6.129 0 0 3.913.361 5.61-3.708L59.94 46.52s-.892 1.929-3.013 1.929c0 0-3.34 0-3.34-3.232 0 0-.034-3.265 3.445-3.302 0 0 2.066.076 2.834 1.683" fill="#3D1013" mask="url(#d)"/></g><text font-family="MuseoSlab-500, Museo Slab" font-size="40" fill="#640637" transform="translate(0 -1)"><tspan x="155" y="60">Statewide Internet</tspan> <tspan x="155" y="108">Portal Authority</tspan></text></g></svg>